%TF.GenerationSoftware,KiCad,Pcbnew,8.0.7*%
%TF.CreationDate,2025-02-10T21:08:13+01:00*%
%TF.ProjectId,stib_display,73746962-5f64-4697-9370-6c61792e6b69,2*%
%TF.SameCoordinates,Original*%
%TF.FileFunction,Soldermask,Bot*%
%TF.FilePolarity,Negative*%
%FSLAX46Y46*%
G04 Gerber Fmt 4.6, Leading zero omitted, Abs format (unit mm)*
G04 Created by KiCad (PCBNEW 8.0.7) date 2025-02-10 21:08:13*
%MOMM*%
%LPD*%
G01*
G04 APERTURE LIST*
G04 Aperture macros list*
%AMRoundRect*
0 Rectangle with rounded corners*
0 $1 Rounding radius*
0 $2 $3 $4 $5 $6 $7 $8 $9 X,Y pos of 4 corners*
0 Add a 4 corners polygon primitive as box body*
4,1,4,$2,$3,$4,$5,$6,$7,$8,$9,$2,$3,0*
0 Add four circle primitives for the rounded corners*
1,1,$1+$1,$2,$3*
1,1,$1+$1,$4,$5*
1,1,$1+$1,$6,$7*
1,1,$1+$1,$8,$9*
0 Add four rect primitives between the rounded corners*
20,1,$1+$1,$2,$3,$4,$5,0*
20,1,$1+$1,$4,$5,$6,$7,0*
20,1,$1+$1,$6,$7,$8,$9,0*
20,1,$1+$1,$8,$9,$2,$3,0*%
G04 Aperture macros list end*
%ADD10R,1.800000X1.800000*%
%ADD11C,1.800000*%
%ADD12C,3.100000*%
%ADD13C,4.700000*%
%ADD14R,2.600000X2.600000*%
%ADD15C,2.600000*%
%ADD16RoundRect,0.250000X0.412500X0.650000X-0.412500X0.650000X-0.412500X-0.650000X0.412500X-0.650000X0*%
%ADD17C,1.400000*%
%ADD18O,1.400000X1.400000*%
%ADD19R,1.700000X1.700000*%
%ADD20O,1.700000X1.700000*%
%ADD21RoundRect,0.250001X0.624999X-0.462499X0.624999X0.462499X-0.624999X0.462499X-0.624999X-0.462499X0*%
%ADD22R,1.600000X2.400000*%
%ADD23O,1.600000X2.400000*%
%ADD24C,1.600000*%
%ADD25RoundRect,0.250000X-0.650000X0.412500X-0.650000X-0.412500X0.650000X-0.412500X0.650000X0.412500X0*%
%ADD26R,1.524000X2.286000*%
%ADD27O,1.524000X2.286000*%
%ADD28RoundRect,0.250000X-0.412500X-0.650000X0.412500X-0.650000X0.412500X0.650000X-0.412500X0.650000X0*%
%ADD29RoundRect,0.375000X-0.625000X-0.375000X0.625000X-0.375000X0.625000X0.375000X-0.625000X0.375000X0*%
%ADD30RoundRect,0.500000X-0.500000X-1.400000X0.500000X-1.400000X0.500000X1.400000X-0.500000X1.400000X0*%
G04 APERTURE END LIST*
D10*
%TO.C,D10*%
X233680000Y-104775000D03*
D11*
X233680000Y-102235000D03*
%TD*%
D10*
%TO.C,D6*%
X172720000Y-104775000D03*
D11*
X172720000Y-102235000D03*
%TD*%
D10*
%TO.C,D12*%
X264000000Y-104775000D03*
D11*
X264000000Y-102235000D03*
%TD*%
D10*
%TO.C,D8*%
X203200000Y-104780000D03*
D11*
X203200000Y-102240000D03*
%TD*%
D10*
%TO.C,D2*%
X111760000Y-104775000D03*
D11*
X111760000Y-102235000D03*
%TD*%
D10*
%TO.C,D3*%
X127000000Y-104780000D03*
D11*
X127000000Y-102240000D03*
%TD*%
D10*
%TO.C,D9*%
X218440000Y-104775000D03*
D11*
X218440000Y-102235000D03*
%TD*%
D10*
%TO.C,D7*%
X187960000Y-104775000D03*
D11*
X187960000Y-102235000D03*
%TD*%
D10*
%TO.C,D4*%
X142240000Y-104780000D03*
D11*
X142240000Y-102240000D03*
%TD*%
D10*
%TO.C,D11*%
X248920000Y-104780000D03*
D11*
X248920000Y-102240000D03*
%TD*%
D12*
%TO.C,H1*%
X97500000Y-93000000D03*
D13*
X97500000Y-93000000D03*
%TD*%
D10*
%TO.C,D1*%
X96520000Y-104780000D03*
D11*
X96520000Y-102240000D03*
%TD*%
D10*
%TO.C,D5*%
X157480000Y-104780000D03*
D11*
X157480000Y-102240000D03*
%TD*%
D14*
%TO.C,J7*%
X261500000Y-26000000D03*
D15*
X261500000Y-31000000D03*
%TD*%
D16*
%TO.C,C2*%
X180562500Y-91000000D03*
X177437500Y-91000000D03*
%TD*%
D17*
%TO.C,R16*%
X222500000Y-27000000D03*
D18*
X214880000Y-27000000D03*
%TD*%
D17*
%TO.C,R14*%
X225500000Y-26500000D03*
D18*
X233120000Y-26500000D03*
%TD*%
D19*
%TO.C,J3*%
X230050000Y-68475000D03*
D20*
X227510000Y-68475000D03*
X224970000Y-68475000D03*
X222430000Y-68475000D03*
X219890000Y-68475000D03*
%TD*%
D17*
%TO.C,R4*%
X137795000Y-105410000D03*
D18*
X137795000Y-97790000D03*
%TD*%
D17*
%TO.C,R3*%
X122555000Y-105410000D03*
D18*
X122555000Y-97790000D03*
%TD*%
D21*
%TO.C,F1*%
X252000000Y-27987500D03*
X252000000Y-25012500D03*
%TD*%
D19*
%TO.C,J2*%
X259500000Y-68500000D03*
D20*
X262040000Y-68500000D03*
X264580000Y-68500000D03*
%TD*%
%TO.C,J5*%
X237800000Y-91000000D03*
X240340000Y-91000000D03*
X242880000Y-91000000D03*
X245420000Y-91000000D03*
X247960000Y-91000000D03*
X250500000Y-91000000D03*
D19*
X253040000Y-91000000D03*
%TD*%
D17*
%TO.C,R17*%
X233000000Y-29000000D03*
D18*
X225380000Y-29000000D03*
%TD*%
D22*
%TO.C,U2*%
X217155000Y-98440000D03*
D23*
X214615000Y-98440000D03*
X212075000Y-98440000D03*
X209535000Y-98440000D03*
X206995000Y-98440000D03*
X204455000Y-98440000D03*
X201915000Y-98440000D03*
X199375000Y-98440000D03*
X199375000Y-90820000D03*
X201915000Y-90820000D03*
X204455000Y-90820000D03*
X206995000Y-90820000D03*
X209535000Y-90820000D03*
X212075000Y-90820000D03*
X214615000Y-90820000D03*
X217155000Y-90820000D03*
%TD*%
D17*
%TO.C,R9*%
X207010000Y-104140000D03*
D18*
X214630000Y-104140000D03*
%TD*%
D24*
%TO.C,C6*%
X239500000Y-26500000D03*
X239500000Y-28500000D03*
%TD*%
D17*
%TO.C,R13*%
X222500000Y-24500000D03*
D18*
X214880000Y-24500000D03*
%TD*%
D16*
%TO.C,C1*%
X223062500Y-91000000D03*
X219937500Y-91000000D03*
%TD*%
D17*
%TO.C,R6*%
X177165000Y-97790000D03*
D18*
X177165000Y-105410000D03*
%TD*%
D17*
%TO.C,R7*%
X192405000Y-105410000D03*
D18*
X192405000Y-97790000D03*
%TD*%
D17*
%TO.C,R2*%
X107315000Y-105410000D03*
D18*
X107315000Y-97790000D03*
%TD*%
D17*
%TO.C,R8*%
X194945000Y-97790000D03*
D18*
X194945000Y-105410000D03*
%TD*%
D24*
%TO.C,C4*%
X246500000Y-26500000D03*
X246500000Y-28500000D03*
%TD*%
D25*
%TO.C,C5*%
X257000000Y-89937500D03*
X257000000Y-93062500D03*
%TD*%
D26*
%TO.C,U3*%
X259030000Y-37415000D03*
D27*
X256490000Y-37415000D03*
X259030000Y-62815000D03*
X223470000Y-37415000D03*
X226010000Y-37415000D03*
X228550000Y-37415000D03*
X231090000Y-37415000D03*
X233630000Y-37415000D03*
X236170000Y-37415000D03*
X238710000Y-37415000D03*
X241250000Y-37415000D03*
X243790000Y-37415000D03*
X246330000Y-37415000D03*
X248870000Y-37415000D03*
X251410000Y-37415000D03*
X253950000Y-37415000D03*
X253950000Y-62815000D03*
X251410000Y-62815000D03*
X248870000Y-62815000D03*
X246330000Y-62815000D03*
X243790000Y-62815000D03*
X241250000Y-62815000D03*
X238710000Y-62815000D03*
X236170000Y-62789977D03*
X233630000Y-62815000D03*
X230989912Y-62789977D03*
X228550000Y-62815000D03*
X226010000Y-62815000D03*
X223470000Y-62815000D03*
X256490000Y-62815000D03*
%TD*%
D22*
%TO.C,U1*%
X173975000Y-98620000D03*
D23*
X171435000Y-98620000D03*
X168895000Y-98620000D03*
X166355000Y-98620000D03*
X163815000Y-98620000D03*
X161275000Y-98620000D03*
X158735000Y-98620000D03*
X156195000Y-98620000D03*
X156195000Y-91000000D03*
X158735000Y-91000000D03*
X161275000Y-91000000D03*
X163815000Y-91000000D03*
X166355000Y-91000000D03*
X168895000Y-91000000D03*
X171435000Y-91000000D03*
X173975000Y-91000000D03*
%TD*%
D17*
%TO.C,R11*%
X237500000Y-105500000D03*
D18*
X245120000Y-105500000D03*
%TD*%
D17*
%TO.C,R15*%
X222620000Y-29500000D03*
D18*
X215000000Y-29500000D03*
%TD*%
D28*
%TO.C,C3*%
X262437500Y-98500000D03*
X265562500Y-98500000D03*
%TD*%
D17*
%TO.C,R10*%
X222250000Y-105410000D03*
D18*
X229870000Y-105410000D03*
%TD*%
D20*
%TO.C,J4*%
X237840000Y-97000000D03*
X240380000Y-97000000D03*
X242920000Y-97000000D03*
X245460000Y-97000000D03*
X248000000Y-97000000D03*
X250540000Y-97000000D03*
D19*
X253080000Y-97000000D03*
%TD*%
D29*
%TO.C,U4*%
X259700000Y-94800000D03*
X259700000Y-92500000D03*
D30*
X266000000Y-92500000D03*
D29*
X259700000Y-90200000D03*
%TD*%
D17*
%TO.C,R1*%
X101000000Y-105410000D03*
D18*
X101000000Y-97790000D03*
%TD*%
D19*
%TO.C,J1*%
X221060000Y-32500000D03*
D20*
X223600000Y-32500000D03*
X226140000Y-32500000D03*
X228680000Y-32500000D03*
X231220000Y-32500000D03*
X233760000Y-32500000D03*
X236300000Y-32500000D03*
X238840000Y-32500000D03*
X241380000Y-32500000D03*
X243920000Y-32500000D03*
X246460000Y-32500000D03*
X249000000Y-32500000D03*
X251540000Y-32500000D03*
%TD*%
D17*
%TO.C,R5*%
X151500000Y-97790000D03*
D18*
X151500000Y-105410000D03*
%TD*%
D19*
%TO.C,J6*%
X253040000Y-68500000D03*
D20*
X250500000Y-68500000D03*
X247960000Y-68500000D03*
X245420000Y-68500000D03*
X242880000Y-68500000D03*
X240340000Y-68500000D03*
X237800000Y-68500000D03*
%TD*%
D17*
%TO.C,R12*%
X257500000Y-98500000D03*
D18*
X257500000Y-106120000D03*
%TD*%
M02*
