%TF.GenerationSoftware,KiCad,Pcbnew,8.0.7*%
%TF.CreationDate,2025-02-10T21:08:13+01:00*%
%TF.ProjectId,stib_display,73746962-5f64-4697-9370-6c61792e6b69,2*%
%TF.SameCoordinates,Original*%
%TF.FileFunction,Copper,L1,Top*%
%TF.FilePolarity,Positive*%
%FSLAX46Y46*%
G04 Gerber Fmt 4.6, Leading zero omitted, Abs format (unit mm)*
G04 Created by KiCad (PCBNEW 8.0.7) date 2025-02-10 21:08:13*
%MOMM*%
%LPD*%
G01*
G04 APERTURE LIST*
%TA.AperFunction,ComponentPad*%
%ADD10R,1.800000X1.800000*%
%TD*%
%TA.AperFunction,ComponentPad*%
%ADD11C,1.800000*%
%TD*%
%TA.AperFunction,ComponentPad*%
%ADD12C,3.100000*%
%TD*%
%TA.AperFunction,ConnectorPad*%
%ADD13C,4.700000*%
%TD*%
%TA.AperFunction,ComponentPad*%
%ADD14R,2.600000X2.600000*%
%TD*%
%TA.AperFunction,ComponentPad*%
%ADD15C,2.600000*%
%TD*%
%TA.AperFunction,ComponentPad*%
%ADD16C,1.400000*%
%TD*%
%TA.AperFunction,ComponentPad*%
%ADD17O,1.400000X1.400000*%
%TD*%
%TA.AperFunction,ComponentPad*%
%ADD18R,1.700000X1.700000*%
%TD*%
%TA.AperFunction,ComponentPad*%
%ADD19O,1.700000X1.700000*%
%TD*%
%TA.AperFunction,ComponentPad*%
%ADD20R,1.600000X2.400000*%
%TD*%
%TA.AperFunction,ComponentPad*%
%ADD21O,1.600000X2.400000*%
%TD*%
%TA.AperFunction,ComponentPad*%
%ADD22C,1.600000*%
%TD*%
%TA.AperFunction,ComponentPad*%
%ADD23R,1.524000X2.286000*%
%TD*%
%TA.AperFunction,ComponentPad*%
%ADD24O,1.524000X2.286000*%
%TD*%
%TA.AperFunction,ViaPad*%
%ADD25C,1.000000*%
%TD*%
%TA.AperFunction,ViaPad*%
%ADD26C,1.500000*%
%TD*%
%TA.AperFunction,ViaPad*%
%ADD27C,0.600000*%
%TD*%
%TA.AperFunction,Conductor*%
%ADD28C,0.200000*%
%TD*%
%TA.AperFunction,Conductor*%
%ADD29C,1.300000*%
%TD*%
G04 APERTURE END LIST*
D10*
%TO.P,D10,1,K*%
%TO.N,GND*%
X233680000Y-104775000D03*
D11*
%TO.P,D10,2,A*%
%TO.N,Net-(D10-A)*%
X233680000Y-102235000D03*
%TD*%
D10*
%TO.P,D6,1,K*%
%TO.N,GND*%
X172720000Y-104775000D03*
D11*
%TO.P,D6,2,A*%
%TO.N,Net-(D6-A)*%
X172720000Y-102235000D03*
%TD*%
D10*
%TO.P,D12,1,K*%
%TO.N,GND*%
X264000000Y-104775000D03*
D11*
%TO.P,D12,2,A*%
%TO.N,Net-(D12-A)*%
X264000000Y-102235000D03*
%TD*%
D10*
%TO.P,D8,1,K*%
%TO.N,GND*%
X203200000Y-104780000D03*
D11*
%TO.P,D8,2,A*%
%TO.N,Net-(D8-A)*%
X203200000Y-102240000D03*
%TD*%
D10*
%TO.P,D2,1,K*%
%TO.N,GND*%
X111760000Y-104775000D03*
D11*
%TO.P,D2,2,A*%
%TO.N,Net-(D2-A)*%
X111760000Y-102235000D03*
%TD*%
D10*
%TO.P,D3,1,K*%
%TO.N,GND*%
X127000000Y-104780000D03*
D11*
%TO.P,D3,2,A*%
%TO.N,Net-(D3-A)*%
X127000000Y-102240000D03*
%TD*%
D10*
%TO.P,D9,1,K*%
%TO.N,GND*%
X218440000Y-104775000D03*
D11*
%TO.P,D9,2,A*%
%TO.N,Net-(D9-A)*%
X218440000Y-102235000D03*
%TD*%
D10*
%TO.P,D7,1,K*%
%TO.N,GND*%
X187960000Y-104775000D03*
D11*
%TO.P,D7,2,A*%
%TO.N,Net-(D7-A)*%
X187960000Y-102235000D03*
%TD*%
D10*
%TO.P,D4,1,K*%
%TO.N,GND*%
X142240000Y-104780000D03*
D11*
%TO.P,D4,2,A*%
%TO.N,Net-(D4-A)*%
X142240000Y-102240000D03*
%TD*%
D10*
%TO.P,D11,1,K*%
%TO.N,GND*%
X248920000Y-104780000D03*
D11*
%TO.P,D11,2,A*%
%TO.N,Net-(D11-A)*%
X248920000Y-102240000D03*
%TD*%
D12*
%TO.P,H1,1,1*%
%TO.N,GND*%
X97500000Y-93000000D03*
D13*
X97500000Y-93000000D03*
%TD*%
D10*
%TO.P,D1,1,K*%
%TO.N,GND*%
X96520000Y-104780000D03*
D11*
%TO.P,D1,2,A*%
%TO.N,Net-(D1-A)*%
X96520000Y-102240000D03*
%TD*%
D10*
%TO.P,D5,1,K*%
%TO.N,GND*%
X157480000Y-104780000D03*
D11*
%TO.P,D5,2,A*%
%TO.N,Net-(D5-A)*%
X157480000Y-102240000D03*
%TD*%
D14*
%TO.P,J7,1,Pin_1*%
%TO.N,/VIN*%
X261500000Y-26000000D03*
D15*
%TO.P,J7,2,Pin_2*%
%TO.N,GND*%
X261500000Y-31000000D03*
%TD*%
D16*
%TO.P,R16,1*%
%TO.N,/OE*%
X222500000Y-27000000D03*
D17*
%TO.P,R16,2*%
%TO.N,+3.3V(ESP)*%
X214880000Y-27000000D03*
%TD*%
D16*
%TO.P,R14,1*%
%TO.N,/DATA_CLK*%
X225500000Y-26500000D03*
D17*
%TO.P,R14,2*%
%TO.N,GND*%
X233120000Y-26500000D03*
%TD*%
D18*
%TO.P,J3,1,Pin_1*%
%TO.N,Net-(J3-Pin_1)*%
X230050000Y-68475000D03*
D19*
%TO.P,J3,2,Pin_2*%
%TO.N,Net-(J3-Pin_2)*%
X227510000Y-68475000D03*
%TO.P,J3,3,Pin_3*%
%TO.N,Net-(J3-Pin_3)*%
X224970000Y-68475000D03*
%TO.P,J3,4,Pin_4*%
%TO.N,Net-(J3-Pin_4)*%
X222430000Y-68475000D03*
%TO.P,J3,5,Pin_5*%
%TO.N,Net-(J3-Pin_5)*%
X219890000Y-68475000D03*
%TD*%
D16*
%TO.P,R4,1*%
%TO.N,Net-(U1-QE)*%
X137795000Y-105410000D03*
D17*
%TO.P,R4,2*%
%TO.N,Net-(D4-A)*%
X137795000Y-97790000D03*
%TD*%
D16*
%TO.P,R3,1*%
%TO.N,Net-(U1-QD)*%
X122555000Y-105410000D03*
D17*
%TO.P,R3,2*%
%TO.N,Net-(D3-A)*%
X122555000Y-97790000D03*
%TD*%
D18*
%TO.P,J2,1,Pin_1*%
%TO.N,Net-(J2-Pin_1)*%
X259500000Y-68500000D03*
D19*
%TO.P,J2,2,Pin_2*%
%TO.N,Net-(J2-Pin_2)*%
X262040000Y-68500000D03*
%TO.P,J2,3,Pin_3*%
%TO.N,Net-(J2-Pin_3)*%
X264580000Y-68500000D03*
%TD*%
%TO.P,J5,7,Pin_7*%
%TO.N,GND*%
X237800000Y-91000000D03*
%TO.P,J5,6,Pin_6*%
%TO.N,/RST*%
X240340000Y-91000000D03*
%TO.P,J5,5,Pin_5*%
%TO.N,/DATA_CLK*%
X242880000Y-91000000D03*
%TO.P,J5,4,Pin_4*%
%TO.N,/LATCH_CLK*%
X245420000Y-91000000D03*
%TO.P,J5,3,Pin_3*%
%TO.N,/OE*%
X247960000Y-91000000D03*
%TO.P,J5,2,Pin_2*%
%TO.N,/DATA_OUT*%
X250500000Y-91000000D03*
D18*
%TO.P,J5,1,Pin_1*%
%TO.N,+5V*%
X253040000Y-91000000D03*
%TD*%
D16*
%TO.P,R17,1*%
%TO.N,/DATA*%
X233000000Y-29000000D03*
D17*
%TO.P,R17,2*%
%TO.N,GND*%
X225380000Y-29000000D03*
%TD*%
D20*
%TO.P,U2,1,QB*%
%TO.N,Net-(U2-QB)*%
X217155000Y-98440000D03*
D21*
%TO.P,U2,2,QC*%
%TO.N,Net-(U2-QC)*%
X214615000Y-98440000D03*
%TO.P,U2,3,QD*%
%TO.N,Net-(U2-QD)*%
X212075000Y-98440000D03*
%TO.P,U2,4,QE*%
%TO.N,Net-(U2-QE)*%
X209535000Y-98440000D03*
%TO.P,U2,5,QF*%
%TO.N,Net-(U2-QF)*%
X206995000Y-98440000D03*
%TO.P,U2,6,QG*%
%TO.N,Net-(U2-QG)*%
X204455000Y-98440000D03*
%TO.P,U2,7,QH*%
%TO.N,unconnected-(U2-QH-Pad7)*%
X201915000Y-98440000D03*
%TO.P,U2,8,GND*%
%TO.N,GND*%
X199375000Y-98440000D03*
%TO.P,U2,9,QH'*%
%TO.N,/DATA_OUT*%
X199375000Y-90820000D03*
%TO.P,U2,10,~{SRCLR}*%
%TO.N,/RST*%
X201915000Y-90820000D03*
%TO.P,U2,11,SRCLK*%
%TO.N,/DATA_CLK*%
X204455000Y-90820000D03*
%TO.P,U2,12,RCLK*%
%TO.N,/LATCH_CLK*%
X206995000Y-90820000D03*
%TO.P,U2,13,~{OE}*%
%TO.N,/OE*%
X209535000Y-90820000D03*
%TO.P,U2,14,SER*%
%TO.N,Net-(U1-QH')*%
X212075000Y-90820000D03*
%TO.P,U2,15,QA*%
%TO.N,unconnected-(U2-QA-Pad15)*%
X214615000Y-90820000D03*
%TO.P,U2,16,VCC*%
%TO.N,+3.3V*%
X217155000Y-90820000D03*
%TD*%
D16*
%TO.P,R9,1*%
%TO.N,Net-(U2-QE)*%
X207010000Y-104140000D03*
D17*
%TO.P,R9,2*%
%TO.N,Net-(D9-A)*%
X214630000Y-104140000D03*
%TD*%
D22*
%TO.P,C6,1*%
%TO.N,+5V*%
X239500000Y-26500000D03*
%TO.P,C6,2*%
%TO.N,GND*%
X239500000Y-28500000D03*
%TD*%
D16*
%TO.P,R13,1*%
%TO.N,/RST*%
X222500000Y-24500000D03*
D17*
%TO.P,R13,2*%
%TO.N,+3.3V(ESP)*%
X214880000Y-24500000D03*
%TD*%
D16*
%TO.P,R6,1*%
%TO.N,Net-(U1-QG)*%
X177165000Y-97790000D03*
D17*
%TO.P,R6,2*%
%TO.N,Net-(D6-A)*%
X177165000Y-105410000D03*
%TD*%
D16*
%TO.P,R7,1*%
%TO.N,Net-(U2-QG)*%
X192405000Y-105410000D03*
D17*
%TO.P,R7,2*%
%TO.N,Net-(D7-A)*%
X192405000Y-97790000D03*
%TD*%
D16*
%TO.P,R2,1*%
%TO.N,Net-(U1-QC)*%
X107315000Y-105410000D03*
D17*
%TO.P,R2,2*%
%TO.N,Net-(D2-A)*%
X107315000Y-97790000D03*
%TD*%
D16*
%TO.P,R8,1*%
%TO.N,Net-(U2-QF)*%
X194945000Y-97790000D03*
D17*
%TO.P,R8,2*%
%TO.N,Net-(D8-A)*%
X194945000Y-105410000D03*
%TD*%
D22*
%TO.P,C4,1*%
%TO.N,+5V*%
X246500000Y-26500000D03*
%TO.P,C4,2*%
%TO.N,GND*%
X246500000Y-28500000D03*
%TD*%
D23*
%TO.P,U3,0,VIN*%
%TO.N,+5V*%
X259030000Y-37415000D03*
D24*
%TO.P,U3,1,GND*%
%TO.N,GND*%
X256490000Y-37415000D03*
%TO.P,U3,2,3v3*%
%TO.N,+3.3V(ESP)*%
X259030000Y-62815000D03*
%TO.P,U3,3,EN*%
%TO.N,Net-(J1-Pin_1)*%
X223470000Y-37415000D03*
%TO.P,U3,4,VP_SENSOR*%
%TO.N,Net-(J1-Pin_2)*%
X226010000Y-37415000D03*
%TO.P,U3,5,VN_SENSOR*%
%TO.N,Net-(J1-Pin_3)*%
X228550000Y-37415000D03*
%TO.P,U3,6,D34_ADC*%
%TO.N,Net-(J1-Pin_4)*%
X231090000Y-37415000D03*
%TO.P,U3,7,D35_ADC*%
%TO.N,Net-(J1-Pin_5)*%
X233630000Y-37415000D03*
%TO.P,U3,8,D32_ADC_TOUCH*%
%TO.N,Net-(J1-Pin_6)*%
X236170000Y-37415000D03*
%TO.P,U3,9,D33_ADC_TOUCH*%
%TO.N,Net-(J1-Pin_7)*%
X238710000Y-37415000D03*
%TO.P,U3,10,D25_ADC_DAC*%
%TO.N,Net-(J1-Pin_8)*%
X241250000Y-37415000D03*
%TO.P,U3,11,D26_ADC_DAC*%
%TO.N,Net-(J1-Pin_9)*%
X243790000Y-37415000D03*
%TO.P,U3,12,D27_ADC_TOUCH*%
%TO.N,Net-(J1-Pin_10)*%
X246330000Y-37415000D03*
%TO.P,U3,13,D14_ADC_TOUCH_...*%
%TO.N,Net-(J1-Pin_11)*%
X248870000Y-37415000D03*
%TO.P,U3,14,D12_ADC__TOUCH_...*%
%TO.N,Net-(J1-Pin_12)*%
X251410000Y-37415000D03*
%TO.P,U3,16,D13_ADC_TOUCH_...*%
%TO.N,Net-(J1-Pin_13)*%
X253950000Y-37415000D03*
%TO.P,U3,23,...TOUCH_ADC_D15*%
%TO.N,/DATA*%
X253950000Y-62815000D03*
%TO.P,U3,24,...TOUCH_ADC_D2*%
%TO.N,/OE*%
X251410000Y-62815000D03*
%TO.P,U3,26,...TOUCH_ADC_D4*%
%TO.N,Net-(J2-Pin_1)*%
X248870000Y-62815000D03*
%TO.P,U3,27,RX2*%
%TO.N,Net-(J2-Pin_2)*%
X246330000Y-62815000D03*
%TO.P,U3,28,TX2*%
%TO.N,Net-(J2-Pin_3)*%
X243790000Y-62815000D03*
%TO.P,U3,29,..._D5*%
%TO.N,/LATCH_CLK*%
X241250000Y-62815000D03*
%TO.P,U3,30,..._D18*%
%TO.N,/DATA_CLK*%
X238710000Y-62815000D03*
%TO.P,U3,31,..._D19*%
%TO.N,/RST*%
X236170000Y-62789977D03*
%TO.P,U3,33,SDA_D21*%
%TO.N,Net-(J3-Pin_1)*%
X233630000Y-62815000D03*
%TO.P,U3,34,RX0*%
%TO.N,Net-(J3-Pin_2)*%
X230989912Y-62789977D03*
%TO.P,U3,35,TX0*%
%TO.N,Net-(J3-Pin_3)*%
X228550000Y-62815000D03*
%TO.P,U3,36,SCL_D22*%
%TO.N,Net-(J3-Pin_4)*%
X226010000Y-62815000D03*
%TO.P,U3,37,..._D23*%
%TO.N,Net-(J3-Pin_5)*%
X223470000Y-62815000D03*
%TO.P,U3,38,GND*%
%TO.N,GND*%
X256490000Y-62815000D03*
%TD*%
D20*
%TO.P,U1,1,QB*%
%TO.N,Net-(U1-QB)*%
X173975000Y-98620000D03*
D21*
%TO.P,U1,2,QC*%
%TO.N,Net-(U1-QC)*%
X171435000Y-98620000D03*
%TO.P,U1,3,QD*%
%TO.N,Net-(U1-QD)*%
X168895000Y-98620000D03*
%TO.P,U1,4,QE*%
%TO.N,Net-(U1-QE)*%
X166355000Y-98620000D03*
%TO.P,U1,5,QF*%
%TO.N,Net-(U1-QF)*%
X163815000Y-98620000D03*
%TO.P,U1,6,QG*%
%TO.N,Net-(U1-QG)*%
X161275000Y-98620000D03*
%TO.P,U1,7,QH*%
%TO.N,unconnected-(U1-QH-Pad7)*%
X158735000Y-98620000D03*
%TO.P,U1,8,GND*%
%TO.N,GND*%
X156195000Y-98620000D03*
%TO.P,U1,9,QH'*%
%TO.N,Net-(U1-QH')*%
X156195000Y-91000000D03*
%TO.P,U1,10,~{SRCLR}*%
%TO.N,/RST*%
X158735000Y-91000000D03*
%TO.P,U1,11,SRCLK*%
%TO.N,/DATA_CLK*%
X161275000Y-91000000D03*
%TO.P,U1,12,RCLK*%
%TO.N,/LATCH_CLK*%
X163815000Y-91000000D03*
%TO.P,U1,13,~{OE}*%
%TO.N,/OE*%
X166355000Y-91000000D03*
%TO.P,U1,14,SER*%
%TO.N,/DATA*%
X168895000Y-91000000D03*
%TO.P,U1,15,QA*%
%TO.N,unconnected-(U1-QA-Pad15)*%
X171435000Y-91000000D03*
%TO.P,U1,16,VCC*%
%TO.N,+3.3V*%
X173975000Y-91000000D03*
%TD*%
D16*
%TO.P,R11,1*%
%TO.N,Net-(U2-QC)*%
X237500000Y-105500000D03*
D17*
%TO.P,R11,2*%
%TO.N,Net-(D11-A)*%
X245120000Y-105500000D03*
%TD*%
D16*
%TO.P,R15,1*%
%TO.N,/LATCH_CLK*%
X222620000Y-29500000D03*
D17*
%TO.P,R15,2*%
%TO.N,GND*%
X215000000Y-29500000D03*
%TD*%
D16*
%TO.P,R10,1*%
%TO.N,Net-(U2-QD)*%
X222250000Y-105410000D03*
D17*
%TO.P,R10,2*%
%TO.N,Net-(D10-A)*%
X229870000Y-105410000D03*
%TD*%
D19*
%TO.P,J4,7,Pin_7*%
%TO.N,GND*%
X237840000Y-97000000D03*
%TO.P,J4,6,Pin_6*%
%TO.N,/RST*%
X240380000Y-97000000D03*
%TO.P,J4,5,Pin_5*%
%TO.N,/DATA_CLK*%
X242920000Y-97000000D03*
%TO.P,J4,4,Pin_4*%
%TO.N,/LATCH_CLK*%
X245460000Y-97000000D03*
%TO.P,J4,3,Pin_3*%
%TO.N,/OE*%
X248000000Y-97000000D03*
%TO.P,J4,2,Pin_2*%
%TO.N,/DATA*%
X250540000Y-97000000D03*
D18*
%TO.P,J4,1,Pin_1*%
%TO.N,+5V*%
X253080000Y-97000000D03*
%TD*%
D16*
%TO.P,R1,1*%
%TO.N,Net-(U1-QB)*%
X101000000Y-105410000D03*
D17*
%TO.P,R1,2*%
%TO.N,Net-(D1-A)*%
X101000000Y-97790000D03*
%TD*%
D18*
%TO.P,J1,1,Pin_1*%
%TO.N,Net-(J1-Pin_1)*%
X221060000Y-32500000D03*
D19*
%TO.P,J1,2,Pin_2*%
%TO.N,Net-(J1-Pin_2)*%
X223600000Y-32500000D03*
%TO.P,J1,3,Pin_3*%
%TO.N,Net-(J1-Pin_3)*%
X226140000Y-32500000D03*
%TO.P,J1,4,Pin_4*%
%TO.N,Net-(J1-Pin_4)*%
X228680000Y-32500000D03*
%TO.P,J1,5,Pin_5*%
%TO.N,Net-(J1-Pin_5)*%
X231220000Y-32500000D03*
%TO.P,J1,6,Pin_6*%
%TO.N,Net-(J1-Pin_6)*%
X233760000Y-32500000D03*
%TO.P,J1,7,Pin_7*%
%TO.N,Net-(J1-Pin_7)*%
X236300000Y-32500000D03*
%TO.P,J1,8,Pin_8*%
%TO.N,Net-(J1-Pin_8)*%
X238840000Y-32500000D03*
%TO.P,J1,9,Pin_9*%
%TO.N,Net-(J1-Pin_9)*%
X241380000Y-32500000D03*
%TO.P,J1,10,Pin_10*%
%TO.N,Net-(J1-Pin_10)*%
X243920000Y-32500000D03*
%TO.P,J1,11,Pin_11*%
%TO.N,Net-(J1-Pin_11)*%
X246460000Y-32500000D03*
%TO.P,J1,12,Pin_12*%
%TO.N,Net-(J1-Pin_12)*%
X249000000Y-32500000D03*
%TO.P,J1,13,Pin_13*%
%TO.N,Net-(J1-Pin_13)*%
X251540000Y-32500000D03*
%TD*%
D16*
%TO.P,R5,1*%
%TO.N,Net-(U1-QF)*%
X151500000Y-97790000D03*
D17*
%TO.P,R5,2*%
%TO.N,Net-(D5-A)*%
X151500000Y-105410000D03*
%TD*%
D18*
%TO.P,J6,1,Pin_1*%
%TO.N,+5V*%
X253040000Y-68500000D03*
D19*
%TO.P,J6,2,Pin_2*%
%TO.N,/DATA*%
X250500000Y-68500000D03*
%TO.P,J6,3,Pin_3*%
%TO.N,/OE*%
X247960000Y-68500000D03*
%TO.P,J6,4,Pin_4*%
%TO.N,/LATCH_CLK*%
X245420000Y-68500000D03*
%TO.P,J6,5,Pin_5*%
%TO.N,/DATA_CLK*%
X242880000Y-68500000D03*
%TO.P,J6,6,Pin_6*%
%TO.N,/RST*%
X240340000Y-68500000D03*
%TO.P,J6,7,Pin_7*%
%TO.N,GND*%
X237800000Y-68500000D03*
%TD*%
D16*
%TO.P,R12,1*%
%TO.N,Net-(U2-QB)*%
X257500000Y-98500000D03*
D17*
%TO.P,R12,2*%
%TO.N,Net-(D12-A)*%
X257500000Y-106120000D03*
%TD*%
D25*
%TO.N,GND*%
X246380000Y-50000000D03*
D26*
X225500000Y-98290000D03*
X257000000Y-94750000D03*
D27*
%TO.N,/LATCH_CLK*%
X188500000Y-93120000D03*
%TO.N,/RST*%
X189500000Y-91000000D03*
%TO.N,/DATA_CLK*%
X189000000Y-92000000D03*
%TD*%
D28*
%TO.N,Net-(D1-A)*%
X101000000Y-97790000D02*
X96550000Y-102240000D01*
X96550000Y-102240000D02*
X96520000Y-102240000D01*
%TO.N,Net-(D5-A)*%
X157480000Y-102240000D02*
X154670000Y-102240000D01*
X154670000Y-102240000D02*
X151500000Y-105410000D01*
%TO.N,Net-(D7-A)*%
X192405000Y-97790000D02*
X187960000Y-102235000D01*
%TO.N,Net-(D8-A)*%
X198115000Y-102240000D02*
X194945000Y-105410000D01*
X203200000Y-102240000D02*
X198115000Y-102240000D01*
%TO.N,Net-(D9-A)*%
X218440000Y-102235000D02*
X216535000Y-102235000D01*
X216535000Y-102235000D02*
X214630000Y-104140000D01*
%TO.N,Net-(D10-A)*%
X229870000Y-105410000D02*
X233045000Y-102235000D01*
X233045000Y-102235000D02*
X233680000Y-102235000D01*
%TO.N,Net-(D11-A)*%
X248920000Y-102240000D02*
X248380000Y-102240000D01*
X248380000Y-102240000D02*
X245120000Y-105500000D01*
%TO.N,/LATCH_CLK*%
X188500000Y-93120000D02*
X165935000Y-93120000D01*
X209195000Y-93020000D02*
X217900584Y-93020000D01*
X165935000Y-93120000D02*
X163815000Y-91000000D01*
X241420000Y-93000000D02*
X245420000Y-97000000D01*
X222620000Y-29500000D02*
X221630051Y-29500000D01*
X219500000Y-41065000D02*
X241250000Y-62815000D01*
X221630051Y-29500000D02*
X219500000Y-31630051D01*
X206995000Y-90820000D02*
X209195000Y-93020000D01*
X217900584Y-93020000D02*
X217920584Y-93000000D01*
X219500000Y-31630051D02*
X219500000Y-41065000D01*
X217920584Y-93000000D02*
X241420000Y-93000000D01*
X245460000Y-96960000D02*
X245420000Y-97000000D01*
%TO.N,/OE*%
X218354899Y-92000000D02*
X235550000Y-92000000D01*
X243410000Y-92450000D02*
X247960000Y-97000000D01*
X247960000Y-97000000D02*
X248000000Y-96960000D01*
X168155000Y-89200000D02*
X166355000Y-91000000D01*
X236000000Y-92450000D02*
X243410000Y-92450000D01*
X211335000Y-92620000D02*
X217734899Y-92620000D01*
X207915000Y-89200000D02*
X168155000Y-89200000D01*
X209535000Y-90820000D02*
X207915000Y-89200000D01*
X217734899Y-92620000D02*
X218354899Y-92000000D01*
X209535000Y-90820000D02*
X211335000Y-92620000D01*
X235550000Y-92000000D02*
X236000000Y-92450000D01*
%TO.N,/DATA*%
X242728000Y-63635895D02*
X243592105Y-64500000D01*
X158279365Y-89500000D02*
X164270635Y-89500000D01*
X237033704Y-98850000D02*
X235123704Y-96940000D01*
X167395000Y-92500000D02*
X168895000Y-91000000D01*
X237033704Y-98850000D02*
X249215686Y-98850000D01*
X243592105Y-64500000D02*
X252265000Y-64500000D01*
X199954899Y-100240000D02*
X195980786Y-100240000D01*
X165000000Y-91619314D02*
X165880686Y-92500000D01*
X242728000Y-57228000D02*
X242728000Y-63635895D01*
X165000000Y-90229365D02*
X165000000Y-91619314D01*
X234910000Y-30910000D02*
X234910000Y-49410000D01*
X193405000Y-97664214D02*
X193405000Y-97375786D01*
X200775000Y-99419899D02*
X199954899Y-100240000D01*
X195980786Y-100240000D02*
X193405000Y-97664214D01*
X234910000Y-49410000D02*
X242728000Y-57228000D01*
X193405000Y-97375786D02*
X190929214Y-94900000D01*
X252265000Y-64500000D02*
X253950000Y-62815000D01*
X190929214Y-94900000D02*
X160679365Y-94900000D01*
X249215686Y-98850000D02*
X250540000Y-97525686D01*
X201459365Y-96940000D02*
X200775000Y-97624365D01*
X200775000Y-97624365D02*
X200775000Y-99419899D01*
X160679365Y-94900000D02*
X157635000Y-91855635D01*
X157635000Y-90144365D02*
X158279365Y-89500000D01*
X157635000Y-91855635D02*
X157635000Y-90144365D01*
X165880686Y-92500000D02*
X167395000Y-92500000D01*
X250540000Y-97525686D02*
X250540000Y-97000000D01*
X233000000Y-29000000D02*
X234910000Y-30910000D01*
X164270635Y-89500000D02*
X165000000Y-90229365D01*
X235123704Y-96940000D02*
X201459365Y-96940000D01*
%TO.N,/RST*%
X222500000Y-24500000D02*
X218700000Y-28300000D01*
X190500000Y-93534215D02*
X189534215Y-94500000D01*
X162235000Y-94500000D02*
X158735000Y-91000000D01*
X218700000Y-47700001D02*
X232371999Y-61372000D01*
X238340000Y-95000000D02*
X240340000Y-97000000D01*
X190500000Y-92000000D02*
X190500000Y-93534215D01*
X201915000Y-90820000D02*
X206095000Y-95000000D01*
X234752023Y-61372000D02*
X236170000Y-62789977D01*
X206095000Y-95000000D02*
X238340000Y-95000000D01*
X232371999Y-61372000D02*
X234752023Y-61372000D01*
X189534215Y-94500000D02*
X162235000Y-94500000D01*
X218700000Y-28300000D02*
X218700000Y-47700001D01*
X189500000Y-91000000D02*
X190500000Y-92000000D01*
X240380000Y-96960000D02*
X240340000Y-97000000D01*
%TO.N,/DATA_CLK*%
X190100000Y-93368529D02*
X189748529Y-93720000D01*
X219100000Y-31400000D02*
X219100000Y-43205000D01*
X219100000Y-43205000D02*
X238710000Y-62815000D01*
X207635000Y-94000000D02*
X239880000Y-94000000D01*
X189748529Y-93720000D02*
X163995000Y-93720000D01*
X190100000Y-93100000D02*
X190100000Y-93368529D01*
X222000000Y-28500000D02*
X219100000Y-31400000D01*
X223500000Y-28500000D02*
X222000000Y-28500000D01*
X204455000Y-90820000D02*
X207635000Y-94000000D01*
X242920000Y-96960000D02*
X242880000Y-97000000D01*
X163995000Y-93720000D02*
X161275000Y-91000000D01*
X239880000Y-94000000D02*
X242880000Y-97000000D01*
X189000000Y-92000000D02*
X190100000Y-93100000D01*
X225500000Y-26500000D02*
X223500000Y-28500000D01*
%TO.N,/DATA_OUT*%
X237199390Y-98450000D02*
X249050000Y-98450000D01*
X249150000Y-98350000D02*
X249150000Y-92310000D01*
X249150000Y-92310000D02*
X250460000Y-91000000D01*
X199375000Y-90820000D02*
X204555000Y-96000000D01*
X249050000Y-98450000D02*
X249150000Y-98350000D01*
X234749390Y-96000000D02*
X237199390Y-98450000D01*
X204555000Y-96000000D02*
X234749390Y-96000000D01*
%TO.N,Net-(U1-QB)*%
X101000000Y-102500000D02*
X101000000Y-105410000D01*
X173975000Y-98620000D02*
X170975000Y-95620000D01*
X107880000Y-95620000D02*
X101000000Y-102500000D01*
X170975000Y-95620000D02*
X107880000Y-95620000D01*
%TO.N,Net-(U1-QC)*%
X115715051Y-96020000D02*
X107315000Y-104420051D01*
X168835000Y-96020000D02*
X115715051Y-96020000D01*
X171435000Y-98620000D02*
X168835000Y-96020000D01*
X107315000Y-104420051D02*
X107315000Y-105410000D01*
%TO.N,Net-(U1-QD)*%
X166695000Y-96420000D02*
X131122943Y-96420000D01*
X168895000Y-98620000D02*
X166695000Y-96420000D01*
X131122943Y-96420000D02*
X122555000Y-104987943D01*
X122555000Y-104987943D02*
X122555000Y-105410000D01*
%TO.N,Net-(U1-QE)*%
X141742943Y-101040000D02*
X141391471Y-101391471D01*
X141782942Y-101000000D02*
X141391471Y-101391471D01*
X163975000Y-101000000D02*
X141782942Y-101000000D01*
X141391471Y-101391471D02*
X137795000Y-104987943D01*
X166355000Y-98620000D02*
X163975000Y-101000000D01*
X137795000Y-104987943D02*
X137795000Y-105410000D01*
%TO.N,Net-(U1-QF)*%
X152470000Y-96820000D02*
X151500000Y-97790000D01*
X162015000Y-96820000D02*
X152470000Y-96820000D01*
X163815000Y-98620000D02*
X162015000Y-96820000D01*
%TO.N,Net-(U2-QG)*%
X195975000Y-101840000D02*
X201055000Y-101840000D01*
X201055000Y-101840000D02*
X204455000Y-98440000D01*
X192405000Y-105410000D02*
X195975000Y-101840000D01*
%TO.N,Net-(U2-QE)*%
X209535000Y-101615000D02*
X209535000Y-98440000D01*
X207010000Y-104140000D02*
X209535000Y-101615000D01*
%TO.N,Net-(U2-QD)*%
X222250000Y-104347943D02*
X218232057Y-100330000D01*
X213965000Y-100330000D02*
X212075000Y-98440000D01*
X222250000Y-105410000D02*
X222250000Y-104347943D01*
X218232057Y-100330000D02*
X213965000Y-100330000D01*
%TO.N,Net-(J2-Pin_1)*%
X250613000Y-61072000D02*
X260072000Y-61072000D01*
X260072000Y-61072000D02*
X260500000Y-61500000D01*
X260500000Y-61500000D02*
X260500000Y-67500000D01*
X248870000Y-62815000D02*
X250613000Y-61072000D01*
X260500000Y-67500000D02*
X259500000Y-68500000D01*
%TO.N,Net-(J2-Pin_3)*%
X246333000Y-60272000D02*
X261272000Y-60272000D01*
X264580000Y-63580000D02*
X264580000Y-68500000D01*
X243790000Y-62815000D02*
X246333000Y-60272000D01*
X261272000Y-60272000D02*
X264580000Y-63580000D01*
%TO.N,Net-(J2-Pin_2)*%
X248473000Y-60672000D02*
X260672000Y-60672000D01*
X246330000Y-62815000D02*
X248473000Y-60672000D01*
X260672000Y-60672000D02*
X262040000Y-62040000D01*
X262040000Y-62040000D02*
X262040000Y-68500000D01*
D29*
%TO.N,+3.3V(ESP)*%
X223320024Y-65750000D02*
X256639976Y-65750000D01*
X256639976Y-65750000D02*
X259030000Y-63359976D01*
X217450000Y-27500000D02*
X217450000Y-59879976D01*
X216950000Y-27000000D02*
X217450000Y-27500000D01*
X217450000Y-59879976D02*
X223320024Y-65750000D01*
X214880000Y-24500000D02*
X215869949Y-24500000D01*
X214880000Y-27000000D02*
X216950000Y-27000000D01*
X217450000Y-26080051D02*
X217450000Y-27500000D01*
X215869949Y-24500000D02*
X217450000Y-26080051D01*
X259030000Y-63359976D02*
X259030000Y-62815000D01*
%TD*%
%TA.AperFunction,Conductor*%
%TO.N,GND*%
G36*
X157697306Y-89020185D02*
G01*
X157743061Y-89072989D01*
X157753005Y-89142147D01*
X157723980Y-89205703D01*
X157717948Y-89212181D01*
X157269838Y-89660291D01*
X157208515Y-89693776D01*
X157138823Y-89688792D01*
X157094476Y-89660291D01*
X157042213Y-89608028D01*
X156876613Y-89487715D01*
X156876612Y-89487714D01*
X156876610Y-89487713D01*
X156819653Y-89458691D01*
X156694223Y-89394781D01*
X156499534Y-89331522D01*
X156324995Y-89303878D01*
X156297352Y-89299500D01*
X156092648Y-89299500D01*
X156068329Y-89303351D01*
X155890465Y-89331522D01*
X155695776Y-89394781D01*
X155513386Y-89487715D01*
X155347786Y-89608028D01*
X155203028Y-89752786D01*
X155082715Y-89918386D01*
X154989781Y-90100776D01*
X154926522Y-90295465D01*
X154894500Y-90497648D01*
X154894500Y-91502351D01*
X154926522Y-91704534D01*
X154989781Y-91899223D01*
X155051066Y-92019500D01*
X155081414Y-92079061D01*
X155082715Y-92081613D01*
X155203028Y-92247213D01*
X155347786Y-92391971D01*
X155496224Y-92499815D01*
X155513390Y-92512287D01*
X155629607Y-92571503D01*
X155695776Y-92605218D01*
X155695778Y-92605218D01*
X155695781Y-92605220D01*
X155800137Y-92639127D01*
X155890465Y-92668477D01*
X155932224Y-92675091D01*
X156092648Y-92700500D01*
X156092649Y-92700500D01*
X156297351Y-92700500D01*
X156297352Y-92700500D01*
X156499534Y-92668477D01*
X156694219Y-92605220D01*
X156876610Y-92512287D01*
X156977710Y-92438834D01*
X157042213Y-92391971D01*
X157042215Y-92391968D01*
X157042219Y-92391966D01*
X157094476Y-92339709D01*
X157155799Y-92306224D01*
X157225491Y-92311208D01*
X157253477Y-92329194D01*
X157254454Y-92327730D01*
X157254457Y-92327732D01*
X157266266Y-92337413D01*
X157269838Y-92339709D01*
X157273349Y-92343220D01*
X157273355Y-92343225D01*
X159737949Y-94807819D01*
X159771434Y-94869142D01*
X159766450Y-94938834D01*
X159724578Y-94994767D01*
X159659114Y-95019184D01*
X159650268Y-95019500D01*
X107959057Y-95019500D01*
X107800942Y-95019500D01*
X107648215Y-95060423D01*
X107622759Y-95075120D01*
X107615937Y-95079059D01*
X107615936Y-95079058D01*
X107511287Y-95139477D01*
X107511282Y-95139481D01*
X100519481Y-102131282D01*
X100519480Y-102131284D01*
X100474775Y-102208716D01*
X100440423Y-102268215D01*
X100399499Y-102420943D01*
X100399499Y-102420945D01*
X100399499Y-102589046D01*
X100399500Y-102589059D01*
X100399500Y-104300754D01*
X100379815Y-104367793D01*
X100340778Y-104406181D01*
X100273436Y-104447877D01*
X100109020Y-104597761D01*
X99974943Y-104775308D01*
X99974938Y-104775316D01*
X99875775Y-104974461D01*
X99875769Y-104974476D01*
X99814885Y-105188462D01*
X99814884Y-105188464D01*
X99794357Y-105409999D01*
X99794357Y-105410000D01*
X99814884Y-105631535D01*
X99814885Y-105631537D01*
X99875769Y-105845523D01*
X99875775Y-105845538D01*
X99974938Y-106044683D01*
X99974943Y-106044691D01*
X100109020Y-106222238D01*
X100273437Y-106372123D01*
X100273439Y-106372125D01*
X100462595Y-106489245D01*
X100462596Y-106489245D01*
X100462599Y-106489247D01*
X100670060Y-106569618D01*
X100888757Y-106610500D01*
X100888759Y-106610500D01*
X101111241Y-106610500D01*
X101111243Y-106610500D01*
X101329940Y-106569618D01*
X101537401Y-106489247D01*
X101726562Y-106372124D01*
X101890981Y-106222236D01*
X102025058Y-106044689D01*
X102124229Y-105845528D01*
X102185115Y-105631536D01*
X102205643Y-105410000D01*
X102185115Y-105188464D01*
X102124229Y-104974472D01*
X102111393Y-104948694D01*
X102025061Y-104775316D01*
X102025056Y-104775308D01*
X101890979Y-104597761D01*
X101738048Y-104458347D01*
X101726562Y-104447876D01*
X101659221Y-104406180D01*
X101612587Y-104354153D01*
X101600500Y-104300754D01*
X101600500Y-102800096D01*
X101620185Y-102733057D01*
X101636814Y-102712420D01*
X106046616Y-98302617D01*
X106107937Y-98269134D01*
X106177629Y-98274118D01*
X106233562Y-98315990D01*
X106245295Y-98335028D01*
X106289938Y-98424683D01*
X106289943Y-98424691D01*
X106424020Y-98602238D01*
X106588437Y-98752123D01*
X106588439Y-98752125D01*
X106777595Y-98869245D01*
X106777596Y-98869245D01*
X106777599Y-98869247D01*
X106985060Y-98949618D01*
X107203757Y-98990500D01*
X107203759Y-98990500D01*
X107426241Y-98990500D01*
X107426243Y-98990500D01*
X107644940Y-98949618D01*
X107852401Y-98869247D01*
X108041562Y-98752124D01*
X108205981Y-98602236D01*
X108340058Y-98424689D01*
X108439229Y-98225528D01*
X108500115Y-98011536D01*
X108520643Y-97790000D01*
X108512620Y-97703422D01*
X108500115Y-97568464D01*
X108500114Y-97568462D01*
X108499780Y-97567289D01*
X108439229Y-97354472D01*
X108418338Y-97312517D01*
X108340061Y-97155316D01*
X108340056Y-97155308D01*
X108205979Y-96977761D01*
X108041562Y-96827876D01*
X108041560Y-96827874D01*
X107853384Y-96711361D01*
X107806748Y-96659333D01*
X107795644Y-96590352D01*
X107823597Y-96526317D01*
X107830955Y-96518279D01*
X108092418Y-96256816D01*
X108153739Y-96223334D01*
X108180097Y-96220500D01*
X114365954Y-96220500D01*
X114432993Y-96240185D01*
X114478748Y-96292989D01*
X114488692Y-96362147D01*
X114459667Y-96425703D01*
X114453635Y-96432180D01*
X110691518Y-100194297D01*
X106946286Y-103939529D01*
X106834481Y-104051333D01*
X106834479Y-104051335D01*
X106821229Y-104074286D01*
X106797055Y-104116158D01*
X106783434Y-104139750D01*
X106755423Y-104188265D01*
X106750351Y-104207194D01*
X106717955Y-104328092D01*
X106681592Y-104387751D01*
X106663460Y-104401424D01*
X106588436Y-104447877D01*
X106424020Y-104597761D01*
X106289943Y-104775308D01*
X106289938Y-104775316D01*
X106190775Y-104974461D01*
X106190769Y-104974476D01*
X106129885Y-105188462D01*
X106129884Y-105188464D01*
X106109357Y-105409999D01*
X106109357Y-105410000D01*
X106129884Y-105631535D01*
X106129885Y-105631537D01*
X106190769Y-105845523D01*
X106190775Y-105845538D01*
X106289938Y-106044683D01*
X106289943Y-106044691D01*
X106424020Y-106222238D01*
X106588437Y-106372123D01*
X106588439Y-106372125D01*
X106777595Y-106489245D01*
X106777596Y-106489245D01*
X106777599Y-106489247D01*
X106985060Y-106569618D01*
X107203757Y-106610500D01*
X107203759Y-106610500D01*
X107426241Y-106610500D01*
X107426243Y-106610500D01*
X107644940Y-106569618D01*
X107852401Y-106489247D01*
X108041562Y-106372124D01*
X108205981Y-106222236D01*
X108340058Y-106044689D01*
X108439229Y-105845528D01*
X108500115Y-105631536D01*
X108520643Y-105410000D01*
X108500115Y-105188464D01*
X108439229Y-104974472D01*
X108426393Y-104948694D01*
X108340061Y-104775316D01*
X108340056Y-104775308D01*
X108244387Y-104648622D01*
X108205981Y-104597764D01*
X108187149Y-104580596D01*
X108150868Y-104520885D01*
X108152628Y-104451038D01*
X108183004Y-104401280D01*
X110167848Y-102416436D01*
X110229169Y-102382953D01*
X110298861Y-102387937D01*
X110354794Y-102429809D01*
X110375733Y-102473678D01*
X110430843Y-102691301D01*
X110524075Y-102903848D01*
X110651018Y-103098150D01*
X110746167Y-103201510D01*
X110777089Y-103264164D01*
X110769228Y-103333590D01*
X110725081Y-103387746D01*
X110698271Y-103401674D01*
X110617911Y-103431646D01*
X110617906Y-103431649D01*
X110502812Y-103517809D01*
X110502809Y-103517812D01*
X110416649Y-103632906D01*
X110416645Y-103632913D01*
X110366403Y-103767620D01*
X110366401Y-103767627D01*
X110360000Y-103827155D01*
X110360000Y-104525000D01*
X111384722Y-104525000D01*
X111340667Y-104601306D01*
X111310000Y-104715756D01*
X111310000Y-104834244D01*
X111340667Y-104948694D01*
X111384722Y-105025000D01*
X110360000Y-105025000D01*
X110360000Y-105722844D01*
X110366401Y-105782372D01*
X110366403Y-105782379D01*
X110416645Y-105917086D01*
X110416649Y-105917093D01*
X110502809Y-106032187D01*
X110502812Y-106032190D01*
X110617906Y-106118350D01*
X110617913Y-106118354D01*
X110752620Y-106168596D01*
X110752627Y-106168598D01*
X110812155Y-106174999D01*
X110812172Y-106175000D01*
X111510000Y-106175000D01*
X111510000Y-105150277D01*
X111586306Y-105194333D01*
X111700756Y-105225000D01*
X111819244Y-105225000D01*
X111933694Y-105194333D01*
X112010000Y-105150277D01*
X112010000Y-106175000D01*
X112707828Y-106175000D01*
X112707844Y-106174999D01*
X112767372Y-106168598D01*
X112767379Y-106168596D01*
X112902086Y-106118354D01*
X112902093Y-106118350D01*
X113017187Y-106032190D01*
X113017190Y-106032187D01*
X113103350Y-105917093D01*
X113103354Y-105917086D01*
X113153596Y-105782379D01*
X113153598Y-105782372D01*
X113159999Y-105722844D01*
X113160000Y-105722827D01*
X113160000Y-105025000D01*
X112135278Y-105025000D01*
X112179333Y-104948694D01*
X112210000Y-104834244D01*
X112210000Y-104715756D01*
X112179333Y-104601306D01*
X112135278Y-104525000D01*
X113160000Y-104525000D01*
X113160000Y-103827172D01*
X113159999Y-103827155D01*
X113153598Y-103767627D01*
X113153596Y-103767620D01*
X113103354Y-103632913D01*
X113103350Y-103632906D01*
X113017190Y-103517812D01*
X113017187Y-103517809D01*
X112902093Y-103431649D01*
X112902086Y-103431645D01*
X112821729Y-103401674D01*
X112765795Y-103359803D01*
X112741378Y-103294338D01*
X112756230Y-103226065D01*
X112773826Y-103201516D01*
X112868979Y-103098153D01*
X112995924Y-102903849D01*
X113089157Y-102691300D01*
X113146134Y-102466305D01*
X113146641Y-102460185D01*
X113165300Y-102235006D01*
X113165300Y-102234993D01*
X113146135Y-102003702D01*
X113146133Y-102003691D01*
X113089157Y-101778699D01*
X112995924Y-101566151D01*
X112868983Y-101371852D01*
X112868980Y-101371849D01*
X112868979Y-101371847D01*
X112711784Y-101201087D01*
X112711779Y-101201083D01*
X112711777Y-101201081D01*
X112528634Y-101058535D01*
X112528628Y-101058531D01*
X112324504Y-100948064D01*
X112324495Y-100948061D01*
X112104985Y-100872702D01*
X112005452Y-100856093D01*
X111942568Y-100825642D01*
X111906128Y-100766027D01*
X111907704Y-100696175D01*
X111938180Y-100646105D01*
X115927467Y-96656819D01*
X115988790Y-96623334D01*
X116015148Y-96620500D01*
X121735838Y-96620500D01*
X121802877Y-96640185D01*
X121848632Y-96692989D01*
X121858576Y-96762147D01*
X121829551Y-96825703D01*
X121819376Y-96836137D01*
X121664020Y-96977761D01*
X121529943Y-97155308D01*
X121529938Y-97155316D01*
X121430775Y-97354461D01*
X121430769Y-97354476D01*
X121369885Y-97568462D01*
X121369884Y-97568464D01*
X121349357Y-97789999D01*
X121349357Y-97790000D01*
X121369884Y-98011535D01*
X121369885Y-98011537D01*
X121430769Y-98225523D01*
X121430775Y-98225538D01*
X121529938Y-98424683D01*
X121529943Y-98424691D01*
X121664020Y-98602238D01*
X121828437Y-98752123D01*
X121828439Y-98752125D01*
X122017595Y-98869245D01*
X122017596Y-98869245D01*
X122017599Y-98869247D01*
X122225060Y-98949618D01*
X122443757Y-98990500D01*
X122443759Y-98990500D01*
X122666241Y-98990500D01*
X122666243Y-98990500D01*
X122884940Y-98949618D01*
X123092401Y-98869247D01*
X123281562Y-98752124D01*
X123445981Y-98602236D01*
X123580058Y-98424689D01*
X123679229Y-98225528D01*
X123740115Y-98011536D01*
X123760643Y-97790000D01*
X123752620Y-97703422D01*
X123740115Y-97568464D01*
X123740114Y-97568462D01*
X123739780Y-97567289D01*
X123679229Y-97354472D01*
X123658338Y-97312517D01*
X123580061Y-97155316D01*
X123580056Y-97155308D01*
X123445979Y-96977761D01*
X123290624Y-96836137D01*
X123254342Y-96776426D01*
X123256103Y-96706578D01*
X123295346Y-96648771D01*
X123359613Y-96621356D01*
X123374162Y-96620500D01*
X129773846Y-96620500D01*
X129840885Y-96640185D01*
X129886640Y-96692989D01*
X129896584Y-96762147D01*
X129867559Y-96825703D01*
X129861527Y-96832181D01*
X122519998Y-104173709D01*
X122458675Y-104207194D01*
X122443777Y-104209497D01*
X122443773Y-104209497D01*
X122443757Y-104209500D01*
X122225060Y-104250382D01*
X122177296Y-104268886D01*
X122017601Y-104330752D01*
X122017595Y-104330754D01*
X121828439Y-104447874D01*
X121828437Y-104447876D01*
X121664020Y-104597761D01*
X121529943Y-104775308D01*
X121529938Y-104775316D01*
X121430775Y-104974461D01*
X121430769Y-104974476D01*
X121369885Y-105188462D01*
X121369884Y-105188464D01*
X121349357Y-105409999D01*
X121349357Y-105410000D01*
X121369884Y-105631535D01*
X121369885Y-105631537D01*
X121430769Y-105845523D01*
X121430775Y-105845538D01*
X121529938Y-106044683D01*
X121529943Y-106044691D01*
X121664020Y-106222238D01*
X121828437Y-106372123D01*
X121828439Y-106372125D01*
X122017595Y-106489245D01*
X122017596Y-106489245D01*
X122017599Y-106489247D01*
X122225060Y-106569618D01*
X122443757Y-106610500D01*
X122443759Y-106610500D01*
X122666241Y-106610500D01*
X122666243Y-106610500D01*
X122884940Y-106569618D01*
X123092401Y-106489247D01*
X123281562Y-106372124D01*
X123445981Y-106222236D01*
X123580058Y-106044689D01*
X123679229Y-105845528D01*
X123740115Y-105631536D01*
X123760643Y-105410000D01*
X123740115Y-105188464D01*
X123679229Y-104974472D01*
X123632060Y-104879746D01*
X123619799Y-104810964D01*
X123646672Y-104746469D01*
X123655370Y-104736806D01*
X125550144Y-102842032D01*
X125611465Y-102808549D01*
X125681157Y-102813533D01*
X125737090Y-102855405D01*
X125751378Y-102879903D01*
X125764074Y-102908847D01*
X125891018Y-103103150D01*
X125986167Y-103206510D01*
X126017089Y-103269164D01*
X126009228Y-103338590D01*
X125965081Y-103392746D01*
X125938271Y-103406674D01*
X125857911Y-103436646D01*
X125857906Y-103436649D01*
X125742812Y-103522809D01*
X125742809Y-103522812D01*
X125656649Y-103637906D01*
X125656645Y-103637913D01*
X125606403Y-103772620D01*
X125606401Y-103772627D01*
X125600000Y-103832155D01*
X125600000Y-104530000D01*
X126624722Y-104530000D01*
X126580667Y-104606306D01*
X126550000Y-104720756D01*
X126550000Y-104839244D01*
X126580667Y-104953694D01*
X126624722Y-105030000D01*
X125600000Y-105030000D01*
X125600000Y-105727844D01*
X125606401Y-105787372D01*
X125606403Y-105787379D01*
X125656645Y-105922086D01*
X125656649Y-105922093D01*
X125742809Y-106037187D01*
X125742812Y-106037190D01*
X125857906Y-106123350D01*
X125857913Y-106123354D01*
X125992620Y-106173596D01*
X125992627Y-106173598D01*
X126052155Y-106179999D01*
X126052172Y-106180000D01*
X126750000Y-106180000D01*
X126750000Y-105155277D01*
X126826306Y-105199333D01*
X126940756Y-105230000D01*
X127059244Y-105230000D01*
X127173694Y-105199333D01*
X127250000Y-105155277D01*
X127250000Y-106180000D01*
X127947828Y-106180000D01*
X127947844Y-106179999D01*
X128007372Y-106173598D01*
X128007379Y-106173596D01*
X128142086Y-106123354D01*
X128142093Y-106123350D01*
X128257187Y-106037190D01*
X128257190Y-106037187D01*
X128343350Y-105922093D01*
X128343354Y-105922086D01*
X128393596Y-105787379D01*
X128393598Y-105787372D01*
X128399999Y-105727844D01*
X128400000Y-105727827D01*
X128400000Y-105030000D01*
X127375278Y-105030000D01*
X127419333Y-104953694D01*
X127450000Y-104839244D01*
X127450000Y-104720756D01*
X127419333Y-104606306D01*
X127375278Y-104530000D01*
X128400000Y-104530000D01*
X128400000Y-103832172D01*
X128399999Y-103832155D01*
X128393598Y-103772627D01*
X128393596Y-103772620D01*
X128343354Y-103637913D01*
X128343350Y-103637906D01*
X128257190Y-103522812D01*
X128257187Y-103522809D01*
X128142093Y-103436649D01*
X128142086Y-103436645D01*
X128061729Y-103406674D01*
X128005795Y-103364803D01*
X127981378Y-103299338D01*
X127996230Y-103231065D01*
X128013826Y-103206516D01*
X128108979Y-103103153D01*
X128235924Y-102908849D01*
X128329157Y-102696300D01*
X128386134Y-102471305D01*
X128386548Y-102466308D01*
X128405300Y-102240006D01*
X128405300Y-102239993D01*
X128386135Y-102008702D01*
X128386133Y-102008691D01*
X128329157Y-101783699D01*
X128235924Y-101571151D01*
X128108983Y-101376852D01*
X128108980Y-101376849D01*
X128108979Y-101376847D01*
X127951784Y-101206087D01*
X127951779Y-101206083D01*
X127951777Y-101206081D01*
X127768634Y-101063535D01*
X127768628Y-101063531D01*
X127629394Y-100988181D01*
X127579804Y-100938961D01*
X127564696Y-100870744D01*
X127588867Y-100805189D01*
X127600724Y-100791452D01*
X131335359Y-97056819D01*
X131396682Y-97023334D01*
X131423040Y-97020500D01*
X136636802Y-97020500D01*
X136703841Y-97040185D01*
X136749596Y-97092989D01*
X136759540Y-97162147D01*
X136747802Y-97199772D01*
X136670775Y-97354461D01*
X136670769Y-97354476D01*
X136609885Y-97568462D01*
X136609884Y-97568464D01*
X136589357Y-97789999D01*
X136589357Y-97790000D01*
X136609884Y-98011535D01*
X136609885Y-98011537D01*
X136670769Y-98225523D01*
X136670775Y-98225538D01*
X136769938Y-98424683D01*
X136769943Y-98424691D01*
X136904020Y-98602238D01*
X137068437Y-98752123D01*
X137068439Y-98752125D01*
X137257595Y-98869245D01*
X137257596Y-98869245D01*
X137257599Y-98869247D01*
X137465060Y-98949618D01*
X137683757Y-98990500D01*
X137683759Y-98990500D01*
X137906241Y-98990500D01*
X137906243Y-98990500D01*
X138124940Y-98949618D01*
X138332401Y-98869247D01*
X138521562Y-98752124D01*
X138685981Y-98602236D01*
X138820058Y-98424689D01*
X138919229Y-98225528D01*
X138980115Y-98011536D01*
X139000643Y-97790000D01*
X138992620Y-97703422D01*
X138980115Y-97568464D01*
X138980114Y-97568462D01*
X138979780Y-97567289D01*
X138919229Y-97354472D01*
X138898338Y-97312517D01*
X138842198Y-97199772D01*
X138829937Y-97130986D01*
X138856810Y-97066491D01*
X138914286Y-97026764D01*
X138953198Y-97020500D01*
X150341802Y-97020500D01*
X150408841Y-97040185D01*
X150454596Y-97092989D01*
X150464540Y-97162147D01*
X150452802Y-97199772D01*
X150375775Y-97354461D01*
X150375769Y-97354476D01*
X150314885Y-97568462D01*
X150314884Y-97568464D01*
X150294357Y-97789999D01*
X150294357Y-97790000D01*
X150314884Y-98011535D01*
X150314885Y-98011537D01*
X150375769Y-98225523D01*
X150375775Y-98225538D01*
X150474938Y-98424683D01*
X150474943Y-98424691D01*
X150609020Y-98602238D01*
X150773437Y-98752123D01*
X150773439Y-98752125D01*
X150962595Y-98869245D01*
X150962596Y-98869245D01*
X150962599Y-98869247D01*
X151170060Y-98949618D01*
X151388757Y-98990500D01*
X151388759Y-98990500D01*
X151611241Y-98990500D01*
X151611243Y-98990500D01*
X151829940Y-98949618D01*
X152037401Y-98869247D01*
X152226562Y-98752124D01*
X152390981Y-98602236D01*
X152525058Y-98424689D01*
X152624229Y-98225528D01*
X152685115Y-98011536D01*
X152705643Y-97790000D01*
X152685115Y-97568464D01*
X152685113Y-97568458D01*
X152684895Y-97567289D01*
X152684952Y-97566715D01*
X152684586Y-97562755D01*
X152685360Y-97562683D01*
X152691924Y-97497774D01*
X152735419Y-97443094D01*
X152801572Y-97420610D01*
X152806783Y-97420500D01*
X154940991Y-97420500D01*
X155008030Y-97440185D01*
X155053785Y-97492989D01*
X155063729Y-97562147D01*
X155051476Y-97600794D01*
X154990245Y-97720965D01*
X154927009Y-97915582D01*
X154895000Y-98117682D01*
X154895000Y-98370000D01*
X155879314Y-98370000D01*
X155874920Y-98374394D01*
X155822259Y-98465606D01*
X155795000Y-98567339D01*
X155795000Y-98672661D01*
X155822259Y-98774394D01*
X155874920Y-98865606D01*
X155879314Y-98870000D01*
X154895000Y-98870000D01*
X154895000Y-99122317D01*
X154927009Y-99324417D01*
X154990244Y-99519031D01*
X155083140Y-99701349D01*
X155203417Y-99866894D01*
X155203417Y-99866895D01*
X155348104Y-100011582D01*
X155513650Y-100131859D01*
X155578722Y-100165015D01*
X155629518Y-100212989D01*
X155646313Y-100280810D01*
X155623776Y-100346945D01*
X155569061Y-100390397D01*
X155522427Y-100399500D01*
X141869612Y-100399500D01*
X141869596Y-100399499D01*
X141862000Y-100399499D01*
X141703885Y-100399499D01*
X141627521Y-100419961D01*
X141551156Y-100440423D01*
X141551151Y-100440426D01*
X141414232Y-100519475D01*
X141414224Y-100519481D01*
X141142737Y-100790970D01*
X140910952Y-101022754D01*
X140910950Y-101022756D01*
X137759998Y-104173709D01*
X137698675Y-104207194D01*
X137683777Y-104209497D01*
X137683773Y-104209497D01*
X137683757Y-104209500D01*
X137465060Y-104250382D01*
X137417296Y-104268886D01*
X137257601Y-104330752D01*
X137257595Y-104330754D01*
X137068439Y-104447874D01*
X137068437Y-104447876D01*
X136904020Y-104597761D01*
X136769943Y-104775308D01*
X136769938Y-104775316D01*
X136670775Y-104974461D01*
X136670769Y-104974476D01*
X136609885Y-105188462D01*
X136609884Y-105188464D01*
X136589357Y-105409999D01*
X136589357Y-105410000D01*
X136609884Y-105631535D01*
X136609885Y-105631537D01*
X136670769Y-105845523D01*
X136670775Y-105845538D01*
X136769938Y-106044683D01*
X136769943Y-106044691D01*
X136904020Y-106222238D01*
X137068437Y-106372123D01*
X137068439Y-106372125D01*
X137257595Y-106489245D01*
X137257596Y-106489245D01*
X137257599Y-106489247D01*
X137465060Y-106569618D01*
X137683757Y-106610500D01*
X137683759Y-106610500D01*
X137906241Y-106610500D01*
X137906243Y-106610500D01*
X138124940Y-106569618D01*
X138332401Y-106489247D01*
X138521562Y-106372124D01*
X138685981Y-106222236D01*
X138820058Y-106044689D01*
X138919229Y-105845528D01*
X138980115Y-105631536D01*
X139000643Y-105410000D01*
X138980115Y-105188464D01*
X138919229Y-104974472D01*
X138872060Y-104879746D01*
X138859799Y-104810964D01*
X138886672Y-104746469D01*
X138895370Y-104736806D01*
X140790144Y-102842032D01*
X140851465Y-102808549D01*
X140921157Y-102813533D01*
X140977090Y-102855405D01*
X140991378Y-102879903D01*
X141004074Y-102908847D01*
X141131018Y-103103150D01*
X141226167Y-103206510D01*
X141257089Y-103269164D01*
X141249228Y-103338590D01*
X141205081Y-103392746D01*
X141178271Y-103406674D01*
X141097911Y-103436646D01*
X141097906Y-103436649D01*
X140982812Y-103522809D01*
X140982809Y-103522812D01*
X140896649Y-103637906D01*
X140896645Y-103637913D01*
X140846403Y-103772620D01*
X140846401Y-103772627D01*
X140840000Y-103832155D01*
X140840000Y-104530000D01*
X141864722Y-104530000D01*
X141820667Y-104606306D01*
X141790000Y-104720756D01*
X141790000Y-104839244D01*
X141820667Y-104953694D01*
X141864722Y-105030000D01*
X140840000Y-105030000D01*
X140840000Y-105727844D01*
X140846401Y-105787372D01*
X140846403Y-105787379D01*
X140896645Y-105922086D01*
X140896649Y-105922093D01*
X140982809Y-106037187D01*
X140982812Y-106037190D01*
X141097906Y-106123350D01*
X141097913Y-106123354D01*
X141232620Y-106173596D01*
X141232627Y-106173598D01*
X141292155Y-106179999D01*
X141292172Y-106180000D01*
X141990000Y-106180000D01*
X141990000Y-105155277D01*
X142066306Y-105199333D01*
X142180756Y-105230000D01*
X142299244Y-105230000D01*
X142413694Y-105199333D01*
X142490000Y-105155277D01*
X142490000Y-106180000D01*
X143187828Y-106180000D01*
X143187844Y-106179999D01*
X143247372Y-106173598D01*
X143247379Y-106173596D01*
X143382086Y-106123354D01*
X143382093Y-106123350D01*
X143497187Y-106037190D01*
X143497190Y-106037187D01*
X143583350Y-105922093D01*
X143583354Y-105922086D01*
X143633596Y-105787379D01*
X143633598Y-105787372D01*
X143639999Y-105727844D01*
X143640000Y-105727827D01*
X143640000Y-105030000D01*
X142615278Y-105030000D01*
X142659333Y-104953694D01*
X142690000Y-104839244D01*
X142690000Y-104720756D01*
X142659333Y-104606306D01*
X142615278Y-104530000D01*
X143640000Y-104530000D01*
X143640000Y-103832172D01*
X143639999Y-103832155D01*
X143633598Y-103772627D01*
X143633596Y-103772620D01*
X143583354Y-103637913D01*
X143583350Y-103637906D01*
X143497190Y-103522812D01*
X143497187Y-103522809D01*
X143382093Y-103436649D01*
X143382086Y-103436645D01*
X143301729Y-103406674D01*
X143245795Y-103364803D01*
X143221378Y-103299338D01*
X143236230Y-103231065D01*
X143253826Y-103206516D01*
X143348979Y-103103153D01*
X143475924Y-102908849D01*
X143569157Y-102696300D01*
X143626134Y-102471305D01*
X143626548Y-102466308D01*
X143645300Y-102240006D01*
X143645300Y-102239993D01*
X143626135Y-102008702D01*
X143626133Y-102008691D01*
X143569157Y-101783699D01*
X143565039Y-101774312D01*
X143556135Y-101705012D01*
X143586111Y-101641900D01*
X143645449Y-101605012D01*
X143678594Y-101600500D01*
X154160902Y-101600500D01*
X154227941Y-101620185D01*
X154273696Y-101672989D01*
X154283640Y-101742147D01*
X154254615Y-101805703D01*
X154248583Y-101812181D01*
X154189478Y-101871286D01*
X151859680Y-104201083D01*
X151798357Y-104234568D01*
X151749215Y-104235291D01*
X151683794Y-104223062D01*
X151611243Y-104209500D01*
X151388757Y-104209500D01*
X151170060Y-104250382D01*
X151122296Y-104268886D01*
X150962601Y-104330752D01*
X150962595Y-104330754D01*
X150773439Y-104447874D01*
X150773437Y-104447876D01*
X150609020Y-104597761D01*
X150474943Y-104775308D01*
X150474938Y-104775316D01*
X150375775Y-104974461D01*
X150375769Y-104974476D01*
X150314885Y-105188462D01*
X150314884Y-105188464D01*
X150294357Y-105409999D01*
X150294357Y-105410000D01*
X150314884Y-105631535D01*
X150314885Y-105631537D01*
X150375769Y-105845523D01*
X150375775Y-105845538D01*
X150474938Y-106044683D01*
X150474943Y-106044691D01*
X150609020Y-106222238D01*
X150773437Y-106372123D01*
X150773439Y-106372125D01*
X150962595Y-106489245D01*
X150962596Y-106489245D01*
X150962599Y-106489247D01*
X151170060Y-106569618D01*
X151388757Y-106610500D01*
X151388759Y-106610500D01*
X151611241Y-106610500D01*
X151611243Y-106610500D01*
X151829940Y-106569618D01*
X152037401Y-106489247D01*
X152226562Y-106372124D01*
X152390981Y-106222236D01*
X152525058Y-106044689D01*
X152624229Y-105845528D01*
X152685115Y-105631536D01*
X152705643Y-105410000D01*
X152685115Y-105188464D01*
X152679729Y-105169534D01*
X152680315Y-105099669D01*
X152711312Y-105047921D01*
X154882416Y-102876819D01*
X154943739Y-102843334D01*
X154970097Y-102840500D01*
X156133199Y-102840500D01*
X156200238Y-102860185D01*
X156242253Y-102905481D01*
X156244075Y-102908848D01*
X156371018Y-103103150D01*
X156466167Y-103206510D01*
X156497089Y-103269164D01*
X156489228Y-103338590D01*
X156445081Y-103392746D01*
X156418271Y-103406674D01*
X156337911Y-103436646D01*
X156337906Y-103436649D01*
X156222812Y-103522809D01*
X156222809Y-103522812D01*
X156136649Y-103637906D01*
X156136645Y-103637913D01*
X156086403Y-103772620D01*
X156086401Y-103772627D01*
X156080000Y-103832155D01*
X156080000Y-104530000D01*
X157104722Y-104530000D01*
X157060667Y-104606306D01*
X157030000Y-104720756D01*
X157030000Y-104839244D01*
X157060667Y-104953694D01*
X157104722Y-105030000D01*
X156080000Y-105030000D01*
X156080000Y-105727844D01*
X156086401Y-105787372D01*
X156086403Y-105787379D01*
X156136645Y-105922086D01*
X156136649Y-105922093D01*
X156222809Y-106037187D01*
X156222812Y-106037190D01*
X156337906Y-106123350D01*
X156337913Y-106123354D01*
X156472620Y-106173596D01*
X156472627Y-106173598D01*
X156532155Y-106179999D01*
X156532172Y-106180000D01*
X157230000Y-106180000D01*
X157230000Y-105155277D01*
X157306306Y-105199333D01*
X157420756Y-105230000D01*
X157539244Y-105230000D01*
X157653694Y-105199333D01*
X157730000Y-105155277D01*
X157730000Y-106180000D01*
X158427828Y-106180000D01*
X158427844Y-106179999D01*
X158487372Y-106173598D01*
X158487379Y-106173596D01*
X158622086Y-106123354D01*
X158622093Y-106123350D01*
X158737187Y-106037190D01*
X158737190Y-106037187D01*
X158823350Y-105922093D01*
X158823354Y-105922086D01*
X158873596Y-105787379D01*
X158873598Y-105787372D01*
X158879999Y-105727844D01*
X158880000Y-105727827D01*
X158880000Y-105030000D01*
X157855278Y-105030000D01*
X157899333Y-104953694D01*
X157930000Y-104839244D01*
X157930000Y-104720756D01*
X157899333Y-104606306D01*
X157855278Y-104530000D01*
X158880000Y-104530000D01*
X158880000Y-103832172D01*
X158879999Y-103832155D01*
X158873598Y-103772627D01*
X158873596Y-103772620D01*
X158823354Y-103637913D01*
X158823350Y-103637906D01*
X158737190Y-103522812D01*
X158737187Y-103522809D01*
X158622093Y-103436649D01*
X158622086Y-103436645D01*
X158541729Y-103406674D01*
X158485795Y-103364803D01*
X158461378Y-103299338D01*
X158476230Y-103231065D01*
X158493826Y-103206516D01*
X158588979Y-103103153D01*
X158715924Y-102908849D01*
X158809157Y-102696300D01*
X158866134Y-102471305D01*
X158866548Y-102466308D01*
X158885300Y-102240006D01*
X158885300Y-102239993D01*
X158884886Y-102234993D01*
X171314700Y-102234993D01*
X171314700Y-102235006D01*
X171333864Y-102466297D01*
X171333866Y-102466308D01*
X171390842Y-102691300D01*
X171484075Y-102903848D01*
X171611018Y-103098150D01*
X171706167Y-103201510D01*
X171737089Y-103264164D01*
X171729228Y-103333590D01*
X171685081Y-103387746D01*
X171658271Y-103401674D01*
X171577911Y-103431646D01*
X171577906Y-103431649D01*
X171462812Y-103517809D01*
X171462809Y-103517812D01*
X171376649Y-103632906D01*
X171376645Y-103632913D01*
X171326403Y-103767620D01*
X171326401Y-103767627D01*
X171320000Y-103827155D01*
X171320000Y-104525000D01*
X172344722Y-104525000D01*
X172300667Y-104601306D01*
X172270000Y-104715756D01*
X172270000Y-104834244D01*
X172300667Y-104948694D01*
X172344722Y-105025000D01*
X171320000Y-105025000D01*
X171320000Y-105722844D01*
X171326401Y-105782372D01*
X171326403Y-105782379D01*
X171376645Y-105917086D01*
X171376649Y-105917093D01*
X171462809Y-106032187D01*
X171462812Y-106032190D01*
X171577906Y-106118350D01*
X171577913Y-106118354D01*
X171712620Y-106168596D01*
X171712627Y-106168598D01*
X171772155Y-106174999D01*
X171772172Y-106175000D01*
X172470000Y-106175000D01*
X172470000Y-105150277D01*
X172546306Y-105194333D01*
X172660756Y-105225000D01*
X172779244Y-105225000D01*
X172893694Y-105194333D01*
X172970000Y-105150277D01*
X172970000Y-106175000D01*
X173667828Y-106175000D01*
X173667844Y-106174999D01*
X173727372Y-106168598D01*
X173727379Y-106168596D01*
X173862086Y-106118354D01*
X173862093Y-106118350D01*
X173977187Y-106032190D01*
X173977190Y-106032187D01*
X174063350Y-105917093D01*
X174063354Y-105917086D01*
X174113596Y-105782379D01*
X174113598Y-105782372D01*
X174119999Y-105722844D01*
X174120000Y-105722827D01*
X174120000Y-105409999D01*
X175959357Y-105409999D01*
X175959357Y-105410000D01*
X175979884Y-105631535D01*
X175979885Y-105631537D01*
X176040769Y-105845523D01*
X176040775Y-105845538D01*
X176139938Y-106044683D01*
X176139943Y-106044691D01*
X176274020Y-106222238D01*
X176438437Y-106372123D01*
X176438439Y-106372125D01*
X176627595Y-106489245D01*
X176627596Y-106489245D01*
X176627599Y-106489247D01*
X176835060Y-106569618D01*
X177053757Y-106610500D01*
X177053759Y-106610500D01*
X177276241Y-106610500D01*
X177276243Y-106610500D01*
X177494940Y-106569618D01*
X177702401Y-106489247D01*
X177891562Y-106372124D01*
X178055981Y-106222236D01*
X178190058Y-106044689D01*
X178289229Y-105845528D01*
X178350115Y-105631536D01*
X178370643Y-105410000D01*
X178350115Y-105188464D01*
X178289229Y-104974472D01*
X178276393Y-104948694D01*
X178190061Y-104775316D01*
X178190056Y-104775308D01*
X178055979Y-104597761D01*
X177891562Y-104447876D01*
X177891560Y-104447874D01*
X177702404Y-104330754D01*
X177702398Y-104330752D01*
X177700457Y-104330000D01*
X177494940Y-104250382D01*
X177276243Y-104209500D01*
X177053757Y-104209500D01*
X176835060Y-104250382D01*
X176787296Y-104268886D01*
X176627601Y-104330752D01*
X176627595Y-104330754D01*
X176438439Y-104447874D01*
X176438437Y-104447876D01*
X176274020Y-104597761D01*
X176139943Y-104775308D01*
X176139938Y-104775316D01*
X176040775Y-104974461D01*
X176040769Y-104974476D01*
X175979885Y-105188462D01*
X175979884Y-105188464D01*
X175959357Y-105409999D01*
X174120000Y-105409999D01*
X174120000Y-105025000D01*
X173095278Y-105025000D01*
X173139333Y-104948694D01*
X173170000Y-104834244D01*
X173170000Y-104715756D01*
X173139333Y-104601306D01*
X173095278Y-104525000D01*
X174120000Y-104525000D01*
X174120000Y-103827172D01*
X174119999Y-103827155D01*
X174113598Y-103767627D01*
X174113596Y-103767620D01*
X174063354Y-103632913D01*
X174063350Y-103632906D01*
X173977190Y-103517812D01*
X173977187Y-103517809D01*
X173862093Y-103431649D01*
X173862086Y-103431645D01*
X173781729Y-103401674D01*
X173725795Y-103359803D01*
X173701378Y-103294338D01*
X173716230Y-103226065D01*
X173733826Y-103201516D01*
X173828979Y-103098153D01*
X173955924Y-102903849D01*
X174049157Y-102691300D01*
X174106134Y-102466305D01*
X174106641Y-102460185D01*
X174125300Y-102235006D01*
X174125300Y-102234993D01*
X174106135Y-102003702D01*
X174106133Y-102003691D01*
X174049157Y-101778699D01*
X173955924Y-101566151D01*
X173828983Y-101371852D01*
X173828980Y-101371849D01*
X173828979Y-101371847D01*
X173671784Y-101201087D01*
X173671779Y-101201083D01*
X173671777Y-101201081D01*
X173488634Y-101058535D01*
X173488628Y-101058531D01*
X173284504Y-100948064D01*
X173284495Y-100948061D01*
X173064984Y-100872702D01*
X172866012Y-100839500D01*
X172836049Y-100834500D01*
X172603951Y-100834500D01*
X172573988Y-100839500D01*
X172375015Y-100872702D01*
X172155504Y-100948061D01*
X172155495Y-100948064D01*
X171951371Y-101058531D01*
X171951365Y-101058535D01*
X171768222Y-101201081D01*
X171768219Y-101201084D01*
X171768216Y-101201086D01*
X171768216Y-101201087D01*
X171722761Y-101250465D01*
X171611016Y-101371852D01*
X171484075Y-101566151D01*
X171390842Y-101778699D01*
X171333866Y-102003691D01*
X171333864Y-102003702D01*
X171314700Y-102234993D01*
X158884886Y-102234993D01*
X158866135Y-102008702D01*
X158866133Y-102008691D01*
X158809157Y-101783699D01*
X158805039Y-101774312D01*
X158796135Y-101705012D01*
X158826111Y-101641900D01*
X158885449Y-101605012D01*
X158918594Y-101600500D01*
X163888331Y-101600500D01*
X163888347Y-101600501D01*
X163895943Y-101600501D01*
X164054054Y-101600501D01*
X164054057Y-101600501D01*
X164206785Y-101559577D01*
X164256904Y-101530639D01*
X164343716Y-101480520D01*
X164455520Y-101368716D01*
X164455520Y-101368714D01*
X164465728Y-101358507D01*
X164465730Y-101358504D01*
X165621980Y-100202253D01*
X165683301Y-100168770D01*
X165752993Y-100173754D01*
X165765954Y-100179451D01*
X165855776Y-100225218D01*
X165855778Y-100225218D01*
X165855781Y-100225220D01*
X165956215Y-100257853D01*
X166050465Y-100288477D01*
X166151557Y-100304488D01*
X166252648Y-100320500D01*
X166252649Y-100320500D01*
X166457351Y-100320500D01*
X166457352Y-100320500D01*
X166659534Y-100288477D01*
X166854219Y-100225220D01*
X167036610Y-100132287D01*
X167132901Y-100062328D01*
X167202213Y-100011971D01*
X167202215Y-100011968D01*
X167202219Y-100011966D01*
X167346966Y-99867219D01*
X167346968Y-99867215D01*
X167346971Y-99867213D01*
X167467284Y-99701614D01*
X167467286Y-99701611D01*
X167467287Y-99701610D01*
X167514516Y-99608917D01*
X167562489Y-99558123D01*
X167630310Y-99541328D01*
X167696445Y-99563865D01*
X167735483Y-99608917D01*
X167761317Y-99659618D01*
X167782715Y-99701614D01*
X167903028Y-99867213D01*
X168047786Y-100011971D01*
X168202749Y-100124556D01*
X168213390Y-100132287D01*
X168329607Y-100191503D01*
X168395776Y-100225218D01*
X168395778Y-100225218D01*
X168395781Y-100225220D01*
X168496215Y-100257853D01*
X168590465Y-100288477D01*
X168691557Y-100304488D01*
X168792648Y-100320500D01*
X168792649Y-100320500D01*
X168997351Y-100320500D01*
X168997352Y-100320500D01*
X169199534Y-100288477D01*
X169394219Y-100225220D01*
X169576610Y-100132287D01*
X169672901Y-100062328D01*
X169742213Y-100011971D01*
X169742215Y-100011968D01*
X169742219Y-100011966D01*
X169886966Y-99867219D01*
X169886968Y-99867215D01*
X169886971Y-99867213D01*
X170007284Y-99701614D01*
X170007286Y-99701611D01*
X170007287Y-99701610D01*
X170054516Y-99608917D01*
X170102489Y-99558123D01*
X170170310Y-99541328D01*
X170236445Y-99563865D01*
X170275483Y-99608917D01*
X170301317Y-99659618D01*
X170322715Y-99701614D01*
X170443028Y-99867213D01*
X170587786Y-100011971D01*
X170742749Y-100124556D01*
X170753390Y-100132287D01*
X170869607Y-100191503D01*
X170935776Y-100225218D01*
X170935778Y-100225218D01*
X170935781Y-100225220D01*
X171036215Y-100257853D01*
X171130465Y-100288477D01*
X171231557Y-100304488D01*
X171332648Y-100320500D01*
X171332649Y-100320500D01*
X171537351Y-100320500D01*
X171537352Y-100320500D01*
X171739534Y-100288477D01*
X171934219Y-100225220D01*
X172116610Y-100132287D01*
X172212901Y-100062328D01*
X172282213Y-100011971D01*
X172282215Y-100011968D01*
X172282219Y-100011966D01*
X172426966Y-99867219D01*
X172453330Y-99830930D01*
X172508658Y-99788265D01*
X172578271Y-99782284D01*
X172640067Y-99814889D01*
X172674426Y-99875726D01*
X172676938Y-99890559D01*
X172680907Y-99927480D01*
X172731202Y-100062328D01*
X172731206Y-100062335D01*
X172817452Y-100177544D01*
X172817455Y-100177547D01*
X172932664Y-100263793D01*
X172932671Y-100263797D01*
X173067517Y-100314091D01*
X173067516Y-100314091D01*
X173074444Y-100314835D01*
X173127127Y-100320500D01*
X174822872Y-100320499D01*
X174882483Y-100314091D01*
X175017331Y-100263796D01*
X175132546Y-100177546D01*
X175218796Y-100062331D01*
X175269091Y-99927483D01*
X175275500Y-99867873D01*
X175275499Y-97789999D01*
X175959357Y-97789999D01*
X175959357Y-97790000D01*
X175979884Y-98011535D01*
X175979885Y-98011537D01*
X176040769Y-98225523D01*
X176040775Y-98225538D01*
X176139938Y-98424683D01*
X176139943Y-98424691D01*
X176274020Y-98602238D01*
X176438437Y-98752123D01*
X176438439Y-98752125D01*
X176627595Y-98869245D01*
X176627596Y-98869245D01*
X176627599Y-98869247D01*
X176835060Y-98949618D01*
X177053757Y-98990500D01*
X177053759Y-98990500D01*
X177276241Y-98990500D01*
X177276243Y-98990500D01*
X177494940Y-98949618D01*
X177702401Y-98869247D01*
X177891562Y-98752124D01*
X178055981Y-98602236D01*
X178190058Y-98424689D01*
X178289229Y-98225528D01*
X178350115Y-98011536D01*
X178370643Y-97790000D01*
X178362620Y-97703422D01*
X178350115Y-97568464D01*
X178350114Y-97568462D01*
X178349780Y-97567289D01*
X178289229Y-97354472D01*
X178268338Y-97312517D01*
X178190061Y-97155316D01*
X178190056Y-97155308D01*
X178055979Y-96977761D01*
X177891562Y-96827876D01*
X177891560Y-96827874D01*
X177702404Y-96710754D01*
X177702398Y-96710752D01*
X177691624Y-96706578D01*
X177494940Y-96630382D01*
X177276243Y-96589500D01*
X177053757Y-96589500D01*
X176835060Y-96630382D01*
X176760329Y-96659333D01*
X176627601Y-96710752D01*
X176627595Y-96710754D01*
X176438439Y-96827874D01*
X176438437Y-96827876D01*
X176274020Y-96977761D01*
X176139943Y-97155308D01*
X176139938Y-97155316D01*
X176040775Y-97354461D01*
X176040769Y-97354476D01*
X175979885Y-97568462D01*
X175979884Y-97568464D01*
X175959357Y-97789999D01*
X175275499Y-97789999D01*
X175275499Y-97372128D01*
X175269091Y-97312517D01*
X175240331Y-97235408D01*
X175218797Y-97177671D01*
X175218793Y-97177664D01*
X175132547Y-97062455D01*
X175132544Y-97062452D01*
X175017335Y-96976206D01*
X175017328Y-96976202D01*
X174882482Y-96925908D01*
X174882483Y-96925908D01*
X174822883Y-96919501D01*
X174822881Y-96919500D01*
X174822873Y-96919500D01*
X174822865Y-96919500D01*
X173175097Y-96919500D01*
X173108058Y-96899815D01*
X173087416Y-96883181D01*
X171916416Y-95712181D01*
X171882931Y-95650858D01*
X171887915Y-95581166D01*
X171929787Y-95525233D01*
X171995251Y-95500816D01*
X172004097Y-95500500D01*
X190629117Y-95500500D01*
X190696156Y-95520185D01*
X190716798Y-95536819D01*
X191771189Y-96591210D01*
X191804674Y-96652533D01*
X191799690Y-96722225D01*
X191757818Y-96778158D01*
X191748786Y-96784318D01*
X191678436Y-96827877D01*
X191514020Y-96977761D01*
X191379943Y-97155308D01*
X191379938Y-97155316D01*
X191280775Y-97354461D01*
X191280769Y-97354476D01*
X191219885Y-97568462D01*
X191219884Y-97568464D01*
X191199357Y-97789999D01*
X191199357Y-97790000D01*
X191219885Y-98011537D01*
X191225270Y-98030463D01*
X191224683Y-98100330D01*
X191193685Y-98152078D01*
X188484840Y-100860923D01*
X188423517Y-100894408D01*
X188356898Y-100890524D01*
X188304981Y-100872702D01*
X188234393Y-100860923D01*
X188076049Y-100834500D01*
X187843951Y-100834500D01*
X187813988Y-100839500D01*
X187615015Y-100872702D01*
X187395504Y-100948061D01*
X187395495Y-100948064D01*
X187191371Y-101058531D01*
X187191365Y-101058535D01*
X187008222Y-101201081D01*
X187008219Y-101201084D01*
X187008216Y-101201086D01*
X187008216Y-101201087D01*
X186962761Y-101250465D01*
X186851016Y-101371852D01*
X186724075Y-101566151D01*
X186630842Y-101778699D01*
X186573866Y-102003691D01*
X186573864Y-102003702D01*
X186554700Y-102234993D01*
X186554700Y-102235006D01*
X186573864Y-102466297D01*
X186573866Y-102466308D01*
X186630842Y-102691300D01*
X186724075Y-102903848D01*
X186851018Y-103098150D01*
X186946167Y-103201510D01*
X186977089Y-103264164D01*
X186969228Y-103333590D01*
X186925081Y-103387746D01*
X186898271Y-103401674D01*
X186817911Y-103431646D01*
X186817906Y-103431649D01*
X186702812Y-103517809D01*
X186702809Y-103517812D01*
X186616649Y-103632906D01*
X186616645Y-103632913D01*
X186566403Y-103767620D01*
X186566401Y-103767627D01*
X186560000Y-103827155D01*
X186560000Y-104525000D01*
X187584722Y-104525000D01*
X187540667Y-104601306D01*
X187510000Y-104715756D01*
X187510000Y-104834244D01*
X187540667Y-104948694D01*
X187584722Y-105025000D01*
X186560000Y-105025000D01*
X186560000Y-105722844D01*
X186566401Y-105782372D01*
X186566403Y-105782379D01*
X186616645Y-105917086D01*
X186616649Y-105917093D01*
X186702809Y-106032187D01*
X186702812Y-106032190D01*
X186817906Y-106118350D01*
X186817913Y-106118354D01*
X186952620Y-106168596D01*
X186952627Y-106168598D01*
X187012155Y-106174999D01*
X187012172Y-106175000D01*
X187710000Y-106175000D01*
X187710000Y-105150277D01*
X187786306Y-105194333D01*
X187900756Y-105225000D01*
X188019244Y-105225000D01*
X188133694Y-105194333D01*
X188210000Y-105150277D01*
X188210000Y-106175000D01*
X188907828Y-106175000D01*
X188907844Y-106174999D01*
X188967372Y-106168598D01*
X188967379Y-106168596D01*
X189102086Y-106118354D01*
X189102093Y-106118350D01*
X189217187Y-106032190D01*
X189217190Y-106032187D01*
X189303350Y-105917093D01*
X189303354Y-105917086D01*
X189353596Y-105782379D01*
X189353598Y-105782372D01*
X189359999Y-105722844D01*
X189360000Y-105722827D01*
X189360000Y-105025000D01*
X188335278Y-105025000D01*
X188379333Y-104948694D01*
X188410000Y-104834244D01*
X188410000Y-104715756D01*
X188379333Y-104601306D01*
X188335278Y-104525000D01*
X189360000Y-104525000D01*
X189360000Y-103827172D01*
X189359999Y-103827155D01*
X189353598Y-103767627D01*
X189353596Y-103767620D01*
X189303354Y-103632913D01*
X189303350Y-103632906D01*
X189217190Y-103517812D01*
X189217187Y-103517809D01*
X189102093Y-103431649D01*
X189102086Y-103431645D01*
X189021729Y-103401674D01*
X188965795Y-103359803D01*
X188941378Y-103294338D01*
X188956230Y-103226065D01*
X188973826Y-103201516D01*
X189068979Y-103098153D01*
X189195924Y-102903849D01*
X189289157Y-102691300D01*
X189346134Y-102466305D01*
X189346641Y-102460185D01*
X189365300Y-102235006D01*
X189365300Y-102234993D01*
X189346135Y-102003702D01*
X189346131Y-102003682D01*
X189301680Y-101828151D01*
X189304304Y-101758331D01*
X189334202Y-101710031D01*
X192045319Y-98998914D01*
X192106640Y-98965431D01*
X192155783Y-98964708D01*
X192293757Y-98990500D01*
X192293759Y-98990500D01*
X192516241Y-98990500D01*
X192516243Y-98990500D01*
X192734940Y-98949618D01*
X192942401Y-98869247D01*
X193131562Y-98752124D01*
X193295981Y-98602236D01*
X193299844Y-98597999D01*
X193300948Y-98599005D01*
X193351288Y-98561628D01*
X193420998Y-98556916D01*
X193481848Y-98590297D01*
X195495925Y-100604374D01*
X195495935Y-100604385D01*
X195500265Y-100608715D01*
X195500266Y-100608716D01*
X195612070Y-100720520D01*
X195612072Y-100720521D01*
X195612076Y-100720524D01*
X195734094Y-100790970D01*
X195749002Y-100799577D01*
X195860805Y-100829534D01*
X195901728Y-100840500D01*
X195901729Y-100840500D01*
X199868230Y-100840500D01*
X199868246Y-100840501D01*
X199875842Y-100840501D01*
X200033953Y-100840501D01*
X200033956Y-100840501D01*
X200186684Y-100799577D01*
X200201592Y-100790970D01*
X200241003Y-100768216D01*
X200241004Y-100768215D01*
X200323615Y-100720520D01*
X200435419Y-100608716D01*
X200435419Y-100608714D01*
X200445623Y-100598511D01*
X200445627Y-100598506D01*
X201076524Y-99967608D01*
X201137845Y-99934125D01*
X201207537Y-99939109D01*
X201228760Y-99950528D01*
X201229241Y-99949744D01*
X201233384Y-99952283D01*
X201233390Y-99952287D01*
X201321296Y-99997077D01*
X201415776Y-100045218D01*
X201415778Y-100045218D01*
X201415781Y-100045220D01*
X201610466Y-100108477D01*
X201652237Y-100115093D01*
X201715368Y-100145020D01*
X201752300Y-100204331D01*
X201751304Y-100274193D01*
X201720518Y-100325246D01*
X200842584Y-101203181D01*
X200781261Y-101236666D01*
X200754903Y-101239500D01*
X195895940Y-101239500D01*
X195855019Y-101250464D01*
X195855019Y-101250465D01*
X195817751Y-101260451D01*
X195743214Y-101280423D01*
X195743209Y-101280426D01*
X195606290Y-101359475D01*
X195606282Y-101359481D01*
X195494478Y-101471286D01*
X192764680Y-104201083D01*
X192703357Y-104234568D01*
X192654215Y-104235291D01*
X192588794Y-104223062D01*
X192516243Y-104209500D01*
X192293757Y-104209500D01*
X192075060Y-104250382D01*
X192027296Y-104268886D01*
X191867601Y-104330752D01*
X191867595Y-104330754D01*
X191678439Y-104447874D01*
X191678437Y-104447876D01*
X191514020Y-104597761D01*
X191379943Y-104775308D01*
X191379938Y-104775316D01*
X191280775Y-104974461D01*
X191280769Y-104974476D01*
X191219885Y-105188462D01*
X191219884Y-105188464D01*
X191199357Y-105409999D01*
X191199357Y-105410000D01*
X191219884Y-105631535D01*
X191219885Y-105631537D01*
X191280769Y-105845523D01*
X191280775Y-105845538D01*
X191379938Y-106044683D01*
X191379943Y-106044691D01*
X191514020Y-106222238D01*
X191678437Y-106372123D01*
X191678439Y-106372125D01*
X191867595Y-106489245D01*
X191867596Y-106489245D01*
X191867599Y-106489247D01*
X192075060Y-106569618D01*
X192293757Y-106610500D01*
X192293759Y-106610500D01*
X192516241Y-106610500D01*
X192516243Y-106610500D01*
X192734940Y-106569618D01*
X192942401Y-106489247D01*
X193131562Y-106372124D01*
X193295981Y-106222236D01*
X193430058Y-106044689D01*
X193529229Y-105845528D01*
X193555734Y-105752371D01*
X193593013Y-105693278D01*
X193656323Y-105663721D01*
X193725562Y-105673083D01*
X193778749Y-105718393D01*
X193794266Y-105752372D01*
X193820769Y-105845523D01*
X193820775Y-105845538D01*
X193919938Y-106044683D01*
X193919943Y-106044691D01*
X194054020Y-106222238D01*
X194218437Y-106372123D01*
X194218439Y-106372125D01*
X194407595Y-106489245D01*
X194407596Y-106489245D01*
X194407599Y-106489247D01*
X194615060Y-106569618D01*
X194833757Y-106610500D01*
X194833759Y-106610500D01*
X195056241Y-106610500D01*
X195056243Y-106610500D01*
X195274940Y-106569618D01*
X195482401Y-106489247D01*
X195671562Y-106372124D01*
X195835981Y-106222236D01*
X195970058Y-106044689D01*
X196069229Y-105845528D01*
X196130115Y-105631536D01*
X196150643Y-105410000D01*
X196130115Y-105188464D01*
X196124729Y-105169534D01*
X196125315Y-105099669D01*
X196156312Y-105047921D01*
X198327416Y-102876819D01*
X198388739Y-102843334D01*
X198415097Y-102840500D01*
X201853199Y-102840500D01*
X201920238Y-102860185D01*
X201962253Y-102905481D01*
X201964075Y-102908848D01*
X202091018Y-103103150D01*
X202186167Y-103206510D01*
X202217089Y-103269164D01*
X202209228Y-103338590D01*
X202165081Y-103392746D01*
X202138271Y-103406674D01*
X202057911Y-103436646D01*
X202057906Y-103436649D01*
X201942812Y-103522809D01*
X201942809Y-103522812D01*
X201856649Y-103637906D01*
X201856645Y-103637913D01*
X201806403Y-103772620D01*
X201806401Y-103772627D01*
X201800000Y-103832155D01*
X201800000Y-104530000D01*
X202824722Y-104530000D01*
X202780667Y-104606306D01*
X202750000Y-104720756D01*
X202750000Y-104839244D01*
X202780667Y-104953694D01*
X202824722Y-105030000D01*
X201800000Y-105030000D01*
X201800000Y-105727844D01*
X201806401Y-105787372D01*
X201806403Y-105787379D01*
X201856645Y-105922086D01*
X201856649Y-105922093D01*
X201942809Y-106037187D01*
X201942812Y-106037190D01*
X202057906Y-106123350D01*
X202057913Y-106123354D01*
X202192620Y-106173596D01*
X202192627Y-106173598D01*
X202252155Y-106179999D01*
X202252172Y-106180000D01*
X202950000Y-106180000D01*
X202950000Y-105155277D01*
X203026306Y-105199333D01*
X203140756Y-105230000D01*
X203259244Y-105230000D01*
X203373694Y-105199333D01*
X203450000Y-105155277D01*
X203450000Y-106180000D01*
X204147828Y-106180000D01*
X204147844Y-106179999D01*
X204207372Y-106173598D01*
X204207379Y-106173596D01*
X204342086Y-106123354D01*
X204342093Y-106123350D01*
X204457187Y-106037190D01*
X204457190Y-106037187D01*
X204543350Y-105922093D01*
X204543354Y-105922086D01*
X204593596Y-105787379D01*
X204593598Y-105787372D01*
X204599999Y-105727844D01*
X204600000Y-105727827D01*
X204600000Y-105030000D01*
X203575278Y-105030000D01*
X203619333Y-104953694D01*
X203650000Y-104839244D01*
X203650000Y-104720756D01*
X203619333Y-104606306D01*
X203575278Y-104530000D01*
X204600000Y-104530000D01*
X204600000Y-103832172D01*
X204599999Y-103832155D01*
X204593598Y-103772627D01*
X204593596Y-103772620D01*
X204543354Y-103637913D01*
X204543350Y-103637906D01*
X204457190Y-103522812D01*
X204457187Y-103522809D01*
X204342093Y-103436649D01*
X204342086Y-103436645D01*
X204261729Y-103406674D01*
X204205795Y-103364803D01*
X204181378Y-103299338D01*
X204196230Y-103231065D01*
X204213826Y-103206516D01*
X204308979Y-103103153D01*
X204435924Y-102908849D01*
X204529157Y-102696300D01*
X204586134Y-102471305D01*
X204586548Y-102466308D01*
X204605300Y-102240006D01*
X204605300Y-102239993D01*
X204586135Y-102008702D01*
X204586133Y-102008691D01*
X204529157Y-101783699D01*
X204435924Y-101571151D01*
X204308983Y-101376852D01*
X204308980Y-101376849D01*
X204308979Y-101376847D01*
X204151784Y-101206087D01*
X204151779Y-101206083D01*
X204151777Y-101206081D01*
X203968634Y-101063535D01*
X203968628Y-101063531D01*
X203764504Y-100953064D01*
X203764495Y-100953061D01*
X203544984Y-100877702D01*
X203373282Y-100849050D01*
X203316049Y-100839500D01*
X203204096Y-100839500D01*
X203137057Y-100819815D01*
X203091302Y-100767011D01*
X203081358Y-100697853D01*
X203110383Y-100634297D01*
X203116415Y-100627819D01*
X203418988Y-100325246D01*
X203721980Y-100022253D01*
X203783301Y-99988770D01*
X203852992Y-99993754D01*
X203865954Y-99999451D01*
X203955776Y-100045218D01*
X203955778Y-100045218D01*
X203955781Y-100045220D01*
X204008456Y-100062335D01*
X204150465Y-100108477D01*
X204192224Y-100115091D01*
X204352648Y-100140500D01*
X204352649Y-100140500D01*
X204557351Y-100140500D01*
X204557352Y-100140500D01*
X204759534Y-100108477D01*
X204954219Y-100045220D01*
X205136610Y-99952287D01*
X205252797Y-99867873D01*
X205302213Y-99831971D01*
X205302215Y-99831968D01*
X205302219Y-99831966D01*
X205446966Y-99687219D01*
X205446968Y-99687215D01*
X205446971Y-99687213D01*
X205567284Y-99521614D01*
X205567283Y-99521614D01*
X205567287Y-99521610D01*
X205614516Y-99428917D01*
X205662489Y-99378123D01*
X205730310Y-99361328D01*
X205796445Y-99383865D01*
X205835483Y-99428917D01*
X205852404Y-99462125D01*
X205882715Y-99521614D01*
X206003028Y-99687213D01*
X206147786Y-99831971D01*
X206279250Y-99927483D01*
X206313390Y-99952287D01*
X206412060Y-100002562D01*
X206495776Y-100045218D01*
X206495778Y-100045218D01*
X206495781Y-100045220D01*
X206548456Y-100062335D01*
X206690465Y-100108477D01*
X206732224Y-100115091D01*
X206892648Y-100140500D01*
X206892649Y-100140500D01*
X207097351Y-100140500D01*
X207097352Y-100140500D01*
X207299534Y-100108477D01*
X207494219Y-100045220D01*
X207676610Y-99952287D01*
X207792797Y-99867873D01*
X207842213Y-99831971D01*
X207842215Y-99831968D01*
X207842219Y-99831966D01*
X207986966Y-99687219D01*
X207986968Y-99687215D01*
X207986971Y-99687213D01*
X208107284Y-99521614D01*
X208107283Y-99521614D01*
X208107287Y-99521610D01*
X208154516Y-99428917D01*
X208202489Y-99378123D01*
X208270310Y-99361328D01*
X208336445Y-99383865D01*
X208375483Y-99428917D01*
X208392404Y-99462125D01*
X208422715Y-99521614D01*
X208543028Y-99687213D01*
X208543034Y-99687219D01*
X208687781Y-99831966D01*
X208853390Y-99952287D01*
X208866793Y-99959116D01*
X208917589Y-100007088D01*
X208934500Y-100069601D01*
X208934500Y-101314902D01*
X208914815Y-101381941D01*
X208898181Y-101402583D01*
X207369680Y-102931083D01*
X207308357Y-102964568D01*
X207259215Y-102965291D01*
X207226442Y-102959164D01*
X207121243Y-102939500D01*
X206898757Y-102939500D01*
X206680060Y-102980382D01*
X206548864Y-103031207D01*
X206472601Y-103060752D01*
X206472595Y-103060754D01*
X206283439Y-103177874D01*
X206283437Y-103177876D01*
X206119020Y-103327761D01*
X205984943Y-103505308D01*
X205984938Y-103505316D01*
X205885775Y-103704461D01*
X205885769Y-103704476D01*
X205824885Y-103918462D01*
X205824884Y-103918464D01*
X205804357Y-104139999D01*
X205804357Y-104140000D01*
X205824884Y-104361535D01*
X205824885Y-104361537D01*
X205885769Y-104575523D01*
X205885775Y-104575538D01*
X205984938Y-104774683D01*
X205984943Y-104774691D01*
X206119020Y-104952238D01*
X206216116Y-105040752D01*
X206280501Y-105099447D01*
X206283437Y-105102123D01*
X206283439Y-105102125D01*
X206472595Y-105219245D01*
X206472596Y-105219245D01*
X206472599Y-105219247D01*
X206680060Y-105299618D01*
X206898757Y-105340500D01*
X206898759Y-105340500D01*
X207121241Y-105340500D01*
X207121243Y-105340500D01*
X207339940Y-105299618D01*
X207547401Y-105219247D01*
X207736562Y-105102124D01*
X207900981Y-104952236D01*
X208035058Y-104774689D01*
X208134229Y-104575528D01*
X208195115Y-104361536D01*
X208215643Y-104140000D01*
X208195115Y-103918464D01*
X208189729Y-103899534D01*
X208190315Y-103829669D01*
X208221312Y-103777921D01*
X209893506Y-102105728D01*
X209893511Y-102105724D01*
X209903714Y-102095520D01*
X209903716Y-102095520D01*
X210015520Y-101983716D01*
X210080024Y-101871991D01*
X210094577Y-101846785D01*
X210135500Y-101694058D01*
X210135500Y-101535943D01*
X210135500Y-100069601D01*
X210155185Y-100002562D01*
X210203206Y-99959116D01*
X210216610Y-99952287D01*
X210382219Y-99831966D01*
X210526966Y-99687219D01*
X210526968Y-99687215D01*
X210526971Y-99687213D01*
X210647284Y-99521614D01*
X210647283Y-99521614D01*
X210647287Y-99521610D01*
X210694516Y-99428917D01*
X210742489Y-99378123D01*
X210810310Y-99361328D01*
X210876445Y-99383865D01*
X210915483Y-99428917D01*
X210932404Y-99462125D01*
X210962715Y-99521614D01*
X211083028Y-99687213D01*
X211227786Y-99831971D01*
X211359250Y-99927483D01*
X211393390Y-99952287D01*
X211492060Y-100002562D01*
X211575776Y-100045218D01*
X211575778Y-100045218D01*
X211575781Y-100045220D01*
X211628456Y-100062335D01*
X211770465Y-100108477D01*
X211812224Y-100115091D01*
X211972648Y-100140500D01*
X211972649Y-100140500D01*
X212177351Y-100140500D01*
X212177352Y-100140500D01*
X212379534Y-100108477D01*
X212574219Y-100045220D01*
X212664043Y-99999451D01*
X212732711Y-99986555D01*
X212797452Y-100012830D01*
X212808019Y-100022255D01*
X213596284Y-100810520D01*
X213596286Y-100810521D01*
X213596290Y-100810524D01*
X213675219Y-100856093D01*
X213733216Y-100889577D01*
X213885943Y-100930501D01*
X213885945Y-100930501D01*
X214051654Y-100930501D01*
X214051670Y-100930500D01*
X217474667Y-100930500D01*
X217541706Y-100950185D01*
X217587461Y-101002989D01*
X217597405Y-101072147D01*
X217568380Y-101135703D01*
X217550831Y-101152351D01*
X217508846Y-101185029D01*
X217488217Y-101201086D01*
X217331016Y-101371852D01*
X217204075Y-101566151D01*
X217202253Y-101569519D01*
X217153033Y-101619109D01*
X217093199Y-101634500D01*
X216621669Y-101634500D01*
X216621653Y-101634499D01*
X216614057Y-101634499D01*
X216455943Y-101634499D01*
X216376010Y-101655917D01*
X216303216Y-101675422D01*
X216270937Y-101694059D01*
X216270936Y-101694058D01*
X216166287Y-101754477D01*
X216166282Y-101754481D01*
X216054478Y-101866286D01*
X214989680Y-102931083D01*
X214928357Y-102964568D01*
X214879215Y-102965291D01*
X214846442Y-102959164D01*
X214741243Y-102939500D01*
X214518757Y-102939500D01*
X214300060Y-102980382D01*
X214168864Y-103031207D01*
X214092601Y-103060752D01*
X214092595Y-103060754D01*
X213903439Y-103177874D01*
X213903437Y-103177876D01*
X213739020Y-103327761D01*
X213604943Y-103505308D01*
X213604938Y-103505316D01*
X213505775Y-103704461D01*
X213505769Y-103704476D01*
X213444885Y-103918462D01*
X213444884Y-103918464D01*
X213424357Y-104139999D01*
X213424357Y-104140000D01*
X213444884Y-104361535D01*
X213444885Y-104361537D01*
X213505769Y-104575523D01*
X213505775Y-104575538D01*
X213604938Y-104774683D01*
X213604943Y-104774691D01*
X213739020Y-104952238D01*
X213836116Y-105040752D01*
X213900501Y-105099447D01*
X213903437Y-105102123D01*
X213903439Y-105102125D01*
X214092595Y-105219245D01*
X214092596Y-105219245D01*
X214092599Y-105219247D01*
X214300060Y-105299618D01*
X214518757Y-105340500D01*
X214518759Y-105340500D01*
X214741241Y-105340500D01*
X214741243Y-105340500D01*
X214959940Y-105299618D01*
X215167401Y-105219247D01*
X215356562Y-105102124D01*
X215520981Y-104952236D01*
X215655058Y-104774689D01*
X215754229Y-104575528D01*
X215815115Y-104361536D01*
X215835643Y-104140000D01*
X215815115Y-103918464D01*
X215809729Y-103899534D01*
X215810315Y-103829669D01*
X215841312Y-103777921D01*
X216747416Y-102871819D01*
X216808739Y-102838334D01*
X216835097Y-102835500D01*
X217093199Y-102835500D01*
X217160238Y-102855185D01*
X217202253Y-102900481D01*
X217204075Y-102903848D01*
X217331018Y-103098150D01*
X217426167Y-103201510D01*
X217457089Y-103264164D01*
X217449228Y-103333590D01*
X217405081Y-103387746D01*
X217378271Y-103401674D01*
X217297911Y-103431646D01*
X217297906Y-103431649D01*
X217182812Y-103517809D01*
X217182809Y-103517812D01*
X217096649Y-103632906D01*
X217096645Y-103632913D01*
X217046403Y-103767620D01*
X217046401Y-103767627D01*
X217040000Y-103827155D01*
X217040000Y-104525000D01*
X218064722Y-104525000D01*
X218020667Y-104601306D01*
X217990000Y-104715756D01*
X217990000Y-104834244D01*
X218020667Y-104948694D01*
X218064722Y-105025000D01*
X217040000Y-105025000D01*
X217040000Y-105722844D01*
X217046401Y-105782372D01*
X217046403Y-105782379D01*
X217096645Y-105917086D01*
X217096649Y-105917093D01*
X217182809Y-106032187D01*
X217182812Y-106032190D01*
X217297906Y-106118350D01*
X217297913Y-106118354D01*
X217432620Y-106168596D01*
X217432627Y-106168598D01*
X217492155Y-106174999D01*
X217492172Y-106175000D01*
X218190000Y-106175000D01*
X218190000Y-105150277D01*
X218266306Y-105194333D01*
X218380756Y-105225000D01*
X218499244Y-105225000D01*
X218613694Y-105194333D01*
X218690000Y-105150277D01*
X218690000Y-106175000D01*
X219387828Y-106175000D01*
X219387844Y-106174999D01*
X219447372Y-106168598D01*
X219447379Y-106168596D01*
X219582086Y-106118354D01*
X219582093Y-106118350D01*
X219697187Y-106032190D01*
X219697190Y-106032187D01*
X219783350Y-105917093D01*
X219783354Y-105917086D01*
X219833596Y-105782379D01*
X219833598Y-105782372D01*
X219839999Y-105722844D01*
X219840000Y-105722827D01*
X219840000Y-105025000D01*
X218815278Y-105025000D01*
X218859333Y-104948694D01*
X218890000Y-104834244D01*
X218890000Y-104715756D01*
X218859333Y-104601306D01*
X218815278Y-104525000D01*
X219840000Y-104525000D01*
X219840000Y-103827172D01*
X219839999Y-103827155D01*
X219833598Y-103767627D01*
X219833596Y-103767620D01*
X219783354Y-103632913D01*
X219783350Y-103632906D01*
X219697190Y-103517812D01*
X219697187Y-103517809D01*
X219582093Y-103431649D01*
X219582086Y-103431645D01*
X219501729Y-103401674D01*
X219445795Y-103359803D01*
X219421378Y-103294338D01*
X219436230Y-103226065D01*
X219453826Y-103201516D01*
X219548979Y-103098153D01*
X219675924Y-102903849D01*
X219688620Y-102874904D01*
X219733572Y-102821421D01*
X219800307Y-102800729D01*
X219867635Y-102819402D01*
X219889856Y-102837034D01*
X221419713Y-104366891D01*
X221453198Y-104428214D01*
X221448214Y-104497906D01*
X221415571Y-104546208D01*
X221359026Y-104597756D01*
X221359021Y-104597761D01*
X221224943Y-104775308D01*
X221224938Y-104775316D01*
X221125775Y-104974461D01*
X221125769Y-104974476D01*
X221064885Y-105188462D01*
X221064884Y-105188464D01*
X221044357Y-105409999D01*
X221044357Y-105410000D01*
X221064884Y-105631535D01*
X221064885Y-105631537D01*
X221125769Y-105845523D01*
X221125775Y-105845538D01*
X221224938Y-106044683D01*
X221224943Y-106044691D01*
X221359020Y-106222238D01*
X221523437Y-106372123D01*
X221523439Y-106372125D01*
X221712595Y-106489245D01*
X221712596Y-106489245D01*
X221712599Y-106489247D01*
X221920060Y-106569618D01*
X222138757Y-106610500D01*
X222138759Y-106610500D01*
X222361241Y-106610500D01*
X222361243Y-106610500D01*
X222579940Y-106569618D01*
X222787401Y-106489247D01*
X222976562Y-106372124D01*
X223140981Y-106222236D01*
X223275058Y-106044689D01*
X223374229Y-105845528D01*
X223435115Y-105631536D01*
X223455643Y-105410000D01*
X223455643Y-105409999D01*
X228664357Y-105409999D01*
X228664357Y-105410000D01*
X228684884Y-105631535D01*
X228684885Y-105631537D01*
X228745769Y-105845523D01*
X228745775Y-105845538D01*
X228844938Y-106044683D01*
X228844943Y-106044691D01*
X228979020Y-106222238D01*
X229143437Y-106372123D01*
X229143439Y-106372125D01*
X229332595Y-106489245D01*
X229332596Y-106489245D01*
X229332599Y-106489247D01*
X229540060Y-106569618D01*
X229758757Y-106610500D01*
X229758759Y-106610500D01*
X229981241Y-106610500D01*
X229981243Y-106610500D01*
X230199940Y-106569618D01*
X230407401Y-106489247D01*
X230596562Y-106372124D01*
X230760981Y-106222236D01*
X230895058Y-106044689D01*
X230994229Y-105845528D01*
X231055115Y-105631536D01*
X231075643Y-105410000D01*
X231055115Y-105188464D01*
X231049729Y-105169534D01*
X231050315Y-105099669D01*
X231081312Y-105047921D01*
X232068319Y-104060915D01*
X232129642Y-104027430D01*
X232199334Y-104032414D01*
X232255267Y-104074286D01*
X232279684Y-104139750D01*
X232280000Y-104148596D01*
X232280000Y-104525000D01*
X233304722Y-104525000D01*
X233260667Y-104601306D01*
X233230000Y-104715756D01*
X233230000Y-104834244D01*
X233260667Y-104948694D01*
X233304722Y-105025000D01*
X232280000Y-105025000D01*
X232280000Y-105722844D01*
X232286401Y-105782372D01*
X232286403Y-105782379D01*
X232336645Y-105917086D01*
X232336649Y-105917093D01*
X232422809Y-106032187D01*
X232422812Y-106032190D01*
X232537906Y-106118350D01*
X232537913Y-106118354D01*
X232672620Y-106168596D01*
X232672627Y-106168598D01*
X232732155Y-106174999D01*
X232732172Y-106175000D01*
X233430000Y-106175000D01*
X233430000Y-105150277D01*
X233506306Y-105194333D01*
X233620756Y-105225000D01*
X233739244Y-105225000D01*
X233853694Y-105194333D01*
X233930000Y-105150277D01*
X233930000Y-106175000D01*
X234627828Y-106175000D01*
X234627844Y-106174999D01*
X234687372Y-106168598D01*
X234687379Y-106168596D01*
X234822086Y-106118354D01*
X234822093Y-106118350D01*
X234937187Y-106032190D01*
X234937190Y-106032187D01*
X235023350Y-105917093D01*
X235023354Y-105917086D01*
X235073596Y-105782379D01*
X235073598Y-105782372D01*
X235079999Y-105722844D01*
X235080000Y-105722827D01*
X235080000Y-105499999D01*
X236294357Y-105499999D01*
X236294357Y-105500000D01*
X236314884Y-105721535D01*
X236314885Y-105721537D01*
X236375769Y-105935523D01*
X236375775Y-105935538D01*
X236474938Y-106134683D01*
X236474943Y-106134691D01*
X236609020Y-106312238D01*
X236773437Y-106462123D01*
X236773439Y-106462125D01*
X236962595Y-106579245D01*
X236962596Y-106579245D01*
X236962599Y-106579247D01*
X237170060Y-106659618D01*
X237388757Y-106700500D01*
X237388759Y-106700500D01*
X237611241Y-106700500D01*
X237611243Y-106700500D01*
X237829940Y-106659618D01*
X238037401Y-106579247D01*
X238226562Y-106462124D01*
X238390981Y-106312236D01*
X238525058Y-106134689D01*
X238624229Y-105935528D01*
X238685115Y-105721536D01*
X238705643Y-105500000D01*
X238705643Y-105499999D01*
X243914357Y-105499999D01*
X243914357Y-105500000D01*
X243934884Y-105721535D01*
X243934885Y-105721537D01*
X243995769Y-105935523D01*
X243995775Y-105935538D01*
X244094938Y-106134683D01*
X244094943Y-106134691D01*
X244229020Y-106312238D01*
X244393437Y-106462123D01*
X244393439Y-106462125D01*
X244582595Y-106579245D01*
X244582596Y-106579245D01*
X244582599Y-106579247D01*
X244790060Y-106659618D01*
X245008757Y-106700500D01*
X245008759Y-106700500D01*
X245231241Y-106700500D01*
X245231243Y-106700500D01*
X245449940Y-106659618D01*
X245657401Y-106579247D01*
X245846562Y-106462124D01*
X246010981Y-106312236D01*
X246145058Y-106134689D01*
X246244229Y-105935528D01*
X246305115Y-105721536D01*
X246325643Y-105500000D01*
X246305115Y-105278464D01*
X246299729Y-105259534D01*
X246300315Y-105189669D01*
X246331312Y-105137921D01*
X247308319Y-104160915D01*
X247369642Y-104127430D01*
X247439334Y-104132414D01*
X247495267Y-104174286D01*
X247519684Y-104239750D01*
X247520000Y-104248596D01*
X247520000Y-104530000D01*
X248544722Y-104530000D01*
X248500667Y-104606306D01*
X248470000Y-104720756D01*
X248470000Y-104839244D01*
X248500667Y-104953694D01*
X248544722Y-105030000D01*
X247520000Y-105030000D01*
X247520000Y-105727844D01*
X247526401Y-105787372D01*
X247526403Y-105787379D01*
X247576645Y-105922086D01*
X247576649Y-105922093D01*
X247662809Y-106037187D01*
X247662812Y-106037190D01*
X247777906Y-106123350D01*
X247777913Y-106123354D01*
X247912620Y-106173596D01*
X247912627Y-106173598D01*
X247972155Y-106179999D01*
X247972172Y-106180000D01*
X248670000Y-106180000D01*
X248670000Y-105155277D01*
X248746306Y-105199333D01*
X248860756Y-105230000D01*
X248979244Y-105230000D01*
X249093694Y-105199333D01*
X249170000Y-105155277D01*
X249170000Y-106180000D01*
X249867828Y-106180000D01*
X249867844Y-106179999D01*
X249927372Y-106173598D01*
X249927379Y-106173596D01*
X250062086Y-106123354D01*
X250062093Y-106123350D01*
X250177187Y-106037190D01*
X250177190Y-106037187D01*
X250263350Y-105922093D01*
X250263354Y-105922086D01*
X250313596Y-105787379D01*
X250313598Y-105787372D01*
X250319999Y-105727844D01*
X250320000Y-105727827D01*
X250320000Y-105030000D01*
X249295278Y-105030000D01*
X249339333Y-104953694D01*
X249370000Y-104839244D01*
X249370000Y-104720756D01*
X249339333Y-104606306D01*
X249295278Y-104530000D01*
X250320000Y-104530000D01*
X250320000Y-103832172D01*
X250319999Y-103832155D01*
X250313598Y-103772627D01*
X250313596Y-103772620D01*
X250263354Y-103637913D01*
X250263350Y-103637906D01*
X250177190Y-103522812D01*
X250177187Y-103522809D01*
X250062093Y-103436649D01*
X250062086Y-103436645D01*
X249981729Y-103406674D01*
X249925795Y-103364803D01*
X249901378Y-103299338D01*
X249916230Y-103231065D01*
X249933826Y-103206516D01*
X250028979Y-103103153D01*
X250155924Y-102908849D01*
X250249157Y-102696300D01*
X250306134Y-102471305D01*
X250306548Y-102466308D01*
X250325300Y-102240006D01*
X250325300Y-102239993D01*
X250324886Y-102234993D01*
X262594700Y-102234993D01*
X262594700Y-102235006D01*
X262613864Y-102466297D01*
X262613866Y-102466308D01*
X262670842Y-102691300D01*
X262764075Y-102903848D01*
X262891018Y-103098150D01*
X262986167Y-103201510D01*
X263017089Y-103264164D01*
X263009228Y-103333590D01*
X262965081Y-103387746D01*
X262938271Y-103401674D01*
X262857911Y-103431646D01*
X262857906Y-103431649D01*
X262742812Y-103517809D01*
X262742809Y-103517812D01*
X262656649Y-103632906D01*
X262656645Y-103632913D01*
X262606403Y-103767620D01*
X262606401Y-103767627D01*
X262600000Y-103827155D01*
X262600000Y-104525000D01*
X263624722Y-104525000D01*
X263580667Y-104601306D01*
X263550000Y-104715756D01*
X263550000Y-104834244D01*
X263580667Y-104948694D01*
X263624722Y-105025000D01*
X262600000Y-105025000D01*
X262600000Y-105722844D01*
X262606401Y-105782372D01*
X262606403Y-105782379D01*
X262656645Y-105917086D01*
X262656649Y-105917093D01*
X262742809Y-106032187D01*
X262742812Y-106032190D01*
X262857906Y-106118350D01*
X262857913Y-106118354D01*
X262992620Y-106168596D01*
X262992627Y-106168598D01*
X263052155Y-106174999D01*
X263052172Y-106175000D01*
X263750000Y-106175000D01*
X263750000Y-105150277D01*
X263826306Y-105194333D01*
X263940756Y-105225000D01*
X264059244Y-105225000D01*
X264173694Y-105194333D01*
X264250000Y-105150277D01*
X264250000Y-106175000D01*
X264947828Y-106175000D01*
X264947844Y-106174999D01*
X265007372Y-106168598D01*
X265007379Y-106168596D01*
X265142086Y-106118354D01*
X265142093Y-106118350D01*
X265257187Y-106032190D01*
X265257190Y-106032187D01*
X265343350Y-105917093D01*
X265343354Y-105917086D01*
X265393596Y-105782379D01*
X265393598Y-105782372D01*
X265399999Y-105722844D01*
X265400000Y-105722827D01*
X265400000Y-105025000D01*
X264375278Y-105025000D01*
X264419333Y-104948694D01*
X264450000Y-104834244D01*
X264450000Y-104715756D01*
X264419333Y-104601306D01*
X264375278Y-104525000D01*
X265400000Y-104525000D01*
X265400000Y-103827172D01*
X265399999Y-103827155D01*
X265393598Y-103767627D01*
X265393596Y-103767620D01*
X265343354Y-103632913D01*
X265343350Y-103632906D01*
X265257190Y-103517812D01*
X265257187Y-103517809D01*
X265142093Y-103431649D01*
X265142086Y-103431645D01*
X265061729Y-103401674D01*
X265005795Y-103359803D01*
X264981378Y-103294338D01*
X264996230Y-103226065D01*
X265013826Y-103201516D01*
X265108979Y-103098153D01*
X265235924Y-102903849D01*
X265329157Y-102691300D01*
X265386134Y-102466305D01*
X265386641Y-102460185D01*
X265405300Y-102235006D01*
X265405300Y-102234993D01*
X265386135Y-102003702D01*
X265386133Y-102003691D01*
X265329157Y-101778699D01*
X265235924Y-101566151D01*
X265108983Y-101371852D01*
X265108980Y-101371849D01*
X265108979Y-101371847D01*
X264951784Y-101201087D01*
X264951779Y-101201083D01*
X264951777Y-101201081D01*
X264768634Y-101058535D01*
X264768628Y-101058531D01*
X264564504Y-100948064D01*
X264564495Y-100948061D01*
X264344984Y-100872702D01*
X264146012Y-100839500D01*
X264116049Y-100834500D01*
X263883951Y-100834500D01*
X263853988Y-100839500D01*
X263655015Y-100872702D01*
X263435504Y-100948061D01*
X263435495Y-100948064D01*
X263231371Y-101058531D01*
X263231365Y-101058535D01*
X263048222Y-101201081D01*
X263048219Y-101201084D01*
X263048216Y-101201086D01*
X263048216Y-101201087D01*
X263002761Y-101250465D01*
X262891016Y-101371852D01*
X262764075Y-101566151D01*
X262670842Y-101778699D01*
X262613866Y-102003691D01*
X262613864Y-102003702D01*
X262594700Y-102234993D01*
X250324886Y-102234993D01*
X250306135Y-102008702D01*
X250306133Y-102008691D01*
X250249157Y-101783699D01*
X250155924Y-101571151D01*
X250028983Y-101376852D01*
X250028980Y-101376849D01*
X250028979Y-101376847D01*
X249871784Y-101206087D01*
X249871779Y-101206083D01*
X249871777Y-101206081D01*
X249688634Y-101063535D01*
X249688628Y-101063531D01*
X249484504Y-100953064D01*
X249484495Y-100953061D01*
X249264984Y-100877702D01*
X249093282Y-100849050D01*
X249036049Y-100839500D01*
X248803951Y-100839500D01*
X248758164Y-100847140D01*
X248575015Y-100877702D01*
X248355504Y-100953061D01*
X248355495Y-100953064D01*
X248151371Y-101063531D01*
X248151365Y-101063535D01*
X247968222Y-101206081D01*
X247968219Y-101206084D01*
X247811016Y-101376852D01*
X247684075Y-101571151D01*
X247590842Y-101783699D01*
X247533866Y-102008691D01*
X247533864Y-102008703D01*
X247517001Y-102212216D01*
X247491848Y-102277401D01*
X247481106Y-102289657D01*
X245479680Y-104291083D01*
X245418357Y-104324568D01*
X245369215Y-104325291D01*
X245336442Y-104319164D01*
X245231243Y-104299500D01*
X245008757Y-104299500D01*
X244790060Y-104340382D01*
X244714067Y-104369822D01*
X244582601Y-104420752D01*
X244582595Y-104420754D01*
X244393439Y-104537874D01*
X244393437Y-104537876D01*
X244229020Y-104687761D01*
X244094943Y-104865308D01*
X244094938Y-104865316D01*
X243995775Y-105064461D01*
X243995769Y-105064476D01*
X243934885Y-105278462D01*
X243934884Y-105278464D01*
X243914357Y-105499999D01*
X238705643Y-105499999D01*
X238685115Y-105278464D01*
X238624229Y-105064472D01*
X238620163Y-105056306D01*
X238525061Y-104865316D01*
X238525056Y-104865308D01*
X238390979Y-104687761D01*
X238226562Y-104537876D01*
X238226560Y-104537874D01*
X238037404Y-104420754D01*
X238037398Y-104420752D01*
X238035225Y-104419910D01*
X237829940Y-104340382D01*
X237611243Y-104299500D01*
X237388757Y-104299500D01*
X237170060Y-104340382D01*
X237094067Y-104369822D01*
X236962601Y-104420752D01*
X236962595Y-104420754D01*
X236773439Y-104537874D01*
X236773437Y-104537876D01*
X236609020Y-104687761D01*
X236474943Y-104865308D01*
X236474938Y-104865316D01*
X236375775Y-105064461D01*
X236375769Y-105064476D01*
X236314885Y-105278462D01*
X236314884Y-105278464D01*
X236294357Y-105499999D01*
X235080000Y-105499999D01*
X235080000Y-105025000D01*
X234055278Y-105025000D01*
X234099333Y-104948694D01*
X234130000Y-104834244D01*
X234130000Y-104715756D01*
X234099333Y-104601306D01*
X234055278Y-104525000D01*
X235080000Y-104525000D01*
X235080000Y-103827172D01*
X235079999Y-103827155D01*
X235073598Y-103767627D01*
X235073596Y-103767620D01*
X235023354Y-103632913D01*
X235023350Y-103632906D01*
X234937190Y-103517812D01*
X234937187Y-103517809D01*
X234822093Y-103431649D01*
X234822086Y-103431645D01*
X234741729Y-103401674D01*
X234685795Y-103359803D01*
X234661378Y-103294338D01*
X234676230Y-103226065D01*
X234693826Y-103201516D01*
X234788979Y-103098153D01*
X234915924Y-102903849D01*
X235009157Y-102691300D01*
X235066134Y-102466305D01*
X235066641Y-102460185D01*
X235085300Y-102235006D01*
X235085300Y-102234993D01*
X235066135Y-102003702D01*
X235066133Y-102003691D01*
X235009157Y-101778699D01*
X234915924Y-101566151D01*
X234788983Y-101371852D01*
X234788980Y-101371849D01*
X234788979Y-101371847D01*
X234631784Y-101201087D01*
X234631779Y-101201083D01*
X234631777Y-101201081D01*
X234448634Y-101058535D01*
X234448628Y-101058531D01*
X234244504Y-100948064D01*
X234244495Y-100948061D01*
X234024984Y-100872702D01*
X233826012Y-100839500D01*
X233796049Y-100834500D01*
X233563951Y-100834500D01*
X233533988Y-100839500D01*
X233335015Y-100872702D01*
X233115504Y-100948061D01*
X233115495Y-100948064D01*
X232911371Y-101058531D01*
X232911365Y-101058535D01*
X232728222Y-101201081D01*
X232728219Y-101201084D01*
X232728216Y-101201086D01*
X232728216Y-101201087D01*
X232682761Y-101250465D01*
X232571016Y-101371852D01*
X232444075Y-101566151D01*
X232350842Y-101778699D01*
X232293866Y-102003691D01*
X232293864Y-102003703D01*
X232285584Y-102103633D01*
X232260431Y-102168818D01*
X232249689Y-102181074D01*
X230229680Y-104201083D01*
X230168357Y-104234568D01*
X230119215Y-104235291D01*
X230053794Y-104223062D01*
X229981243Y-104209500D01*
X229758757Y-104209500D01*
X229540060Y-104250382D01*
X229492296Y-104268886D01*
X229332601Y-104330752D01*
X229332595Y-104330754D01*
X229143439Y-104447874D01*
X229143437Y-104447876D01*
X228979020Y-104597761D01*
X228844943Y-104775308D01*
X228844938Y-104775316D01*
X228745775Y-104974461D01*
X228745769Y-104974476D01*
X228684885Y-105188462D01*
X228684884Y-105188464D01*
X228664357Y-105409999D01*
X223455643Y-105409999D01*
X223435115Y-105188464D01*
X223374229Y-104974472D01*
X223361393Y-104948694D01*
X223275061Y-104775316D01*
X223275056Y-104775308D01*
X223140979Y-104597761D01*
X222988048Y-104458347D01*
X222976562Y-104447876D01*
X222909221Y-104406180D01*
X222862587Y-104354153D01*
X222850500Y-104300754D01*
X222850500Y-104268888D01*
X222850500Y-104268886D01*
X222809577Y-104116159D01*
X222764783Y-104038572D01*
X222730524Y-103979233D01*
X222730521Y-103979229D01*
X222730520Y-103979227D01*
X222618716Y-103867423D01*
X222618715Y-103867422D01*
X222614385Y-103863092D01*
X222614374Y-103863082D01*
X218719647Y-99968355D01*
X218719645Y-99968352D01*
X218600774Y-99849481D01*
X218600769Y-99849477D01*
X218517353Y-99801317D01*
X218469137Y-99750750D01*
X218456372Y-99691194D01*
X218455500Y-99691194D01*
X218455500Y-98678794D01*
X218455499Y-97664499D01*
X218475184Y-97597461D01*
X218527987Y-97551706D01*
X218579499Y-97540500D01*
X234823607Y-97540500D01*
X234890646Y-97560185D01*
X234911288Y-97576819D01*
X236548843Y-99214374D01*
X236548853Y-99214385D01*
X236553183Y-99218715D01*
X236553184Y-99218716D01*
X236664988Y-99330520D01*
X236747441Y-99378123D01*
X236751799Y-99380639D01*
X236751801Y-99380641D01*
X236789855Y-99402611D01*
X236801919Y-99409577D01*
X236954647Y-99450501D01*
X236954650Y-99450501D01*
X237120357Y-99450501D01*
X237120373Y-99450500D01*
X249129017Y-99450500D01*
X249129033Y-99450501D01*
X249136629Y-99450501D01*
X249294740Y-99450501D01*
X249294743Y-99450501D01*
X249447471Y-99409577D01*
X249497590Y-99380639D01*
X249584402Y-99330520D01*
X249696206Y-99218716D01*
X249696206Y-99218714D01*
X249706414Y-99208507D01*
X249706416Y-99208504D01*
X250414920Y-98499999D01*
X256294357Y-98499999D01*
X256294357Y-98500000D01*
X256314884Y-98721535D01*
X256314885Y-98721537D01*
X256375769Y-98935523D01*
X256375775Y-98935538D01*
X256474938Y-99134683D01*
X256474943Y-99134691D01*
X256609020Y-99312238D01*
X256773437Y-99462123D01*
X256773439Y-99462125D01*
X256962595Y-99579245D01*
X256962596Y-99579245D01*
X256962599Y-99579247D01*
X257170060Y-99659618D01*
X257388757Y-99700500D01*
X257388759Y-99700500D01*
X257611241Y-99700500D01*
X257611243Y-99700500D01*
X257829940Y-99659618D01*
X258037401Y-99579247D01*
X258226562Y-99462124D01*
X258390981Y-99312236D01*
X258525058Y-99134689D01*
X258624229Y-98935528D01*
X258685115Y-98721536D01*
X258705643Y-98500000D01*
X258685115Y-98278464D01*
X258624229Y-98064472D01*
X258624224Y-98064461D01*
X258525061Y-97865316D01*
X258525056Y-97865308D01*
X258390979Y-97687761D01*
X258226562Y-97537876D01*
X258226560Y-97537874D01*
X258037404Y-97420754D01*
X258037398Y-97420752D01*
X257829940Y-97340382D01*
X257611243Y-97299500D01*
X257388757Y-97299500D01*
X257170060Y-97340382D01*
X257086416Y-97372786D01*
X256962601Y-97420752D01*
X256962595Y-97420754D01*
X256773439Y-97537874D01*
X256773437Y-97537876D01*
X256609020Y-97687761D01*
X256474943Y-97865308D01*
X256474938Y-97865316D01*
X256375775Y-98064461D01*
X256375769Y-98064476D01*
X256314885Y-98278462D01*
X256314884Y-98278464D01*
X256294357Y-98499999D01*
X250414920Y-98499999D01*
X250529196Y-98385723D01*
X250590517Y-98352240D01*
X250606060Y-98349879D01*
X250775408Y-98335063D01*
X251003663Y-98273903D01*
X251217830Y-98174035D01*
X251411401Y-98038495D01*
X251533329Y-97916566D01*
X251594648Y-97883084D01*
X251664340Y-97888068D01*
X251720274Y-97929939D01*
X251737189Y-97960917D01*
X251786202Y-98092328D01*
X251786206Y-98092335D01*
X251872452Y-98207544D01*
X251872455Y-98207547D01*
X251987664Y-98293793D01*
X251987671Y-98293797D01*
X252122517Y-98344091D01*
X252122516Y-98344091D01*
X252129444Y-98344835D01*
X252182127Y-98350500D01*
X253977872Y-98350499D01*
X254037483Y-98344091D01*
X254172331Y-98293796D01*
X254287546Y-98207546D01*
X254373796Y-98092331D01*
X254424091Y-97957483D01*
X254430500Y-97897873D01*
X254430499Y-96102128D01*
X254424091Y-96042517D01*
X254422810Y-96039083D01*
X254373797Y-95907671D01*
X254373793Y-95907664D01*
X254287547Y-95792455D01*
X254287544Y-95792452D01*
X254172335Y-95706206D01*
X254172328Y-95706202D01*
X254037482Y-95655908D01*
X254037483Y-95655908D01*
X253977883Y-95649501D01*
X253977881Y-95649500D01*
X253977873Y-95649500D01*
X253977864Y-95649500D01*
X252182129Y-95649500D01*
X252182123Y-95649501D01*
X252122516Y-95655908D01*
X251987671Y-95706202D01*
X251987664Y-95706206D01*
X251872455Y-95792452D01*
X251872452Y-95792455D01*
X251786206Y-95907664D01*
X251786203Y-95907669D01*
X251737189Y-96039083D01*
X251695317Y-96095016D01*
X251629853Y-96119433D01*
X251561580Y-96104581D01*
X251533326Y-96083430D01*
X251411402Y-95961506D01*
X251411395Y-95961501D01*
X251217834Y-95825967D01*
X251217830Y-95825965D01*
X251153096Y-95795779D01*
X251003663Y-95726097D01*
X251003659Y-95726096D01*
X251003655Y-95726094D01*
X250775413Y-95664938D01*
X250775403Y-95664936D01*
X250540001Y-95644341D01*
X250539999Y-95644341D01*
X250304596Y-95664936D01*
X250304586Y-95664938D01*
X250076344Y-95726094D01*
X250076335Y-95726097D01*
X249965565Y-95777751D01*
X249934040Y-95792452D01*
X249926905Y-95795779D01*
X249857828Y-95806271D01*
X249794044Y-95777751D01*
X249755804Y-95719275D01*
X249750500Y-95683397D01*
X249750500Y-92610096D01*
X249770185Y-92543057D01*
X249786815Y-92522419D01*
X249984922Y-92324311D01*
X250046243Y-92290828D01*
X250104694Y-92292219D01*
X250264592Y-92335063D01*
X250441034Y-92350500D01*
X250499999Y-92355659D01*
X250500000Y-92355659D01*
X250500001Y-92355659D01*
X250558966Y-92350500D01*
X250735408Y-92335063D01*
X250963663Y-92273903D01*
X251177830Y-92174035D01*
X251371401Y-92038495D01*
X251493329Y-91916566D01*
X251554648Y-91883084D01*
X251624340Y-91888068D01*
X251680274Y-91929939D01*
X251697189Y-91960917D01*
X251746202Y-92092328D01*
X251746206Y-92092335D01*
X251832452Y-92207544D01*
X251832455Y-92207547D01*
X251947664Y-92293793D01*
X251947671Y-92293797D01*
X252082517Y-92344091D01*
X252082516Y-92344091D01*
X252089444Y-92344835D01*
X252142127Y-92350500D01*
X253937872Y-92350499D01*
X253997483Y-92344091D01*
X254132331Y-92293796D01*
X254247546Y-92207546D01*
X254333796Y-92092331D01*
X254384091Y-91957483D01*
X254390500Y-91897873D01*
X254390499Y-90102128D01*
X254384091Y-90042517D01*
X254382810Y-90039083D01*
X254333797Y-89907671D01*
X254333793Y-89907664D01*
X254247547Y-89792455D01*
X254247544Y-89792452D01*
X254132335Y-89706206D01*
X254132328Y-89706202D01*
X253997482Y-89655908D01*
X253997483Y-89655908D01*
X253937883Y-89649501D01*
X253937881Y-89649500D01*
X253937873Y-89649500D01*
X253937864Y-89649500D01*
X252142129Y-89649500D01*
X252142123Y-89649501D01*
X252082516Y-89655908D01*
X251947671Y-89706202D01*
X251947664Y-89706206D01*
X251832455Y-89792452D01*
X251832452Y-89792455D01*
X251746206Y-89907664D01*
X251746203Y-89907669D01*
X251697189Y-90039083D01*
X251655317Y-90095016D01*
X251589853Y-90119433D01*
X251521580Y-90104581D01*
X251493326Y-90083430D01*
X251371402Y-89961506D01*
X251371395Y-89961501D01*
X251177834Y-89825967D01*
X251177830Y-89825965D01*
X251123220Y-89800500D01*
X250963663Y-89726097D01*
X250963659Y-89726096D01*
X250963655Y-89726094D01*
X250735413Y-89664938D01*
X250735403Y-89664936D01*
X250500001Y-89644341D01*
X250499999Y-89644341D01*
X250264596Y-89664936D01*
X250264586Y-89664938D01*
X250036344Y-89726094D01*
X250036335Y-89726098D01*
X249822171Y-89825964D01*
X249822169Y-89825965D01*
X249628597Y-89961505D01*
X249461505Y-90128597D01*
X249331575Y-90314158D01*
X249276998Y-90357783D01*
X249207500Y-90364977D01*
X249145145Y-90333454D01*
X249128425Y-90314158D01*
X248998494Y-90128597D01*
X248831402Y-89961506D01*
X248831395Y-89961501D01*
X248637834Y-89825967D01*
X248637830Y-89825965D01*
X248583220Y-89800500D01*
X248423663Y-89726097D01*
X248423659Y-89726096D01*
X248423655Y-89726094D01*
X248195413Y-89664938D01*
X248195403Y-89664936D01*
X247960001Y-89644341D01*
X247959999Y-89644341D01*
X247724596Y-89664936D01*
X247724586Y-89664938D01*
X247496344Y-89726094D01*
X247496335Y-89726098D01*
X247282171Y-89825964D01*
X247282169Y-89825965D01*
X247088597Y-89961505D01*
X246921505Y-90128597D01*
X246791575Y-90314158D01*
X246736998Y-90357783D01*
X246667500Y-90364977D01*
X246605145Y-90333454D01*
X246588425Y-90314158D01*
X246458494Y-90128597D01*
X246291402Y-89961506D01*
X246291395Y-89961501D01*
X246097834Y-89825967D01*
X246097830Y-89825965D01*
X246043220Y-89800500D01*
X245883663Y-89726097D01*
X245883659Y-89726096D01*
X245883655Y-89726094D01*
X245655413Y-89664938D01*
X245655403Y-89664936D01*
X245420001Y-89644341D01*
X245419999Y-89644341D01*
X245184596Y-89664936D01*
X245184586Y-89664938D01*
X244956344Y-89726094D01*
X244956335Y-89726098D01*
X244742171Y-89825964D01*
X244742169Y-89825965D01*
X244548597Y-89961505D01*
X244381505Y-90128597D01*
X244251575Y-90314158D01*
X244196998Y-90357783D01*
X244127500Y-90364977D01*
X244065145Y-90333454D01*
X244048425Y-90314158D01*
X243918494Y-90128597D01*
X243751402Y-89961506D01*
X243751395Y-89961501D01*
X243557834Y-89825967D01*
X243557830Y-89825965D01*
X243503220Y-89800500D01*
X243343663Y-89726097D01*
X243343659Y-89726096D01*
X243343655Y-89726094D01*
X243115413Y-89664938D01*
X243115403Y-89664936D01*
X242880001Y-89644341D01*
X242879999Y-89644341D01*
X242644596Y-89664936D01*
X242644586Y-89664938D01*
X242416344Y-89726094D01*
X242416335Y-89726098D01*
X242202171Y-89825964D01*
X242202169Y-89825965D01*
X242008597Y-89961505D01*
X241841505Y-90128597D01*
X241711575Y-90314158D01*
X241656998Y-90357783D01*
X241587500Y-90364977D01*
X241525145Y-90333454D01*
X241508425Y-90314158D01*
X241378494Y-90128597D01*
X241211402Y-89961506D01*
X241211395Y-89961501D01*
X241017834Y-89825967D01*
X241017830Y-89825965D01*
X240963220Y-89800500D01*
X240803663Y-89726097D01*
X240803659Y-89726096D01*
X240803655Y-89726094D01*
X240575413Y-89664938D01*
X240575403Y-89664936D01*
X240340001Y-89644341D01*
X240339999Y-89644341D01*
X240104596Y-89664936D01*
X240104586Y-89664938D01*
X239876344Y-89726094D01*
X239876335Y-89726098D01*
X239662171Y-89825964D01*
X239662169Y-89825965D01*
X239468597Y-89961505D01*
X239301508Y-90128594D01*
X239171269Y-90314595D01*
X239116692Y-90358219D01*
X239047193Y-90365412D01*
X238984839Y-90333890D01*
X238968119Y-90314594D01*
X238838113Y-90128926D01*
X238838108Y-90128920D01*
X238671082Y-89961894D01*
X238477578Y-89826399D01*
X238263492Y-89726570D01*
X238263486Y-89726567D01*
X238050000Y-89669364D01*
X238050000Y-90566988D01*
X237992993Y-90534075D01*
X237865826Y-90500000D01*
X237734174Y-90500000D01*
X237607007Y-90534075D01*
X237550000Y-90566988D01*
X237550000Y-89669364D01*
X237549999Y-89669364D01*
X237336513Y-89726567D01*
X237336507Y-89726570D01*
X237122422Y-89826399D01*
X237122420Y-89826400D01*
X236928926Y-89961886D01*
X236928920Y-89961891D01*
X236761891Y-90128920D01*
X236761886Y-90128926D01*
X236626400Y-90322420D01*
X236626399Y-90322422D01*
X236526570Y-90536507D01*
X236526567Y-90536513D01*
X236469364Y-90749999D01*
X236469364Y-90750000D01*
X237366988Y-90750000D01*
X237334075Y-90807007D01*
X237300000Y-90934174D01*
X237300000Y-91065826D01*
X237334075Y-91192993D01*
X237366988Y-91250000D01*
X236469364Y-91250000D01*
X236526567Y-91463486D01*
X236526570Y-91463492D01*
X236624309Y-91673095D01*
X236634801Y-91742173D01*
X236606281Y-91805957D01*
X236547805Y-91844196D01*
X236511927Y-91849500D01*
X236300097Y-91849500D01*
X236233058Y-91829815D01*
X236212416Y-91813181D01*
X236037590Y-91638355D01*
X236037588Y-91638352D01*
X235918717Y-91519481D01*
X235918709Y-91519475D01*
X235816936Y-91460717D01*
X235816934Y-91460716D01*
X235781790Y-91440425D01*
X235781789Y-91440424D01*
X235747510Y-91431239D01*
X235629057Y-91399499D01*
X235470943Y-91399499D01*
X235463347Y-91399499D01*
X235463331Y-91399500D01*
X218579500Y-91399500D01*
X218512461Y-91379815D01*
X218466706Y-91327011D01*
X218455500Y-91275500D01*
X218455500Y-90317648D01*
X218423477Y-90115465D01*
X218379720Y-89980795D01*
X218360220Y-89920781D01*
X218360218Y-89920778D01*
X218360218Y-89920776D01*
X218311908Y-89825964D01*
X218267287Y-89738390D01*
X218243901Y-89706202D01*
X218146971Y-89572786D01*
X218002213Y-89428028D01*
X217836613Y-89307715D01*
X217836612Y-89307714D01*
X217836610Y-89307713D01*
X217744983Y-89261026D01*
X217693874Y-89234985D01*
X217643078Y-89187010D01*
X217626283Y-89119189D01*
X217648821Y-89053054D01*
X217703536Y-89009603D01*
X217750169Y-89000500D01*
X268943000Y-89000500D01*
X269010039Y-89020185D01*
X269055794Y-89072989D01*
X269067000Y-89124500D01*
X269067000Y-106875500D01*
X269047315Y-106942539D01*
X268994511Y-106988294D01*
X268943000Y-106999500D01*
X258589211Y-106999500D01*
X258522172Y-106979815D01*
X258476417Y-106927011D01*
X258466473Y-106857853D01*
X258490257Y-106800773D01*
X258525056Y-106754691D01*
X258525058Y-106754689D01*
X258624229Y-106555528D01*
X258685115Y-106341536D01*
X258705643Y-106120000D01*
X258705490Y-106118354D01*
X258685115Y-105898464D01*
X258685114Y-105898462D01*
X258653508Y-105787379D01*
X258624229Y-105684472D01*
X258618558Y-105673083D01*
X258525061Y-105485316D01*
X258525056Y-105485308D01*
X258390979Y-105307761D01*
X258226562Y-105157876D01*
X258226560Y-105157874D01*
X258037404Y-105040754D01*
X258037398Y-105040752D01*
X258009644Y-105030000D01*
X257829940Y-104960382D01*
X257611243Y-104919500D01*
X257388757Y-104919500D01*
X257170060Y-104960382D01*
X257038864Y-105011207D01*
X256962601Y-105040752D01*
X256962595Y-105040754D01*
X256773439Y-105157874D01*
X256773437Y-105157876D01*
X256609020Y-105307761D01*
X256474943Y-105485308D01*
X256474938Y-105485316D01*
X256375775Y-105684461D01*
X256375769Y-105684476D01*
X256314885Y-105898462D01*
X256314884Y-105898464D01*
X256294357Y-106119999D01*
X256294357Y-106120000D01*
X256314884Y-106341535D01*
X256314885Y-106341537D01*
X256375769Y-106555523D01*
X256375775Y-106555538D01*
X256474938Y-106754683D01*
X256474943Y-106754691D01*
X256509743Y-106800773D01*
X256534435Y-106866134D01*
X256519870Y-106934469D01*
X256470673Y-106984082D01*
X256410789Y-106999500D01*
X93557000Y-106999500D01*
X93489961Y-106979815D01*
X93444206Y-106927011D01*
X93433000Y-106875500D01*
X93433000Y-102239993D01*
X95114700Y-102239993D01*
X95114700Y-102240006D01*
X95133864Y-102471297D01*
X95133866Y-102471308D01*
X95190842Y-102696300D01*
X95284075Y-102908848D01*
X95411018Y-103103150D01*
X95506167Y-103206510D01*
X95537089Y-103269164D01*
X95529228Y-103338590D01*
X95485081Y-103392746D01*
X95458271Y-103406674D01*
X95377911Y-103436646D01*
X95377906Y-103436649D01*
X95262812Y-103522809D01*
X95262809Y-103522812D01*
X95176649Y-103637906D01*
X95176645Y-103637913D01*
X95126403Y-103772620D01*
X95126401Y-103772627D01*
X95120000Y-103832155D01*
X95120000Y-104530000D01*
X96144722Y-104530000D01*
X96100667Y-104606306D01*
X96070000Y-104720756D01*
X96070000Y-104839244D01*
X96100667Y-104953694D01*
X96144722Y-105030000D01*
X95120000Y-105030000D01*
X95120000Y-105727844D01*
X95126401Y-105787372D01*
X95126403Y-105787379D01*
X95176645Y-105922086D01*
X95176649Y-105922093D01*
X95262809Y-106037187D01*
X95262812Y-106037190D01*
X95377906Y-106123350D01*
X95377913Y-106123354D01*
X95512620Y-106173596D01*
X95512627Y-106173598D01*
X95572155Y-106179999D01*
X95572172Y-106180000D01*
X96270000Y-106180000D01*
X96270000Y-105155277D01*
X96346306Y-105199333D01*
X96460756Y-105230000D01*
X96579244Y-105230000D01*
X96693694Y-105199333D01*
X96770000Y-105155277D01*
X96770000Y-106180000D01*
X97467828Y-106180000D01*
X97467844Y-106179999D01*
X97527372Y-106173598D01*
X97527379Y-106173596D01*
X97662086Y-106123354D01*
X97662093Y-106123350D01*
X97777187Y-106037190D01*
X97777190Y-106037187D01*
X97863350Y-105922093D01*
X97863354Y-105922086D01*
X97913596Y-105787379D01*
X97913598Y-105787372D01*
X97919999Y-105727844D01*
X97920000Y-105727827D01*
X97920000Y-105030000D01*
X96895278Y-105030000D01*
X96939333Y-104953694D01*
X96970000Y-104839244D01*
X96970000Y-104720756D01*
X96939333Y-104606306D01*
X96895278Y-104530000D01*
X97920000Y-104530000D01*
X97920000Y-103832172D01*
X97919999Y-103832155D01*
X97913598Y-103772627D01*
X97913596Y-103772620D01*
X97863354Y-103637913D01*
X97863350Y-103637906D01*
X97777190Y-103522812D01*
X97777187Y-103522809D01*
X97662093Y-103436649D01*
X97662086Y-103436645D01*
X97581729Y-103406674D01*
X97525795Y-103364803D01*
X97501378Y-103299338D01*
X97516230Y-103231065D01*
X97533826Y-103206516D01*
X97628979Y-103103153D01*
X97755924Y-102908849D01*
X97849157Y-102696300D01*
X97906134Y-102471305D01*
X97906548Y-102466308D01*
X97925300Y-102240006D01*
X97925300Y-102239993D01*
X97906135Y-102008702D01*
X97906132Y-102008686D01*
X97871515Y-101871992D01*
X97867741Y-101857088D01*
X97870365Y-101787270D01*
X97900263Y-101738970D01*
X100640319Y-98998914D01*
X100701640Y-98965431D01*
X100750783Y-98964708D01*
X100888757Y-98990500D01*
X100888759Y-98990500D01*
X101111241Y-98990500D01*
X101111243Y-98990500D01*
X101329940Y-98949618D01*
X101537401Y-98869247D01*
X101726562Y-98752124D01*
X101890981Y-98602236D01*
X102025058Y-98424689D01*
X102124229Y-98225528D01*
X102185115Y-98011536D01*
X102205643Y-97790000D01*
X102197620Y-97703422D01*
X102185115Y-97568464D01*
X102185114Y-97568462D01*
X102184780Y-97567289D01*
X102124229Y-97354472D01*
X102103338Y-97312517D01*
X102025061Y-97155316D01*
X102025056Y-97155308D01*
X101890979Y-96977761D01*
X101726562Y-96827876D01*
X101726560Y-96827874D01*
X101537404Y-96710754D01*
X101537398Y-96710752D01*
X101526624Y-96706578D01*
X101329940Y-96630382D01*
X101111243Y-96589500D01*
X100888757Y-96589500D01*
X100670060Y-96630382D01*
X100595329Y-96659333D01*
X100462601Y-96710752D01*
X100462595Y-96710754D01*
X100273439Y-96827874D01*
X100273437Y-96827876D01*
X100109020Y-96977761D01*
X99974943Y-97155308D01*
X99974938Y-97155316D01*
X99875775Y-97354461D01*
X99875769Y-97354476D01*
X99814885Y-97568462D01*
X99814884Y-97568464D01*
X99794357Y-97789999D01*
X99794357Y-97790000D01*
X99814885Y-98011537D01*
X99820270Y-98030463D01*
X99819683Y-98100330D01*
X99788685Y-98152078D01*
X97067173Y-100873590D01*
X97005850Y-100907075D01*
X96939230Y-100903191D01*
X96864981Y-100877701D01*
X96668786Y-100844963D01*
X96636049Y-100839500D01*
X96403951Y-100839500D01*
X96358164Y-100847140D01*
X96175015Y-100877702D01*
X95955504Y-100953061D01*
X95955495Y-100953064D01*
X95751371Y-101063531D01*
X95751365Y-101063535D01*
X95568222Y-101206081D01*
X95568219Y-101206084D01*
X95411016Y-101376852D01*
X95284075Y-101571151D01*
X95190842Y-101783699D01*
X95133866Y-102008691D01*
X95133864Y-102008702D01*
X95114700Y-102239993D01*
X93433000Y-102239993D01*
X93433000Y-92999996D01*
X94645170Y-92999996D01*
X94645170Y-93000003D01*
X94664473Y-93331426D01*
X94664474Y-93331437D01*
X94722118Y-93658351D01*
X94722121Y-93658365D01*
X94817336Y-93976408D01*
X94948827Y-94281236D01*
X94948833Y-94281249D01*
X95114824Y-94568756D01*
X95312358Y-94834088D01*
X96384729Y-93761717D01*
X96470278Y-93879466D01*
X96620534Y-94029722D01*
X96738281Y-94115270D01*
X95669289Y-95184261D01*
X95669290Y-95184262D01*
X95795210Y-95289922D01*
X96072588Y-95472356D01*
X96369252Y-95621347D01*
X96369258Y-95621350D01*
X96681213Y-95734892D01*
X96681234Y-95734899D01*
X97004248Y-95811456D01*
X97004263Y-95811458D01*
X97334012Y-95849999D01*
X97334013Y-95850000D01*
X97665987Y-95850000D01*
X97665987Y-95849999D01*
X97995736Y-95811458D01*
X97995751Y-95811456D01*
X98318765Y-95734899D01*
X98318786Y-95734892D01*
X98630741Y-95621350D01*
X98630747Y-95621347D01*
X98927411Y-95472356D01*
X99204783Y-95289926D01*
X99204785Y-95289925D01*
X99330708Y-95184262D01*
X99330709Y-95184261D01*
X98261718Y-94115270D01*
X98379466Y-94029722D01*
X98529722Y-93879466D01*
X98615270Y-93761718D01*
X99687640Y-94834088D01*
X99885175Y-94568756D01*
X100051166Y-94281249D01*
X100051172Y-94281236D01*
X100182663Y-93976408D01*
X100277878Y-93658365D01*
X100277881Y-93658351D01*
X100335525Y-93331437D01*
X100335526Y-93331426D01*
X100354830Y-93000003D01*
X100354830Y-92999996D01*
X100335526Y-92668573D01*
X100335525Y-92668562D01*
X100277881Y-92341648D01*
X100277878Y-92341634D01*
X100182663Y-92023591D01*
X100051172Y-91718763D01*
X100051166Y-91718750D01*
X99885175Y-91431243D01*
X99687640Y-91165910D01*
X98615270Y-92238281D01*
X98529722Y-92120534D01*
X98379466Y-91970278D01*
X98261716Y-91884728D01*
X99330709Y-90815737D01*
X99330708Y-90815736D01*
X99204789Y-90710077D01*
X98927411Y-90527643D01*
X98630747Y-90378652D01*
X98630741Y-90378649D01*
X98318786Y-90265107D01*
X98318765Y-90265100D01*
X97995751Y-90188543D01*
X97995736Y-90188541D01*
X97665987Y-90150000D01*
X97334013Y-90150000D01*
X97004263Y-90188541D01*
X97004248Y-90188543D01*
X96681234Y-90265100D01*
X96681213Y-90265107D01*
X96369258Y-90378649D01*
X96369252Y-90378652D01*
X96072588Y-90527643D01*
X95795215Y-90710074D01*
X95669290Y-90815736D01*
X95669289Y-90815737D01*
X96738281Y-91884729D01*
X96620534Y-91970278D01*
X96470278Y-92120534D01*
X96384729Y-92238281D01*
X95312358Y-91165910D01*
X95312357Y-91165910D01*
X95114827Y-91431239D01*
X94948833Y-91718750D01*
X94948827Y-91718763D01*
X94817336Y-92023591D01*
X94722121Y-92341634D01*
X94722118Y-92341648D01*
X94664474Y-92668562D01*
X94664473Y-92668573D01*
X94645170Y-92999996D01*
X93433000Y-92999996D01*
X93433000Y-89124500D01*
X93452685Y-89057461D01*
X93505489Y-89011706D01*
X93557000Y-89000500D01*
X157630267Y-89000500D01*
X157697306Y-89020185D01*
G37*
%TD.AperFunction*%
%TA.AperFunction,Conductor*%
G36*
X198105229Y-89820185D02*
G01*
X198150984Y-89872989D01*
X198160928Y-89942147D01*
X198156121Y-89962818D01*
X198106523Y-90115461D01*
X198106523Y-90115464D01*
X198074500Y-90317648D01*
X198074500Y-91322351D01*
X198106522Y-91524534D01*
X198169781Y-91719223D01*
X198233459Y-91844196D01*
X198260808Y-91897872D01*
X198262715Y-91901613D01*
X198383028Y-92067213D01*
X198527786Y-92211971D01*
X198653769Y-92303501D01*
X198693390Y-92332287D01*
X198800896Y-92387064D01*
X198875776Y-92425218D01*
X198875778Y-92425218D01*
X198875781Y-92425220D01*
X198917681Y-92438834D01*
X199070465Y-92488477D01*
X199112224Y-92495091D01*
X199272648Y-92520500D01*
X199272649Y-92520500D01*
X199477351Y-92520500D01*
X199477352Y-92520500D01*
X199679534Y-92488477D01*
X199874219Y-92425220D01*
X199964043Y-92379451D01*
X200032712Y-92366555D01*
X200097453Y-92392831D01*
X200108020Y-92402255D01*
X203833584Y-96127819D01*
X203867069Y-96189142D01*
X203862085Y-96258834D01*
X203820213Y-96314767D01*
X203754749Y-96339184D01*
X203745903Y-96339500D01*
X201538422Y-96339500D01*
X201380307Y-96339500D01*
X201227580Y-96380423D01*
X201227579Y-96380423D01*
X201227577Y-96380424D01*
X201227574Y-96380425D01*
X201177461Y-96409359D01*
X201177460Y-96409360D01*
X201149153Y-96425703D01*
X201090650Y-96459479D01*
X201090647Y-96459481D01*
X200978843Y-96571286D01*
X200449484Y-97100644D01*
X200388161Y-97134129D01*
X200318469Y-97129145D01*
X200274122Y-97100644D01*
X200221895Y-97048417D01*
X200056349Y-96928140D01*
X199874029Y-96835244D01*
X199679413Y-96772009D01*
X199625000Y-96763390D01*
X199625000Y-98124314D01*
X199620606Y-98119920D01*
X199529394Y-98067259D01*
X199427661Y-98040000D01*
X199322339Y-98040000D01*
X199220606Y-98067259D01*
X199129394Y-98119920D01*
X199125000Y-98124314D01*
X199125000Y-96763390D01*
X199070586Y-96772009D01*
X198875970Y-96835244D01*
X198693650Y-96928140D01*
X198528105Y-97048417D01*
X198528104Y-97048417D01*
X198383417Y-97193104D01*
X198383417Y-97193105D01*
X198263140Y-97358650D01*
X198170244Y-97540968D01*
X198107009Y-97735582D01*
X198075000Y-97937682D01*
X198075000Y-98190000D01*
X199059314Y-98190000D01*
X199054920Y-98194394D01*
X199002259Y-98285606D01*
X198975000Y-98387339D01*
X198975000Y-98492661D01*
X199002259Y-98594394D01*
X199054920Y-98685606D01*
X199059314Y-98690000D01*
X198075000Y-98690000D01*
X198075000Y-98942317D01*
X198107009Y-99144417D01*
X198170245Y-99339034D01*
X198231476Y-99459206D01*
X198244372Y-99527875D01*
X198218095Y-99592615D01*
X198160989Y-99632872D01*
X198120991Y-99639500D01*
X196280883Y-99639500D01*
X196213844Y-99619815D01*
X196193202Y-99603181D01*
X195578810Y-98988789D01*
X195545325Y-98927466D01*
X195550309Y-98857774D01*
X195592181Y-98801841D01*
X195601201Y-98795688D01*
X195671562Y-98752124D01*
X195835981Y-98602236D01*
X195970058Y-98424689D01*
X196069229Y-98225528D01*
X196130115Y-98011536D01*
X196150643Y-97790000D01*
X196142620Y-97703422D01*
X196130115Y-97568464D01*
X196130114Y-97568462D01*
X196129780Y-97567289D01*
X196069229Y-97354472D01*
X196048338Y-97312517D01*
X195970061Y-97155316D01*
X195970056Y-97155308D01*
X195835979Y-96977761D01*
X195671562Y-96827876D01*
X195671560Y-96827874D01*
X195482404Y-96710754D01*
X195482398Y-96710752D01*
X195471624Y-96706578D01*
X195274940Y-96630382D01*
X195056243Y-96589500D01*
X194833757Y-96589500D01*
X194615060Y-96630382D01*
X194540329Y-96659333D01*
X194407601Y-96710752D01*
X194407595Y-96710754D01*
X194218439Y-96827874D01*
X194218437Y-96827876D01*
X194054019Y-96977762D01*
X194050158Y-96981999D01*
X194049063Y-96981000D01*
X193998654Y-97018391D01*
X193928941Y-97023069D01*
X193868152Y-96989702D01*
X193773716Y-96895266D01*
X193773715Y-96895265D01*
X193769385Y-96890935D01*
X193769374Y-96890925D01*
X191416804Y-94538355D01*
X191416802Y-94538352D01*
X191297931Y-94419481D01*
X191297923Y-94419475D01*
X191210003Y-94368715D01*
X191210002Y-94368715D01*
X191189291Y-94356757D01*
X191160999Y-94340423D01*
X191008271Y-94299499D01*
X190883312Y-94299499D01*
X190816273Y-94279814D01*
X190770518Y-94227010D01*
X190760574Y-94157852D01*
X190789599Y-94094296D01*
X190795613Y-94087836D01*
X190858509Y-94024939D01*
X190858514Y-94024936D01*
X190868714Y-94014735D01*
X190868716Y-94014735D01*
X190980520Y-93902931D01*
X191040491Y-93799057D01*
X191059577Y-93766000D01*
X191100500Y-93613273D01*
X191100500Y-93455158D01*
X191100500Y-92089060D01*
X191100501Y-92089047D01*
X191100501Y-91920944D01*
X191095321Y-91901613D01*
X191059577Y-91768216D01*
X191059573Y-91768209D01*
X190980524Y-91631290D01*
X190980518Y-91631282D01*
X190330700Y-90981465D01*
X190297215Y-90920142D01*
X190295163Y-90907686D01*
X190285368Y-90820745D01*
X190225789Y-90650478D01*
X190129816Y-90497738D01*
X190002262Y-90370184D01*
X189978630Y-90355335D01*
X189849523Y-90274211D01*
X189679254Y-90214631D01*
X189679249Y-90214630D01*
X189500004Y-90194435D01*
X189499996Y-90194435D01*
X189320750Y-90214630D01*
X189320745Y-90214631D01*
X189150476Y-90274211D01*
X188997737Y-90370184D01*
X188870184Y-90497737D01*
X188774211Y-90650476D01*
X188714631Y-90820745D01*
X188714630Y-90820750D01*
X188694435Y-90999996D01*
X188694435Y-91000000D01*
X188711657Y-91152863D01*
X188699602Y-91221685D01*
X188654410Y-91271739D01*
X188497739Y-91370182D01*
X188370184Y-91497737D01*
X188274211Y-91650476D01*
X188214631Y-91820745D01*
X188214630Y-91820750D01*
X188194435Y-91999996D01*
X188194435Y-92000003D01*
X188214630Y-92179249D01*
X188214632Y-92179257D01*
X188233690Y-92233722D01*
X188237251Y-92303501D01*
X188202522Y-92364128D01*
X188157609Y-92391715D01*
X188150481Y-92394209D01*
X188150475Y-92394212D01*
X187997736Y-92490185D01*
X187994903Y-92492445D01*
X187992724Y-92493334D01*
X187991842Y-92493889D01*
X187991744Y-92493734D01*
X187930217Y-92518855D01*
X187917588Y-92519500D01*
X174994047Y-92519500D01*
X174927008Y-92499815D01*
X174881253Y-92447011D01*
X174871309Y-92377853D01*
X174900334Y-92314297D01*
X174906366Y-92307819D01*
X174932175Y-92282010D01*
X174966966Y-92247219D01*
X174966968Y-92247215D01*
X174966971Y-92247213D01*
X175059007Y-92120534D01*
X175087287Y-92081610D01*
X175180220Y-91899219D01*
X175243477Y-91704534D01*
X175275500Y-91502352D01*
X175275500Y-90497648D01*
X175253347Y-90357783D01*
X175243477Y-90295465D01*
X175189363Y-90128920D01*
X175180220Y-90100781D01*
X175180218Y-90100778D01*
X175180218Y-90100776D01*
X175119084Y-89980795D01*
X175106188Y-89912126D01*
X175132464Y-89847385D01*
X175189571Y-89807128D01*
X175229569Y-89800500D01*
X198038190Y-89800500D01*
X198105229Y-89820185D01*
G37*
%TD.AperFunction*%
%TD*%
%TA.AperFunction,Conductor*%
%TO.N,GND*%
G36*
X266942539Y-23020185D02*
G01*
X266988294Y-23072989D01*
X266999500Y-23124500D01*
X266999500Y-70375500D01*
X266979815Y-70442539D01*
X266927011Y-70488294D01*
X266875500Y-70499500D01*
X213624500Y-70499500D01*
X213557461Y-70479815D01*
X213511706Y-70427011D01*
X213500500Y-70375500D01*
X213500500Y-29750000D01*
X213823505Y-29750000D01*
X213876239Y-29935349D01*
X213975368Y-30134425D01*
X214109391Y-30311900D01*
X214273738Y-30461721D01*
X214462820Y-30578797D01*
X214462822Y-30578798D01*
X214670195Y-30659135D01*
X214750000Y-30674052D01*
X214750000Y-29750000D01*
X213823505Y-29750000D01*
X213500500Y-29750000D01*
X213500500Y-27427268D01*
X213520185Y-27360229D01*
X213572989Y-27314474D01*
X213642147Y-27304530D01*
X213705703Y-27333555D01*
X213743477Y-27392333D01*
X213743766Y-27393334D01*
X213755769Y-27435523D01*
X213755775Y-27435538D01*
X213854938Y-27634683D01*
X213854943Y-27634691D01*
X213989020Y-27812238D01*
X214153437Y-27962123D01*
X214153439Y-27962125D01*
X214342595Y-28079245D01*
X214342597Y-28079246D01*
X214342599Y-28079247D01*
X214545587Y-28157885D01*
X214600988Y-28200457D01*
X214624579Y-28266223D01*
X214608868Y-28334304D01*
X214558844Y-28383083D01*
X214545588Y-28389137D01*
X214462828Y-28421198D01*
X214462820Y-28421202D01*
X214273738Y-28538278D01*
X214109391Y-28688099D01*
X213975368Y-28865574D01*
X213876239Y-29064650D01*
X213823505Y-29250000D01*
X214755025Y-29250000D01*
X214719930Y-29285095D01*
X214673852Y-29364905D01*
X214650000Y-29453922D01*
X214650000Y-29546078D01*
X214673852Y-29635095D01*
X214719930Y-29714905D01*
X214785095Y-29780070D01*
X214864905Y-29826148D01*
X214953922Y-29850000D01*
X215046078Y-29850000D01*
X215135095Y-29826148D01*
X215214905Y-29780070D01*
X215250000Y-29744975D01*
X215250000Y-30674052D01*
X215329804Y-30659135D01*
X215537177Y-30578798D01*
X215537179Y-30578797D01*
X215726261Y-30461721D01*
X215890608Y-30311900D01*
X216024633Y-30134423D01*
X216064500Y-30054360D01*
X216112003Y-30003122D01*
X216179666Y-29985701D01*
X216246006Y-30007626D01*
X216289961Y-30061938D01*
X216299500Y-30109631D01*
X216299500Y-59785014D01*
X216299499Y-59785029D01*
X216299499Y-59970520D01*
X216310538Y-60040215D01*
X216310538Y-60040216D01*
X216327829Y-60149386D01*
X216383787Y-60321612D01*
X216383788Y-60321615D01*
X216466006Y-60482973D01*
X216572440Y-60629469D01*
X216572444Y-60629473D01*
X216572447Y-60629477D01*
X216678151Y-60735181D01*
X216704829Y-60761859D01*
X216704840Y-60761869D01*
X222439339Y-66496367D01*
X222439366Y-66496396D01*
X222442470Y-66499500D01*
X222442471Y-66499501D01*
X222570523Y-66627553D01*
X222570526Y-66627555D01*
X222570530Y-66627559D01*
X222703388Y-66724084D01*
X222717030Y-66733996D01*
X222819842Y-66786381D01*
X222878380Y-66816209D01*
X222878382Y-66816209D01*
X222878385Y-66816211D01*
X222970704Y-66846207D01*
X223050614Y-66872172D01*
X223229473Y-66900501D01*
X223229478Y-66900501D01*
X223415682Y-66900501D01*
X223415706Y-66900500D01*
X224686309Y-66900500D01*
X224753348Y-66920185D01*
X224799103Y-66972989D01*
X224809047Y-67042147D01*
X224780022Y-67105703D01*
X224721244Y-67143477D01*
X224718402Y-67144275D01*
X224506344Y-67201094D01*
X224506335Y-67201098D01*
X224292171Y-67300964D01*
X224292169Y-67300965D01*
X224098597Y-67436505D01*
X223931505Y-67603597D01*
X223801575Y-67789158D01*
X223746998Y-67832783D01*
X223677500Y-67839977D01*
X223615145Y-67808454D01*
X223598425Y-67789158D01*
X223468494Y-67603597D01*
X223301402Y-67436506D01*
X223301395Y-67436501D01*
X223107834Y-67300967D01*
X223107830Y-67300965D01*
X223043540Y-67270986D01*
X222893663Y-67201097D01*
X222893659Y-67201096D01*
X222893655Y-67201094D01*
X222665413Y-67139938D01*
X222665403Y-67139936D01*
X222430001Y-67119341D01*
X222429999Y-67119341D01*
X222194596Y-67139936D01*
X222194586Y-67139938D01*
X221966344Y-67201094D01*
X221966335Y-67201098D01*
X221752171Y-67300964D01*
X221752169Y-67300965D01*
X221558597Y-67436505D01*
X221391505Y-67603597D01*
X221261575Y-67789158D01*
X221206998Y-67832783D01*
X221137500Y-67839977D01*
X221075145Y-67808454D01*
X221058425Y-67789158D01*
X220928494Y-67603597D01*
X220761402Y-67436506D01*
X220761395Y-67436501D01*
X220567834Y-67300967D01*
X220567830Y-67300965D01*
X220503540Y-67270986D01*
X220353663Y-67201097D01*
X220353659Y-67201096D01*
X220353655Y-67201094D01*
X220125413Y-67139938D01*
X220125403Y-67139936D01*
X219890001Y-67119341D01*
X219889999Y-67119341D01*
X219654596Y-67139936D01*
X219654586Y-67139938D01*
X219426344Y-67201094D01*
X219426335Y-67201098D01*
X219212171Y-67300964D01*
X219212169Y-67300965D01*
X219018597Y-67436505D01*
X218851505Y-67603597D01*
X218715965Y-67797169D01*
X218715964Y-67797171D01*
X218616098Y-68011335D01*
X218616094Y-68011344D01*
X218554938Y-68239586D01*
X218554936Y-68239596D01*
X218534341Y-68474999D01*
X218534341Y-68475000D01*
X218554936Y-68710403D01*
X218554938Y-68710413D01*
X218616094Y-68938655D01*
X218616096Y-68938659D01*
X218616097Y-68938663D01*
X218644699Y-69000000D01*
X218715965Y-69152830D01*
X218715967Y-69152834D01*
X218738774Y-69185405D01*
X218851505Y-69346401D01*
X219018599Y-69513495D01*
X219115384Y-69581265D01*
X219212165Y-69649032D01*
X219212167Y-69649033D01*
X219212170Y-69649035D01*
X219426337Y-69748903D01*
X219654592Y-69810063D01*
X219831034Y-69825500D01*
X219889999Y-69830659D01*
X219890000Y-69830659D01*
X219890001Y-69830659D01*
X219948966Y-69825500D01*
X220125408Y-69810063D01*
X220353663Y-69748903D01*
X220567830Y-69649035D01*
X220761401Y-69513495D01*
X220928495Y-69346401D01*
X221058425Y-69160842D01*
X221113002Y-69117217D01*
X221182500Y-69110023D01*
X221244855Y-69141546D01*
X221261575Y-69160842D01*
X221391500Y-69346395D01*
X221391505Y-69346401D01*
X221558599Y-69513495D01*
X221655384Y-69581265D01*
X221752165Y-69649032D01*
X221752167Y-69649033D01*
X221752170Y-69649035D01*
X221966337Y-69748903D01*
X222194592Y-69810063D01*
X222371034Y-69825500D01*
X222429999Y-69830659D01*
X222430000Y-69830659D01*
X222430001Y-69830659D01*
X222488966Y-69825500D01*
X222665408Y-69810063D01*
X222893663Y-69748903D01*
X223107830Y-69649035D01*
X223301401Y-69513495D01*
X223468495Y-69346401D01*
X223598425Y-69160842D01*
X223653002Y-69117217D01*
X223722500Y-69110023D01*
X223784855Y-69141546D01*
X223801575Y-69160842D01*
X223931500Y-69346395D01*
X223931505Y-69346401D01*
X224098599Y-69513495D01*
X224195384Y-69581265D01*
X224292165Y-69649032D01*
X224292167Y-69649033D01*
X224292170Y-69649035D01*
X224506337Y-69748903D01*
X224734592Y-69810063D01*
X224911034Y-69825500D01*
X224969999Y-69830659D01*
X224970000Y-69830659D01*
X224970001Y-69830659D01*
X225028966Y-69825500D01*
X225205408Y-69810063D01*
X225433663Y-69748903D01*
X225647830Y-69649035D01*
X225841401Y-69513495D01*
X226008495Y-69346401D01*
X226138425Y-69160842D01*
X226193002Y-69117217D01*
X226262500Y-69110023D01*
X226324855Y-69141546D01*
X226341575Y-69160842D01*
X226471500Y-69346395D01*
X226471505Y-69346401D01*
X226638599Y-69513495D01*
X226735384Y-69581265D01*
X226832165Y-69649032D01*
X226832167Y-69649033D01*
X226832170Y-69649035D01*
X227046337Y-69748903D01*
X227274592Y-69810063D01*
X227451034Y-69825500D01*
X227509999Y-69830659D01*
X227510000Y-69830659D01*
X227510001Y-69830659D01*
X227568966Y-69825500D01*
X227745408Y-69810063D01*
X227973663Y-69748903D01*
X228187830Y-69649035D01*
X228381401Y-69513495D01*
X228503329Y-69391566D01*
X228564648Y-69358084D01*
X228634340Y-69363068D01*
X228690274Y-69404939D01*
X228707189Y-69435917D01*
X228756202Y-69567328D01*
X228756206Y-69567335D01*
X228842452Y-69682544D01*
X228842455Y-69682547D01*
X228957664Y-69768793D01*
X228957671Y-69768797D01*
X229092517Y-69819091D01*
X229092516Y-69819091D01*
X229099444Y-69819835D01*
X229152127Y-69825500D01*
X230947872Y-69825499D01*
X231007483Y-69819091D01*
X231142331Y-69768796D01*
X231257546Y-69682546D01*
X231343796Y-69567331D01*
X231394091Y-69432483D01*
X231400500Y-69372873D01*
X231400499Y-68249999D01*
X236469364Y-68249999D01*
X236469364Y-68250000D01*
X237366988Y-68250000D01*
X237334075Y-68307007D01*
X237300000Y-68434174D01*
X237300000Y-68565826D01*
X237334075Y-68692993D01*
X237366988Y-68750000D01*
X236469364Y-68750000D01*
X236526567Y-68963486D01*
X236526570Y-68963492D01*
X236626399Y-69177578D01*
X236761894Y-69371082D01*
X236928917Y-69538105D01*
X237122421Y-69673600D01*
X237336507Y-69773429D01*
X237336516Y-69773433D01*
X237550000Y-69830634D01*
X237550000Y-68933012D01*
X237607007Y-68965925D01*
X237734174Y-69000000D01*
X237865826Y-69000000D01*
X237992993Y-68965925D01*
X238050000Y-68933012D01*
X238050000Y-69830633D01*
X238263483Y-69773433D01*
X238263492Y-69773429D01*
X238477578Y-69673600D01*
X238671082Y-69538105D01*
X238838105Y-69371082D01*
X238968119Y-69185405D01*
X239022696Y-69141781D01*
X239092195Y-69134588D01*
X239154549Y-69166110D01*
X239171269Y-69185405D01*
X239301505Y-69371401D01*
X239468599Y-69538495D01*
X239565384Y-69606265D01*
X239662165Y-69674032D01*
X239662167Y-69674033D01*
X239662170Y-69674035D01*
X239876337Y-69773903D01*
X240104592Y-69835063D01*
X240281034Y-69850500D01*
X240339999Y-69855659D01*
X240340000Y-69855659D01*
X240340001Y-69855659D01*
X240398966Y-69850500D01*
X240575408Y-69835063D01*
X240803663Y-69773903D01*
X241017830Y-69674035D01*
X241211401Y-69538495D01*
X241378495Y-69371401D01*
X241508425Y-69185842D01*
X241563002Y-69142217D01*
X241632500Y-69135023D01*
X241694855Y-69166546D01*
X241711575Y-69185842D01*
X241841500Y-69371395D01*
X241841505Y-69371401D01*
X242008599Y-69538495D01*
X242105384Y-69606265D01*
X242202165Y-69674032D01*
X242202167Y-69674033D01*
X242202170Y-69674035D01*
X242416337Y-69773903D01*
X242644592Y-69835063D01*
X242821034Y-69850500D01*
X242879999Y-69855659D01*
X242880000Y-69855659D01*
X242880001Y-69855659D01*
X242938966Y-69850500D01*
X243115408Y-69835063D01*
X243343663Y-69773903D01*
X243557830Y-69674035D01*
X243751401Y-69538495D01*
X243918495Y-69371401D01*
X244048425Y-69185842D01*
X244103002Y-69142217D01*
X244172500Y-69135023D01*
X244234855Y-69166546D01*
X244251575Y-69185842D01*
X244381500Y-69371395D01*
X244381505Y-69371401D01*
X244548599Y-69538495D01*
X244645384Y-69606265D01*
X244742165Y-69674032D01*
X244742167Y-69674033D01*
X244742170Y-69674035D01*
X244956337Y-69773903D01*
X245184592Y-69835063D01*
X245361034Y-69850500D01*
X245419999Y-69855659D01*
X245420000Y-69855659D01*
X245420001Y-69855659D01*
X245478966Y-69850500D01*
X245655408Y-69835063D01*
X245883663Y-69773903D01*
X246097830Y-69674035D01*
X246291401Y-69538495D01*
X246458495Y-69371401D01*
X246588425Y-69185842D01*
X246643002Y-69142217D01*
X246712500Y-69135023D01*
X246774855Y-69166546D01*
X246791575Y-69185842D01*
X246921500Y-69371395D01*
X246921505Y-69371401D01*
X247088599Y-69538495D01*
X247185384Y-69606265D01*
X247282165Y-69674032D01*
X247282167Y-69674033D01*
X247282170Y-69674035D01*
X247496337Y-69773903D01*
X247724592Y-69835063D01*
X247901034Y-69850500D01*
X247959999Y-69855659D01*
X247960000Y-69855659D01*
X247960001Y-69855659D01*
X248018966Y-69850500D01*
X248195408Y-69835063D01*
X248423663Y-69773903D01*
X248637830Y-69674035D01*
X248831401Y-69538495D01*
X248998495Y-69371401D01*
X249128425Y-69185842D01*
X249183002Y-69142217D01*
X249252500Y-69135023D01*
X249314855Y-69166546D01*
X249331575Y-69185842D01*
X249461500Y-69371395D01*
X249461505Y-69371401D01*
X249628599Y-69538495D01*
X249725384Y-69606265D01*
X249822165Y-69674032D01*
X249822167Y-69674033D01*
X249822170Y-69674035D01*
X250036337Y-69773903D01*
X250264592Y-69835063D01*
X250441034Y-69850500D01*
X250499999Y-69855659D01*
X250500000Y-69855659D01*
X250500001Y-69855659D01*
X250558966Y-69850500D01*
X250735408Y-69835063D01*
X250963663Y-69773903D01*
X251177830Y-69674035D01*
X251371401Y-69538495D01*
X251493329Y-69416566D01*
X251554648Y-69383084D01*
X251624340Y-69388068D01*
X251680274Y-69429939D01*
X251697189Y-69460917D01*
X251746202Y-69592328D01*
X251746206Y-69592335D01*
X251832452Y-69707544D01*
X251832455Y-69707547D01*
X251947664Y-69793793D01*
X251947671Y-69793797D01*
X252082517Y-69844091D01*
X252082516Y-69844091D01*
X252089444Y-69844835D01*
X252142127Y-69850500D01*
X253937872Y-69850499D01*
X253997483Y-69844091D01*
X254132331Y-69793796D01*
X254247546Y-69707546D01*
X254333796Y-69592331D01*
X254384091Y-69457483D01*
X254390500Y-69397873D01*
X254390499Y-67602128D01*
X254384091Y-67542517D01*
X254382810Y-67539083D01*
X254333797Y-67407671D01*
X254333793Y-67407664D01*
X254247547Y-67292455D01*
X254247544Y-67292452D01*
X254132335Y-67206206D01*
X254132328Y-67206202D01*
X253997482Y-67155908D01*
X253997483Y-67155908D01*
X253937883Y-67149501D01*
X253937881Y-67149500D01*
X253937873Y-67149500D01*
X253937864Y-67149500D01*
X252142129Y-67149500D01*
X252142123Y-67149501D01*
X252082516Y-67155908D01*
X251947671Y-67206202D01*
X251947664Y-67206206D01*
X251832455Y-67292452D01*
X251832452Y-67292455D01*
X251746206Y-67407664D01*
X251746203Y-67407669D01*
X251697189Y-67539083D01*
X251655317Y-67595016D01*
X251589853Y-67619433D01*
X251521580Y-67604581D01*
X251493326Y-67583430D01*
X251371402Y-67461506D01*
X251371395Y-67461501D01*
X251177834Y-67325967D01*
X251177830Y-67325965D01*
X251172085Y-67323286D01*
X250963663Y-67226097D01*
X250963659Y-67226096D01*
X250963655Y-67226094D01*
X250735413Y-67164938D01*
X250735403Y-67164936D01*
X250542142Y-67148028D01*
X250500344Y-67131677D01*
X250481985Y-67143477D01*
X250457858Y-67148028D01*
X250264596Y-67164936D01*
X250264586Y-67164938D01*
X250036344Y-67226094D01*
X250036335Y-67226098D01*
X249822171Y-67325964D01*
X249822169Y-67325965D01*
X249628597Y-67461505D01*
X249461505Y-67628597D01*
X249331575Y-67814158D01*
X249276998Y-67857783D01*
X249207500Y-67864977D01*
X249145145Y-67833454D01*
X249128425Y-67814158D01*
X248998494Y-67628597D01*
X248831402Y-67461506D01*
X248831395Y-67461501D01*
X248637834Y-67325967D01*
X248637830Y-67325965D01*
X248632085Y-67323286D01*
X248423663Y-67226097D01*
X248423659Y-67226096D01*
X248423655Y-67226094D01*
X248195413Y-67164938D01*
X248195403Y-67164936D01*
X248002142Y-67148028D01*
X247960344Y-67131677D01*
X247941985Y-67143477D01*
X247917858Y-67148028D01*
X247724596Y-67164936D01*
X247724586Y-67164938D01*
X247496344Y-67226094D01*
X247496335Y-67226098D01*
X247282171Y-67325964D01*
X247282169Y-67325965D01*
X247088597Y-67461505D01*
X246921505Y-67628597D01*
X246791575Y-67814158D01*
X246736998Y-67857783D01*
X246667500Y-67864977D01*
X246605145Y-67833454D01*
X246588425Y-67814158D01*
X246458494Y-67628597D01*
X246291402Y-67461506D01*
X246291395Y-67461501D01*
X246097834Y-67325967D01*
X246097830Y-67325965D01*
X246092085Y-67323286D01*
X245883663Y-67226097D01*
X245883659Y-67226096D01*
X245883655Y-67226094D01*
X245655413Y-67164938D01*
X245655403Y-67164936D01*
X245462142Y-67148028D01*
X245420344Y-67131677D01*
X245401985Y-67143477D01*
X245377858Y-67148028D01*
X245184596Y-67164936D01*
X245184586Y-67164938D01*
X244956344Y-67226094D01*
X244956335Y-67226098D01*
X244742171Y-67325964D01*
X244742169Y-67325965D01*
X244548597Y-67461505D01*
X244381505Y-67628597D01*
X244251575Y-67814158D01*
X244196998Y-67857783D01*
X244127500Y-67864977D01*
X244065145Y-67833454D01*
X244048425Y-67814158D01*
X243918494Y-67628597D01*
X243751402Y-67461506D01*
X243751395Y-67461501D01*
X243557834Y-67325967D01*
X243557830Y-67325965D01*
X243552085Y-67323286D01*
X243343663Y-67226097D01*
X243343659Y-67226096D01*
X243343655Y-67226094D01*
X243115413Y-67164938D01*
X243115403Y-67164936D01*
X242922142Y-67148028D01*
X242880344Y-67131677D01*
X242861985Y-67143477D01*
X242837858Y-67148028D01*
X242644596Y-67164936D01*
X242644586Y-67164938D01*
X242416344Y-67226094D01*
X242416335Y-67226098D01*
X242202171Y-67325964D01*
X242202169Y-67325965D01*
X242008597Y-67461505D01*
X241841505Y-67628597D01*
X241711575Y-67814158D01*
X241656998Y-67857783D01*
X241587500Y-67864977D01*
X241525145Y-67833454D01*
X241508425Y-67814158D01*
X241378494Y-67628597D01*
X241211402Y-67461506D01*
X241211395Y-67461501D01*
X241017834Y-67325967D01*
X241017830Y-67325965D01*
X241012085Y-67323286D01*
X240803663Y-67226097D01*
X240803659Y-67226096D01*
X240803655Y-67226094D01*
X240575413Y-67164938D01*
X240575403Y-67164936D01*
X240382142Y-67148028D01*
X240340344Y-67131677D01*
X240321985Y-67143477D01*
X240297858Y-67148028D01*
X240104596Y-67164936D01*
X240104586Y-67164938D01*
X239876344Y-67226094D01*
X239876335Y-67226098D01*
X239662171Y-67325964D01*
X239662169Y-67325965D01*
X239468597Y-67461505D01*
X239301508Y-67628594D01*
X239171269Y-67814595D01*
X239116692Y-67858219D01*
X239047193Y-67865412D01*
X238984839Y-67833890D01*
X238968119Y-67814594D01*
X238838113Y-67628926D01*
X238838108Y-67628920D01*
X238671082Y-67461894D01*
X238477578Y-67326399D01*
X238263492Y-67226570D01*
X238263486Y-67226567D01*
X238050000Y-67169364D01*
X238050000Y-68066988D01*
X237992993Y-68034075D01*
X237865826Y-68000000D01*
X237734174Y-68000000D01*
X237607007Y-68034075D01*
X237550000Y-68066988D01*
X237550000Y-67169364D01*
X237549999Y-67169364D01*
X237336513Y-67226567D01*
X237336507Y-67226570D01*
X237122422Y-67326399D01*
X237122420Y-67326400D01*
X236928926Y-67461886D01*
X236928920Y-67461891D01*
X236761891Y-67628920D01*
X236761886Y-67628926D01*
X236626400Y-67822420D01*
X236626399Y-67822422D01*
X236526570Y-68036507D01*
X236526567Y-68036513D01*
X236469364Y-68249999D01*
X231400499Y-68249999D01*
X231400499Y-67577128D01*
X231394091Y-67517517D01*
X231392810Y-67514083D01*
X231343797Y-67382671D01*
X231343793Y-67382664D01*
X231257547Y-67267455D01*
X231257544Y-67267452D01*
X231142335Y-67181206D01*
X231142328Y-67181202D01*
X231033686Y-67140682D01*
X230977752Y-67098811D01*
X230953335Y-67033347D01*
X230968186Y-66965074D01*
X231017591Y-66915668D01*
X231077019Y-66900500D01*
X240287050Y-66900500D01*
X240342285Y-66916719D01*
X240368518Y-66902931D01*
X240392950Y-66900500D01*
X242827050Y-66900500D01*
X242882285Y-66916719D01*
X242908518Y-66902931D01*
X242932950Y-66900500D01*
X245367050Y-66900500D01*
X245422285Y-66916719D01*
X245448518Y-66902931D01*
X245472950Y-66900500D01*
X247907050Y-66900500D01*
X247962285Y-66916719D01*
X247988518Y-66902931D01*
X248012950Y-66900500D01*
X250447050Y-66900500D01*
X250502285Y-66916719D01*
X250528518Y-66902931D01*
X250552950Y-66900500D01*
X256544295Y-66900500D01*
X256544319Y-66900501D01*
X256549430Y-66900501D01*
X256730521Y-66900501D01*
X256730522Y-66900501D01*
X256909385Y-66872171D01*
X257081615Y-66816211D01*
X257242970Y-66733996D01*
X257389477Y-66627553D01*
X257517529Y-66499501D01*
X257517530Y-66499499D01*
X257524590Y-66492439D01*
X257524596Y-66492432D01*
X259687819Y-64329209D01*
X259749142Y-64295724D01*
X259818834Y-64300708D01*
X259874767Y-64342580D01*
X259899184Y-64408044D01*
X259899500Y-64416890D01*
X259899500Y-67025500D01*
X259879815Y-67092539D01*
X259827011Y-67138294D01*
X259775500Y-67149500D01*
X258602129Y-67149500D01*
X258602123Y-67149501D01*
X258542516Y-67155908D01*
X258407671Y-67206202D01*
X258407664Y-67206206D01*
X258292455Y-67292452D01*
X258292452Y-67292455D01*
X258206206Y-67407664D01*
X258206202Y-67407671D01*
X258155908Y-67542517D01*
X258149501Y-67602116D01*
X258149501Y-67602123D01*
X258149500Y-67602135D01*
X258149500Y-69397870D01*
X258149501Y-69397876D01*
X258155908Y-69457483D01*
X258206202Y-69592328D01*
X258206206Y-69592335D01*
X258292452Y-69707544D01*
X258292455Y-69707547D01*
X258407664Y-69793793D01*
X258407671Y-69793797D01*
X258542517Y-69844091D01*
X258542516Y-69844091D01*
X258549444Y-69844835D01*
X258602127Y-69850500D01*
X260397872Y-69850499D01*
X260457483Y-69844091D01*
X260592331Y-69793796D01*
X260707546Y-69707546D01*
X260793796Y-69592331D01*
X260842810Y-69460916D01*
X260884681Y-69404984D01*
X260950145Y-69380566D01*
X261018418Y-69395417D01*
X261046673Y-69416569D01*
X261168599Y-69538495D01*
X261265384Y-69606265D01*
X261362165Y-69674032D01*
X261362167Y-69674033D01*
X261362170Y-69674035D01*
X261576337Y-69773903D01*
X261804592Y-69835063D01*
X261981034Y-69850500D01*
X262039999Y-69855659D01*
X262040000Y-69855659D01*
X262040001Y-69855659D01*
X262098966Y-69850500D01*
X262275408Y-69835063D01*
X262503663Y-69773903D01*
X262717830Y-69674035D01*
X262911401Y-69538495D01*
X263078495Y-69371401D01*
X263208425Y-69185842D01*
X263263002Y-69142217D01*
X263332500Y-69135023D01*
X263394855Y-69166546D01*
X263411575Y-69185842D01*
X263541500Y-69371395D01*
X263541505Y-69371401D01*
X263708599Y-69538495D01*
X263805384Y-69606265D01*
X263902165Y-69674032D01*
X263902167Y-69674033D01*
X263902170Y-69674035D01*
X264116337Y-69773903D01*
X264344592Y-69835063D01*
X264521034Y-69850500D01*
X264579999Y-69855659D01*
X264580000Y-69855659D01*
X264580001Y-69855659D01*
X264638966Y-69850500D01*
X264815408Y-69835063D01*
X265043663Y-69773903D01*
X265257830Y-69674035D01*
X265451401Y-69538495D01*
X265618495Y-69371401D01*
X265754035Y-69177830D01*
X265853903Y-68963663D01*
X265915063Y-68735408D01*
X265935659Y-68500000D01*
X265915063Y-68264592D01*
X265853903Y-68036337D01*
X265754035Y-67822171D01*
X265748731Y-67814595D01*
X265618494Y-67628597D01*
X265451402Y-67461506D01*
X265451395Y-67461501D01*
X265257831Y-67325965D01*
X265257826Y-67325962D01*
X265252091Y-67323288D01*
X265199653Y-67277113D01*
X265180500Y-67210908D01*
X265180500Y-63500945D01*
X265180500Y-63500943D01*
X265139577Y-63348216D01*
X265120400Y-63315000D01*
X265060524Y-63211290D01*
X265060521Y-63211286D01*
X265060520Y-63211284D01*
X264948716Y-63099480D01*
X264948715Y-63099479D01*
X264944385Y-63095149D01*
X264944374Y-63095139D01*
X261759590Y-59910355D01*
X261759588Y-59910352D01*
X261640717Y-59791481D01*
X261640716Y-59791480D01*
X261553904Y-59741360D01*
X261553904Y-59741359D01*
X261553900Y-59741358D01*
X261503785Y-59712423D01*
X261351057Y-59671499D01*
X261192943Y-59671499D01*
X261185347Y-59671499D01*
X261185331Y-59671500D01*
X246412057Y-59671500D01*
X246253943Y-59671500D01*
X246101215Y-59712423D01*
X246101214Y-59712423D01*
X246101212Y-59712424D01*
X246101209Y-59712425D01*
X246051096Y-59741359D01*
X246051095Y-59741360D01*
X246007689Y-59766420D01*
X245964285Y-59791479D01*
X245964282Y-59791481D01*
X245852478Y-59903286D01*
X244482180Y-61273583D01*
X244420857Y-61307068D01*
X244351165Y-61302084D01*
X244338203Y-61296386D01*
X244274631Y-61263994D01*
X244274632Y-61263994D01*
X244085637Y-61202587D01*
X243927647Y-61177564D01*
X243889361Y-61171500D01*
X243690639Y-61171500D01*
X243652353Y-61177564D01*
X243494362Y-61202587D01*
X243490807Y-61203742D01*
X243420966Y-61205730D01*
X243361136Y-61169644D01*
X243330314Y-61106940D01*
X243328500Y-61085807D01*
X243328500Y-57317060D01*
X243328501Y-57317047D01*
X243328501Y-57148944D01*
X243287576Y-56996214D01*
X243287573Y-56996209D01*
X243208524Y-56859290D01*
X243208518Y-56859282D01*
X235546819Y-49197583D01*
X235513334Y-49136260D01*
X235510500Y-49109902D01*
X235510500Y-39079150D01*
X235530185Y-39012111D01*
X235582989Y-38966356D01*
X235652147Y-38956412D01*
X235681979Y-38964600D01*
X235685362Y-38966002D01*
X235685368Y-38966005D01*
X235685374Y-38966007D01*
X235685379Y-38966009D01*
X235789093Y-38999707D01*
X235874364Y-39027413D01*
X236070639Y-39058500D01*
X236070640Y-39058500D01*
X236269360Y-39058500D01*
X236269361Y-39058500D01*
X236465636Y-39027413D01*
X236654632Y-38966005D01*
X236831694Y-38875787D01*
X236992464Y-38758981D01*
X237132981Y-38618464D01*
X237249787Y-38457694D01*
X237329515Y-38301218D01*
X237377490Y-38250423D01*
X237445311Y-38233628D01*
X237511446Y-38256165D01*
X237550484Y-38301218D01*
X237630213Y-38457694D01*
X237747019Y-38618464D01*
X237887536Y-38758981D01*
X238048306Y-38875787D01*
X238126333Y-38915544D01*
X238225367Y-38966005D01*
X238225370Y-38966006D01*
X238319866Y-38996709D01*
X238414364Y-39027413D01*
X238610639Y-39058500D01*
X238610640Y-39058500D01*
X238809360Y-39058500D01*
X238809361Y-39058500D01*
X239005636Y-39027413D01*
X239194632Y-38966005D01*
X239371694Y-38875787D01*
X239532464Y-38758981D01*
X239672981Y-38618464D01*
X239789787Y-38457694D01*
X239869515Y-38301218D01*
X239917490Y-38250423D01*
X239985311Y-38233628D01*
X240051446Y-38256165D01*
X240090484Y-38301218D01*
X240170213Y-38457694D01*
X240287019Y-38618464D01*
X240427536Y-38758981D01*
X240588306Y-38875787D01*
X240666333Y-38915544D01*
X240765367Y-38966005D01*
X240765370Y-38966006D01*
X240859866Y-38996709D01*
X240954364Y-39027413D01*
X241150639Y-39058500D01*
X241150640Y-39058500D01*
X241349360Y-39058500D01*
X241349361Y-39058500D01*
X241545636Y-39027413D01*
X241734632Y-38966005D01*
X241911694Y-38875787D01*
X242072464Y-38758981D01*
X242212981Y-38618464D01*
X242329787Y-38457694D01*
X242409515Y-38301218D01*
X242457490Y-38250423D01*
X242525311Y-38233628D01*
X242591446Y-38256165D01*
X242630484Y-38301218D01*
X242710213Y-38457694D01*
X242827019Y-38618464D01*
X242967536Y-38758981D01*
X243128306Y-38875787D01*
X243206333Y-38915544D01*
X243305367Y-38966005D01*
X243305370Y-38966006D01*
X243399866Y-38996709D01*
X243494364Y-39027413D01*
X243690639Y-39058500D01*
X243690640Y-39058500D01*
X243889360Y-39058500D01*
X243889361Y-39058500D01*
X244085636Y-39027413D01*
X244274632Y-38966005D01*
X244451694Y-38875787D01*
X244612464Y-38758981D01*
X244752981Y-38618464D01*
X244869787Y-38457694D01*
X244949515Y-38301218D01*
X244997490Y-38250423D01*
X245065311Y-38233628D01*
X245131446Y-38256165D01*
X245170484Y-38301218D01*
X245250213Y-38457694D01*
X245367019Y-38618464D01*
X245507536Y-38758981D01*
X245668306Y-38875787D01*
X245746333Y-38915544D01*
X245845367Y-38966005D01*
X245845370Y-38966006D01*
X245939866Y-38996709D01*
X246034364Y-39027413D01*
X246230639Y-39058500D01*
X246230640Y-39058500D01*
X246429360Y-39058500D01*
X246429361Y-39058500D01*
X246625636Y-39027413D01*
X246814632Y-38966005D01*
X246991694Y-38875787D01*
X247152464Y-38758981D01*
X247292981Y-38618464D01*
X247409787Y-38457694D01*
X247489515Y-38301218D01*
X247537490Y-38250423D01*
X247605311Y-38233628D01*
X247671446Y-38256165D01*
X247710484Y-38301218D01*
X247790213Y-38457694D01*
X247907019Y-38618464D01*
X248047536Y-38758981D01*
X248208306Y-38875787D01*
X248286333Y-38915544D01*
X248385367Y-38966005D01*
X248385370Y-38966006D01*
X248479866Y-38996709D01*
X248574364Y-39027413D01*
X248770639Y-39058500D01*
X248770640Y-39058500D01*
X248969360Y-39058500D01*
X248969361Y-39058500D01*
X249165636Y-39027413D01*
X249354632Y-38966005D01*
X249531694Y-38875787D01*
X249692464Y-38758981D01*
X249832981Y-38618464D01*
X249949787Y-38457694D01*
X250029515Y-38301218D01*
X250077490Y-38250423D01*
X250145311Y-38233628D01*
X250211446Y-38256165D01*
X250250484Y-38301218D01*
X250330213Y-38457694D01*
X250447019Y-38618464D01*
X250587536Y-38758981D01*
X250748306Y-38875787D01*
X250826333Y-38915544D01*
X250925367Y-38966005D01*
X250925370Y-38966006D01*
X251019866Y-38996709D01*
X251114364Y-39027413D01*
X251310639Y-39058500D01*
X251310640Y-39058500D01*
X251509360Y-39058500D01*
X251509361Y-39058500D01*
X251705636Y-39027413D01*
X251894632Y-38966005D01*
X252071694Y-38875787D01*
X252232464Y-38758981D01*
X252372981Y-38618464D01*
X252489787Y-38457694D01*
X252569515Y-38301218D01*
X252617490Y-38250423D01*
X252685311Y-38233628D01*
X252751446Y-38256165D01*
X252790484Y-38301218D01*
X252870213Y-38457694D01*
X252987019Y-38618464D01*
X253127536Y-38758981D01*
X253288306Y-38875787D01*
X253366333Y-38915544D01*
X253465367Y-38966005D01*
X253465370Y-38966006D01*
X253559866Y-38996709D01*
X253654364Y-39027413D01*
X253850639Y-39058500D01*
X253850640Y-39058500D01*
X254049360Y-39058500D01*
X254049361Y-39058500D01*
X254245636Y-39027413D01*
X254434632Y-38966005D01*
X254611694Y-38875787D01*
X254772464Y-38758981D01*
X254912981Y-38618464D01*
X255029787Y-38457694D01*
X255109796Y-38300667D01*
X255157769Y-38249872D01*
X255225590Y-38233077D01*
X255291725Y-38255614D01*
X255330765Y-38300668D01*
X255410641Y-38457432D01*
X255527403Y-38618139D01*
X255527403Y-38618140D01*
X255667859Y-38758596D01*
X255828567Y-38875358D01*
X256005562Y-38965542D01*
X256194473Y-39026922D01*
X256240000Y-39034133D01*
X256240000Y-37848012D01*
X256297007Y-37880925D01*
X256424174Y-37915000D01*
X256555826Y-37915000D01*
X256682993Y-37880925D01*
X256740000Y-37848012D01*
X256740000Y-39034132D01*
X256785526Y-39026922D01*
X256974437Y-38965542D01*
X257151432Y-38875358D01*
X257312139Y-38758596D01*
X257312140Y-38758596D01*
X257452596Y-38618140D01*
X257452601Y-38618134D01*
X257543182Y-38493460D01*
X257598511Y-38450794D01*
X257668125Y-38444815D01*
X257729920Y-38477420D01*
X257764277Y-38538259D01*
X257767500Y-38566342D01*
X257767500Y-38605869D01*
X257767501Y-38605876D01*
X257773908Y-38665483D01*
X257824202Y-38800328D01*
X257824206Y-38800335D01*
X257910452Y-38915544D01*
X257910455Y-38915547D01*
X258025664Y-39001793D01*
X258025671Y-39001797D01*
X258160517Y-39052091D01*
X258160516Y-39052091D01*
X258167444Y-39052835D01*
X258220127Y-39058500D01*
X259839872Y-39058499D01*
X259899483Y-39052091D01*
X260034331Y-39001796D01*
X260149546Y-38915546D01*
X260235796Y-38800331D01*
X260286091Y-38665483D01*
X260292500Y-38605873D01*
X260292499Y-36224128D01*
X260286091Y-36164517D01*
X260251219Y-36071021D01*
X260235797Y-36029671D01*
X260235793Y-36029664D01*
X260149547Y-35914455D01*
X260149544Y-35914452D01*
X260034335Y-35828206D01*
X260034328Y-35828202D01*
X259899482Y-35777908D01*
X259899483Y-35777908D01*
X259839883Y-35771501D01*
X259839881Y-35771500D01*
X259839873Y-35771500D01*
X259839864Y-35771500D01*
X258220129Y-35771500D01*
X258220123Y-35771501D01*
X258160516Y-35777908D01*
X258025671Y-35828202D01*
X258025664Y-35828206D01*
X257910455Y-35914452D01*
X257910452Y-35914455D01*
X257824206Y-36029664D01*
X257824202Y-36029671D01*
X257773908Y-36164517D01*
X257768819Y-36211859D01*
X257767501Y-36224123D01*
X257767500Y-36224135D01*
X257767500Y-36263652D01*
X257747815Y-36330691D01*
X257695011Y-36376446D01*
X257625853Y-36386390D01*
X257562297Y-36357365D01*
X257543182Y-36336538D01*
X257452597Y-36211860D01*
X257312140Y-36071403D01*
X257151432Y-35954641D01*
X256974434Y-35864456D01*
X256974436Y-35864456D01*
X256785517Y-35803074D01*
X256740000Y-35795865D01*
X256740000Y-36981988D01*
X256682993Y-36949075D01*
X256555826Y-36915000D01*
X256424174Y-36915000D01*
X256297007Y-36949075D01*
X256240000Y-36981988D01*
X256240000Y-35795865D01*
X256239999Y-35795865D01*
X256194482Y-35803074D01*
X256005564Y-35864456D01*
X255828567Y-35954641D01*
X255667860Y-36071403D01*
X255667859Y-36071403D01*
X255527403Y-36211859D01*
X255527403Y-36211860D01*
X255410639Y-36372569D01*
X255330764Y-36529332D01*
X255282790Y-36580127D01*
X255214969Y-36596922D01*
X255148834Y-36574384D01*
X255109796Y-36529332D01*
X255029787Y-36372306D01*
X254912981Y-36211536D01*
X254772464Y-36071019D01*
X254611694Y-35954213D01*
X254609500Y-35953095D01*
X254434632Y-35863994D01*
X254434629Y-35863993D01*
X254245637Y-35802587D01*
X254112561Y-35781510D01*
X254049361Y-35771500D01*
X253850639Y-35771500D01*
X253787439Y-35781510D01*
X253654362Y-35802587D01*
X253465370Y-35863993D01*
X253465367Y-35863994D01*
X253288305Y-35954213D01*
X253127533Y-36071021D01*
X252987021Y-36211533D01*
X252870213Y-36372305D01*
X252790485Y-36528780D01*
X252742510Y-36579576D01*
X252674689Y-36596371D01*
X252608554Y-36573833D01*
X252569515Y-36528780D01*
X252489786Y-36372305D01*
X252372981Y-36211536D01*
X252232464Y-36071019D01*
X252071694Y-35954213D01*
X252069500Y-35953095D01*
X251894632Y-35863994D01*
X251894629Y-35863993D01*
X251705637Y-35802587D01*
X251572561Y-35781510D01*
X251509361Y-35771500D01*
X251310639Y-35771500D01*
X251247439Y-35781510D01*
X251114362Y-35802587D01*
X250925370Y-35863993D01*
X250925367Y-35863994D01*
X250748305Y-35954213D01*
X250587533Y-36071021D01*
X250447021Y-36211533D01*
X250330213Y-36372305D01*
X250250485Y-36528780D01*
X250202510Y-36579576D01*
X250134689Y-36596371D01*
X250068554Y-36573833D01*
X250029515Y-36528780D01*
X249949786Y-36372305D01*
X249832981Y-36211536D01*
X249692464Y-36071019D01*
X249531694Y-35954213D01*
X249529500Y-35953095D01*
X249354632Y-35863994D01*
X249354629Y-35863993D01*
X249165637Y-35802587D01*
X249032561Y-35781510D01*
X248969361Y-35771500D01*
X248770639Y-35771500D01*
X248707439Y-35781510D01*
X248574362Y-35802587D01*
X248385370Y-35863993D01*
X248385367Y-35863994D01*
X248208305Y-35954213D01*
X248047533Y-36071021D01*
X247907021Y-36211533D01*
X247790213Y-36372305D01*
X247710485Y-36528780D01*
X247662510Y-36579576D01*
X247594689Y-36596371D01*
X247528554Y-36573833D01*
X247489515Y-36528780D01*
X247409786Y-36372305D01*
X247292981Y-36211536D01*
X247152464Y-36071019D01*
X246991694Y-35954213D01*
X246989500Y-35953095D01*
X246814632Y-35863994D01*
X246814629Y-35863993D01*
X246625637Y-35802587D01*
X246492561Y-35781510D01*
X246429361Y-35771500D01*
X246230639Y-35771500D01*
X246167439Y-35781510D01*
X246034362Y-35802587D01*
X245845370Y-35863993D01*
X245845367Y-35863994D01*
X245668305Y-35954213D01*
X245507533Y-36071021D01*
X245367021Y-36211533D01*
X245250213Y-36372305D01*
X245170485Y-36528780D01*
X245122510Y-36579576D01*
X245054689Y-36596371D01*
X244988554Y-36573833D01*
X244949515Y-36528780D01*
X244869786Y-36372305D01*
X244752981Y-36211536D01*
X244612464Y-36071019D01*
X244451694Y-35954213D01*
X244449500Y-35953095D01*
X244274632Y-35863994D01*
X244274629Y-35863993D01*
X244085637Y-35802587D01*
X243952561Y-35781510D01*
X243889361Y-35771500D01*
X243690639Y-35771500D01*
X243627439Y-35781510D01*
X243494362Y-35802587D01*
X243305370Y-35863993D01*
X243305367Y-35863994D01*
X243128305Y-35954213D01*
X242967533Y-36071021D01*
X242827021Y-36211533D01*
X242710213Y-36372305D01*
X242630485Y-36528780D01*
X242582510Y-36579576D01*
X242514689Y-36596371D01*
X242448554Y-36573833D01*
X242409515Y-36528780D01*
X242329786Y-36372305D01*
X242212981Y-36211536D01*
X242072464Y-36071019D01*
X241911694Y-35954213D01*
X241909500Y-35953095D01*
X241734632Y-35863994D01*
X241734629Y-35863993D01*
X241545637Y-35802587D01*
X241412561Y-35781510D01*
X241349361Y-35771500D01*
X241150639Y-35771500D01*
X241087439Y-35781510D01*
X240954362Y-35802587D01*
X240765370Y-35863993D01*
X240765367Y-35863994D01*
X240588305Y-35954213D01*
X240427533Y-36071021D01*
X240287021Y-36211533D01*
X240170213Y-36372305D01*
X240090485Y-36528780D01*
X240042510Y-36579576D01*
X239974689Y-36596371D01*
X239908554Y-36573833D01*
X239869515Y-36528780D01*
X239789786Y-36372305D01*
X239672981Y-36211536D01*
X239532464Y-36071019D01*
X239371694Y-35954213D01*
X239369500Y-35953095D01*
X239194632Y-35863994D01*
X239194629Y-35863993D01*
X239005637Y-35802587D01*
X238872561Y-35781510D01*
X238809361Y-35771500D01*
X238610639Y-35771500D01*
X238547439Y-35781510D01*
X238414362Y-35802587D01*
X238225370Y-35863993D01*
X238225367Y-35863994D01*
X238048305Y-35954213D01*
X237887533Y-36071021D01*
X237747021Y-36211533D01*
X237630213Y-36372305D01*
X237550485Y-36528780D01*
X237502510Y-36579576D01*
X237434689Y-36596371D01*
X237368554Y-36573833D01*
X237329515Y-36528780D01*
X237249786Y-36372305D01*
X237132981Y-36211536D01*
X236992464Y-36071019D01*
X236831694Y-35954213D01*
X236829500Y-35953095D01*
X236654632Y-35863994D01*
X236654629Y-35863993D01*
X236465637Y-35802587D01*
X236332561Y-35781510D01*
X236269361Y-35771500D01*
X236070639Y-35771500D01*
X236007439Y-35781510D01*
X235874362Y-35802587D01*
X235685371Y-35863993D01*
X235681949Y-35865411D01*
X235612479Y-35872877D01*
X235550001Y-35841600D01*
X235514351Y-35781510D01*
X235510500Y-35750848D01*
X235510500Y-33816603D01*
X235530185Y-33749564D01*
X235582989Y-33703809D01*
X235652147Y-33693865D01*
X235686901Y-33704220D01*
X235836337Y-33773903D01*
X236064592Y-33835063D01*
X236241034Y-33850500D01*
X236299999Y-33855659D01*
X236300000Y-33855659D01*
X236300001Y-33855659D01*
X236358966Y-33850500D01*
X236535408Y-33835063D01*
X236763663Y-33773903D01*
X236977830Y-33674035D01*
X237171401Y-33538495D01*
X237338495Y-33371401D01*
X237468425Y-33185842D01*
X237523002Y-33142217D01*
X237592500Y-33135023D01*
X237654855Y-33166546D01*
X237671575Y-33185842D01*
X237801500Y-33371395D01*
X237801505Y-33371401D01*
X237968599Y-33538495D01*
X238050499Y-33595842D01*
X238162165Y-33674032D01*
X238162167Y-33674033D01*
X238162170Y-33674035D01*
X238376337Y-33773903D01*
X238604592Y-33835063D01*
X238781034Y-33850500D01*
X238839999Y-33855659D01*
X238840000Y-33855659D01*
X238840001Y-33855659D01*
X238898966Y-33850500D01*
X239075408Y-33835063D01*
X239303663Y-33773903D01*
X239517830Y-33674035D01*
X239711401Y-33538495D01*
X239878495Y-33371401D01*
X240008425Y-33185842D01*
X240063002Y-33142217D01*
X240132500Y-33135023D01*
X240194855Y-33166546D01*
X240211575Y-33185842D01*
X240341500Y-33371395D01*
X240341505Y-33371401D01*
X240508599Y-33538495D01*
X240590499Y-33595842D01*
X240702165Y-33674032D01*
X240702167Y-33674033D01*
X240702170Y-33674035D01*
X240916337Y-33773903D01*
X241144592Y-33835063D01*
X241321034Y-33850500D01*
X241379999Y-33855659D01*
X241380000Y-33855659D01*
X241380001Y-33855659D01*
X241438966Y-33850500D01*
X241615408Y-33835063D01*
X241843663Y-33773903D01*
X242057830Y-33674035D01*
X242251401Y-33538495D01*
X242418495Y-33371401D01*
X242548425Y-33185842D01*
X242603002Y-33142217D01*
X242672500Y-33135023D01*
X242734855Y-33166546D01*
X242751575Y-33185842D01*
X242881500Y-33371395D01*
X242881505Y-33371401D01*
X243048599Y-33538495D01*
X243130499Y-33595842D01*
X243242165Y-33674032D01*
X243242167Y-33674033D01*
X243242170Y-33674035D01*
X243456337Y-33773903D01*
X243684592Y-33835063D01*
X243861034Y-33850500D01*
X243919999Y-33855659D01*
X243920000Y-33855659D01*
X243920001Y-33855659D01*
X243978966Y-33850500D01*
X244155408Y-33835063D01*
X244383663Y-33773903D01*
X244597830Y-33674035D01*
X244791401Y-33538495D01*
X244958495Y-33371401D01*
X245088425Y-33185842D01*
X245143002Y-33142217D01*
X245212500Y-33135023D01*
X245274855Y-33166546D01*
X245291575Y-33185842D01*
X245421500Y-33371395D01*
X245421505Y-33371401D01*
X245588599Y-33538495D01*
X245670499Y-33595842D01*
X245782165Y-33674032D01*
X245782167Y-33674033D01*
X245782170Y-33674035D01*
X245996337Y-33773903D01*
X246224592Y-33835063D01*
X246401034Y-33850500D01*
X246459999Y-33855659D01*
X246460000Y-33855659D01*
X246460001Y-33855659D01*
X246518966Y-33850500D01*
X246695408Y-33835063D01*
X246923663Y-33773903D01*
X247137830Y-33674035D01*
X247331401Y-33538495D01*
X247498495Y-33371401D01*
X247628425Y-33185842D01*
X247683002Y-33142217D01*
X247752500Y-33135023D01*
X247814855Y-33166546D01*
X247831575Y-33185842D01*
X247961500Y-33371395D01*
X247961505Y-33371401D01*
X248128599Y-33538495D01*
X248210499Y-33595842D01*
X248322165Y-33674032D01*
X248322167Y-33674033D01*
X248322170Y-33674035D01*
X248536337Y-33773903D01*
X248764592Y-33835063D01*
X248941034Y-33850500D01*
X248999999Y-33855659D01*
X249000000Y-33855659D01*
X249000001Y-33855659D01*
X249058966Y-33850500D01*
X249235408Y-33835063D01*
X249463663Y-33773903D01*
X249677830Y-33674035D01*
X249871401Y-33538495D01*
X250038495Y-33371401D01*
X250168425Y-33185842D01*
X250223002Y-33142217D01*
X250292500Y-33135023D01*
X250354855Y-33166546D01*
X250371575Y-33185842D01*
X250501500Y-33371395D01*
X250501505Y-33371401D01*
X250668599Y-33538495D01*
X250750499Y-33595842D01*
X250862165Y-33674032D01*
X250862167Y-33674033D01*
X250862170Y-33674035D01*
X251076337Y-33773903D01*
X251304592Y-33835063D01*
X251481034Y-33850500D01*
X251539999Y-33855659D01*
X251540000Y-33855659D01*
X251540001Y-33855659D01*
X251598966Y-33850500D01*
X251775408Y-33835063D01*
X252003663Y-33773903D01*
X252217830Y-33674035D01*
X252411401Y-33538495D01*
X252578495Y-33371401D01*
X252714035Y-33177830D01*
X252813903Y-32963663D01*
X252875063Y-32735408D01*
X252895659Y-32500000D01*
X252875063Y-32264592D01*
X252813903Y-32036337D01*
X252714035Y-31822171D01*
X252708425Y-31814158D01*
X252578494Y-31628597D01*
X252411402Y-31461506D01*
X252411395Y-31461501D01*
X252217834Y-31325967D01*
X252217830Y-31325965D01*
X252153096Y-31295779D01*
X252003663Y-31226097D01*
X252003659Y-31226096D01*
X252003655Y-31226094D01*
X251775413Y-31164938D01*
X251775403Y-31164936D01*
X251540001Y-31144341D01*
X251539999Y-31144341D01*
X251304596Y-31164936D01*
X251304586Y-31164938D01*
X251076344Y-31226094D01*
X251076335Y-31226098D01*
X250862171Y-31325964D01*
X250862169Y-31325965D01*
X250668597Y-31461505D01*
X250501505Y-31628597D01*
X250371575Y-31814158D01*
X250316998Y-31857783D01*
X250247500Y-31864977D01*
X250185145Y-31833454D01*
X250168425Y-31814158D01*
X250038494Y-31628597D01*
X249871402Y-31461506D01*
X249871395Y-31461501D01*
X249677834Y-31325967D01*
X249677830Y-31325965D01*
X249613096Y-31295779D01*
X249463663Y-31226097D01*
X249463659Y-31226096D01*
X249463655Y-31226094D01*
X249235413Y-31164938D01*
X249235403Y-31164936D01*
X249000001Y-31144341D01*
X248999999Y-31144341D01*
X248764596Y-31164936D01*
X248764586Y-31164938D01*
X248536344Y-31226094D01*
X248536335Y-31226098D01*
X248322171Y-31325964D01*
X248322169Y-31325965D01*
X248128597Y-31461505D01*
X247961505Y-31628597D01*
X247831575Y-31814158D01*
X247776998Y-31857783D01*
X247707500Y-31864977D01*
X247645145Y-31833454D01*
X247628425Y-31814158D01*
X247498494Y-31628597D01*
X247331402Y-31461506D01*
X247331395Y-31461501D01*
X247137834Y-31325967D01*
X247137830Y-31325965D01*
X247073096Y-31295779D01*
X246923663Y-31226097D01*
X246923659Y-31226096D01*
X246923655Y-31226094D01*
X246695413Y-31164938D01*
X246695403Y-31164936D01*
X246460001Y-31144341D01*
X246459999Y-31144341D01*
X246224596Y-31164936D01*
X246224586Y-31164938D01*
X245996344Y-31226094D01*
X245996335Y-31226098D01*
X245782171Y-31325964D01*
X245782169Y-31325965D01*
X245588597Y-31461505D01*
X245421505Y-31628597D01*
X245291575Y-31814158D01*
X245236998Y-31857783D01*
X245167500Y-31864977D01*
X245105145Y-31833454D01*
X245088425Y-31814158D01*
X244958494Y-31628597D01*
X244791402Y-31461506D01*
X244791395Y-31461501D01*
X244597834Y-31325967D01*
X244597830Y-31325965D01*
X244533096Y-31295779D01*
X244383663Y-31226097D01*
X244383659Y-31226096D01*
X244383655Y-31226094D01*
X244155413Y-31164938D01*
X244155403Y-31164936D01*
X243920001Y-31144341D01*
X243919999Y-31144341D01*
X243684596Y-31164936D01*
X243684586Y-31164938D01*
X243456344Y-31226094D01*
X243456335Y-31226098D01*
X243242171Y-31325964D01*
X243242169Y-31325965D01*
X243048597Y-31461505D01*
X242881505Y-31628597D01*
X242751575Y-31814158D01*
X242696998Y-31857783D01*
X242627500Y-31864977D01*
X242565145Y-31833454D01*
X242548425Y-31814158D01*
X242418494Y-31628597D01*
X242251402Y-31461506D01*
X242251395Y-31461501D01*
X242057834Y-31325967D01*
X242057830Y-31325965D01*
X241993096Y-31295779D01*
X241843663Y-31226097D01*
X241843659Y-31226096D01*
X241843655Y-31226094D01*
X241615413Y-31164938D01*
X241615403Y-31164936D01*
X241380001Y-31144341D01*
X241379999Y-31144341D01*
X241144596Y-31164936D01*
X241144586Y-31164938D01*
X240916344Y-31226094D01*
X240916335Y-31226098D01*
X240702171Y-31325964D01*
X240702169Y-31325965D01*
X240508597Y-31461505D01*
X240341505Y-31628597D01*
X240211575Y-31814158D01*
X240156998Y-31857783D01*
X240087500Y-31864977D01*
X240025145Y-31833454D01*
X240008425Y-31814158D01*
X239878494Y-31628597D01*
X239711402Y-31461506D01*
X239711395Y-31461501D01*
X239517834Y-31325967D01*
X239517830Y-31325965D01*
X239453096Y-31295779D01*
X239303663Y-31226097D01*
X239303659Y-31226096D01*
X239303655Y-31226094D01*
X239075413Y-31164938D01*
X239075403Y-31164936D01*
X238840001Y-31144341D01*
X238839999Y-31144341D01*
X238604596Y-31164936D01*
X238604586Y-31164938D01*
X238376344Y-31226094D01*
X238376335Y-31226098D01*
X238162171Y-31325964D01*
X238162169Y-31325965D01*
X237968597Y-31461505D01*
X237801505Y-31628597D01*
X237671575Y-31814158D01*
X237616998Y-31857783D01*
X237547500Y-31864977D01*
X237485145Y-31833454D01*
X237468425Y-31814158D01*
X237338494Y-31628597D01*
X237171402Y-31461506D01*
X237171395Y-31461501D01*
X236977834Y-31325967D01*
X236977830Y-31325965D01*
X236913096Y-31295779D01*
X236763663Y-31226097D01*
X236763659Y-31226096D01*
X236763655Y-31226094D01*
X236535413Y-31164938D01*
X236535403Y-31164936D01*
X236300001Y-31144341D01*
X236299999Y-31144341D01*
X236064596Y-31164936D01*
X236064586Y-31164938D01*
X235836344Y-31226094D01*
X235836335Y-31226097D01*
X235725565Y-31277751D01*
X235694040Y-31292452D01*
X235686905Y-31295779D01*
X235617828Y-31306271D01*
X235554044Y-31277751D01*
X235515804Y-31219275D01*
X235510500Y-31183397D01*
X235510500Y-30999995D01*
X259694953Y-30999995D01*
X259694953Y-31000004D01*
X259715113Y-31269026D01*
X259715113Y-31269028D01*
X259775142Y-31532033D01*
X259775148Y-31532052D01*
X259873709Y-31783181D01*
X259873708Y-31783181D01*
X260008600Y-32016818D01*
X260062294Y-32084150D01*
X260062295Y-32084150D01*
X260898958Y-31247487D01*
X260923978Y-31307890D01*
X260995112Y-31414351D01*
X261085649Y-31504888D01*
X261192110Y-31576022D01*
X261252511Y-31601041D01*
X260414848Y-32438703D01*
X260597476Y-32563216D01*
X260597485Y-32563221D01*
X260840539Y-32680269D01*
X260840537Y-32680269D01*
X261098337Y-32759790D01*
X261098343Y-32759792D01*
X261365101Y-32799999D01*
X261365110Y-32800000D01*
X261634890Y-32800000D01*
X261634898Y-32799999D01*
X261901656Y-32759792D01*
X261901662Y-32759790D01*
X262159461Y-32680269D01*
X262402516Y-32563221D01*
X262402517Y-32563220D01*
X262585150Y-32438703D01*
X261747487Y-31601041D01*
X261807890Y-31576022D01*
X261914351Y-31504888D01*
X262004888Y-31414351D01*
X262076022Y-31307890D01*
X262101041Y-31247487D01*
X262937703Y-32084150D01*
X262937704Y-32084149D01*
X262991400Y-32016818D01*
X263126290Y-31783181D01*
X263224851Y-31532052D01*
X263224857Y-31532033D01*
X263284886Y-31269028D01*
X263284886Y-31269026D01*
X263305047Y-31000004D01*
X263305047Y-30999995D01*
X263284886Y-30730973D01*
X263284886Y-30730971D01*
X263224857Y-30467966D01*
X263224851Y-30467947D01*
X263126290Y-30216818D01*
X263126291Y-30216818D01*
X262991400Y-29983182D01*
X262991393Y-29983171D01*
X262937704Y-29915849D01*
X262937703Y-29915848D01*
X262101041Y-30752511D01*
X262076022Y-30692110D01*
X262004888Y-30585649D01*
X261914351Y-30495112D01*
X261807890Y-30423978D01*
X261747488Y-30398958D01*
X262585150Y-29561295D01*
X262402524Y-29436783D01*
X262402516Y-29436778D01*
X262159460Y-29319730D01*
X262159462Y-29319730D01*
X261901662Y-29240209D01*
X261901656Y-29240207D01*
X261634898Y-29200000D01*
X261365101Y-29200000D01*
X261098343Y-29240207D01*
X261098337Y-29240209D01*
X260840538Y-29319730D01*
X260597482Y-29436780D01*
X260597469Y-29436787D01*
X260414848Y-29561294D01*
X261252512Y-30398958D01*
X261192110Y-30423978D01*
X261085649Y-30495112D01*
X260995112Y-30585649D01*
X260923978Y-30692110D01*
X260898958Y-30752512D01*
X260062294Y-29915848D01*
X260008602Y-29983177D01*
X259873709Y-30216818D01*
X259775148Y-30467947D01*
X259775142Y-30467966D01*
X259715113Y-30730971D01*
X259715113Y-30730973D01*
X259694953Y-30999995D01*
X235510500Y-30999995D01*
X235510500Y-30999059D01*
X235510501Y-30999046D01*
X235510501Y-30830945D01*
X235510501Y-30830943D01*
X235469577Y-30678215D01*
X235440639Y-30628095D01*
X235390520Y-30541284D01*
X235278716Y-30429480D01*
X235278715Y-30429479D01*
X235274385Y-30425149D01*
X235274374Y-30425139D01*
X234211314Y-29362079D01*
X234177829Y-29300756D01*
X234179730Y-29240460D01*
X234185115Y-29221536D01*
X234205643Y-29000000D01*
X234185115Y-28778464D01*
X234124229Y-28564472D01*
X234111186Y-28538278D01*
X234025061Y-28365316D01*
X234025056Y-28365308D01*
X233890979Y-28187761D01*
X233726562Y-28037876D01*
X233726560Y-28037874D01*
X233537404Y-27920754D01*
X233537389Y-27920747D01*
X233454413Y-27888602D01*
X233399011Y-27846030D01*
X233375421Y-27780263D01*
X233391132Y-27712182D01*
X233441156Y-27663404D01*
X233454413Y-27657349D01*
X233657177Y-27578798D01*
X233657179Y-27578797D01*
X233846261Y-27461721D01*
X234010608Y-27311900D01*
X234144631Y-27134425D01*
X234243760Y-26935349D01*
X234296495Y-26750000D01*
X233364975Y-26750000D01*
X233400070Y-26714905D01*
X233446148Y-26635095D01*
X233470000Y-26546078D01*
X233470000Y-26499998D01*
X238194532Y-26499998D01*
X238194532Y-26500001D01*
X238214364Y-26726686D01*
X238214366Y-26726697D01*
X238273258Y-26946488D01*
X238273261Y-26946497D01*
X238369431Y-27152732D01*
X238369432Y-27152734D01*
X238499954Y-27339141D01*
X238660858Y-27500045D01*
X238660861Y-27500047D01*
X238847266Y-27630568D01*
X239053504Y-27726739D01*
X239053506Y-27726739D01*
X239053513Y-27726742D01*
X239058003Y-27727945D01*
X239113592Y-27760039D01*
X239453554Y-28100000D01*
X239447339Y-28100000D01*
X239345606Y-28127259D01*
X239254394Y-28179920D01*
X239179920Y-28254394D01*
X239127259Y-28345606D01*
X239100000Y-28447339D01*
X239100000Y-28453552D01*
X238420974Y-27774526D01*
X238420973Y-27774526D01*
X238369868Y-27847512D01*
X238369866Y-27847516D01*
X238273734Y-28053673D01*
X238273730Y-28053682D01*
X238214860Y-28273389D01*
X238214858Y-28273400D01*
X238195034Y-28499997D01*
X238195034Y-28500002D01*
X238214858Y-28726599D01*
X238214860Y-28726610D01*
X238273730Y-28946317D01*
X238273735Y-28946331D01*
X238369863Y-29152478D01*
X238420974Y-29225472D01*
X239100000Y-28546446D01*
X239100000Y-28552661D01*
X239127259Y-28654394D01*
X239179920Y-28745606D01*
X239254394Y-28820080D01*
X239345606Y-28872741D01*
X239447339Y-28900000D01*
X239453553Y-28900000D01*
X238774526Y-29579025D01*
X238847513Y-29630132D01*
X238847521Y-29630136D01*
X239053668Y-29726264D01*
X239053682Y-29726269D01*
X239273389Y-29785139D01*
X239273400Y-29785141D01*
X239499998Y-29804966D01*
X239500002Y-29804966D01*
X239726599Y-29785141D01*
X239726610Y-29785139D01*
X239946317Y-29726269D01*
X239946331Y-29726264D01*
X240152478Y-29630136D01*
X240225471Y-29579024D01*
X239546447Y-28900000D01*
X239552661Y-28900000D01*
X239654394Y-28872741D01*
X239745606Y-28820080D01*
X239820080Y-28745606D01*
X239872741Y-28654394D01*
X239900000Y-28552661D01*
X239900000Y-28546447D01*
X240579024Y-29225471D01*
X240630136Y-29152478D01*
X240726264Y-28946331D01*
X240726269Y-28946317D01*
X240785139Y-28726610D01*
X240785141Y-28726599D01*
X240804966Y-28500002D01*
X240804966Y-28499997D01*
X240785141Y-28273400D01*
X240785139Y-28273389D01*
X240726269Y-28053682D01*
X240726264Y-28053668D01*
X240630136Y-27847521D01*
X240630132Y-27847513D01*
X240579025Y-27774526D01*
X239900000Y-28453551D01*
X239900000Y-28447339D01*
X239872741Y-28345606D01*
X239820080Y-28254394D01*
X239745606Y-28179920D01*
X239654394Y-28127259D01*
X239552661Y-28100000D01*
X239546447Y-28100000D01*
X239886407Y-27760039D01*
X239941996Y-27727945D01*
X239943833Y-27727452D01*
X239946496Y-27726739D01*
X240152734Y-27630568D01*
X240339139Y-27500047D01*
X240500047Y-27339139D01*
X240630568Y-27152734D01*
X240726739Y-26946496D01*
X240785635Y-26726692D01*
X240805468Y-26500000D01*
X240805468Y-26499998D01*
X245194532Y-26499998D01*
X245194532Y-26500001D01*
X245214364Y-26726686D01*
X245214366Y-26726697D01*
X245273258Y-26946488D01*
X245273261Y-26946497D01*
X245369431Y-27152732D01*
X245369432Y-27152734D01*
X245499954Y-27339141D01*
X245660858Y-27500045D01*
X245660861Y-27500047D01*
X245847266Y-27630568D01*
X246053504Y-27726739D01*
X246053506Y-27726739D01*
X246053513Y-27726742D01*
X246058003Y-27727945D01*
X246113592Y-27760039D01*
X246453554Y-28100000D01*
X246447339Y-28100000D01*
X246345606Y-28127259D01*
X246254394Y-28179920D01*
X246179920Y-28254394D01*
X246127259Y-28345606D01*
X246100000Y-28447339D01*
X246100000Y-28453552D01*
X245420974Y-27774526D01*
X245420973Y-27774526D01*
X245369868Y-27847512D01*
X245369866Y-27847516D01*
X245273734Y-28053673D01*
X245273730Y-28053682D01*
X245214860Y-28273389D01*
X245214858Y-28273400D01*
X245195034Y-28499997D01*
X245195034Y-28500002D01*
X245214858Y-28726599D01*
X245214860Y-28726610D01*
X245273730Y-28946317D01*
X245273735Y-28946331D01*
X245369863Y-29152478D01*
X245420974Y-29225472D01*
X246100000Y-28546446D01*
X246100000Y-28552661D01*
X246127259Y-28654394D01*
X246179920Y-28745606D01*
X246254394Y-28820080D01*
X246345606Y-28872741D01*
X246447339Y-28900000D01*
X246453553Y-28900000D01*
X245774526Y-29579025D01*
X245847513Y-29630132D01*
X245847521Y-29630136D01*
X246053668Y-29726264D01*
X246053682Y-29726269D01*
X246273389Y-29785139D01*
X246273400Y-29785141D01*
X246499998Y-29804966D01*
X246500002Y-29804966D01*
X246726599Y-29785141D01*
X246726610Y-29785139D01*
X246946317Y-29726269D01*
X246946331Y-29726264D01*
X247152478Y-29630136D01*
X247225471Y-29579024D01*
X246546447Y-28900000D01*
X246552661Y-28900000D01*
X246654394Y-28872741D01*
X246745606Y-28820080D01*
X246820080Y-28745606D01*
X246872741Y-28654394D01*
X246900000Y-28552661D01*
X246900000Y-28546447D01*
X247579024Y-29225471D01*
X247630136Y-29152478D01*
X247726264Y-28946331D01*
X247726269Y-28946317D01*
X247785139Y-28726610D01*
X247785141Y-28726599D01*
X247804966Y-28500002D01*
X247804966Y-28499997D01*
X247785141Y-28273400D01*
X247785139Y-28273389D01*
X247726269Y-28053682D01*
X247726264Y-28053668D01*
X247630136Y-27847521D01*
X247630132Y-27847513D01*
X247579025Y-27774526D01*
X246900000Y-28453551D01*
X246900000Y-28447339D01*
X246872741Y-28345606D01*
X246820080Y-28254394D01*
X246745606Y-28179920D01*
X246654394Y-28127259D01*
X246552661Y-28100000D01*
X246546447Y-28100000D01*
X246886407Y-27760039D01*
X246941996Y-27727945D01*
X246943833Y-27727452D01*
X246946496Y-27726739D01*
X247152734Y-27630568D01*
X247339139Y-27500047D01*
X247500047Y-27339139D01*
X247630568Y-27152734D01*
X247726739Y-26946496D01*
X247785635Y-26726692D01*
X247805468Y-26500000D01*
X247785635Y-26273308D01*
X247726739Y-26053504D01*
X247630568Y-25847266D01*
X247500047Y-25660861D01*
X247500045Y-25660858D01*
X247339141Y-25499954D01*
X247152734Y-25369432D01*
X247152732Y-25369431D01*
X246946497Y-25273261D01*
X246946488Y-25273258D01*
X246726697Y-25214366D01*
X246726693Y-25214365D01*
X246726692Y-25214365D01*
X246726691Y-25214364D01*
X246726686Y-25214364D01*
X246500002Y-25194532D01*
X246499998Y-25194532D01*
X246273313Y-25214364D01*
X246273302Y-25214366D01*
X246053511Y-25273258D01*
X246053502Y-25273261D01*
X245847267Y-25369431D01*
X245847265Y-25369432D01*
X245660858Y-25499954D01*
X245499954Y-25660858D01*
X245369432Y-25847265D01*
X245369431Y-25847267D01*
X245273261Y-26053502D01*
X245273258Y-26053511D01*
X245214366Y-26273302D01*
X245214364Y-26273313D01*
X245194532Y-26499998D01*
X240805468Y-26499998D01*
X240785635Y-26273308D01*
X240726739Y-26053504D01*
X240630568Y-25847266D01*
X240500047Y-25660861D01*
X240500045Y-25660858D01*
X240339141Y-25499954D01*
X240152734Y-25369432D01*
X240152732Y-25369431D01*
X239946497Y-25273261D01*
X239946488Y-25273258D01*
X239726697Y-25214366D01*
X239726693Y-25214365D01*
X239726692Y-25214365D01*
X239726691Y-25214364D01*
X239726686Y-25214364D01*
X239500002Y-25194532D01*
X239499998Y-25194532D01*
X239273313Y-25214364D01*
X239273302Y-25214366D01*
X239053511Y-25273258D01*
X239053502Y-25273261D01*
X238847267Y-25369431D01*
X238847265Y-25369432D01*
X238660858Y-25499954D01*
X238499954Y-25660858D01*
X238369432Y-25847265D01*
X238369431Y-25847267D01*
X238273261Y-26053502D01*
X238273258Y-26053511D01*
X238214366Y-26273302D01*
X238214364Y-26273313D01*
X238194532Y-26499998D01*
X233470000Y-26499998D01*
X233470000Y-26453922D01*
X233446148Y-26364905D01*
X233400070Y-26285095D01*
X233364975Y-26250000D01*
X233370000Y-26250000D01*
X234296495Y-26250000D01*
X234243760Y-26064650D01*
X234144631Y-25865574D01*
X234010608Y-25688099D01*
X233846261Y-25538278D01*
X233657179Y-25421202D01*
X233657177Y-25421201D01*
X233449799Y-25340864D01*
X233370000Y-25325946D01*
X233370000Y-26250000D01*
X233364975Y-26250000D01*
X233334905Y-26219930D01*
X233255095Y-26173852D01*
X233166078Y-26150000D01*
X233073922Y-26150000D01*
X232984905Y-26173852D01*
X232905095Y-26219930D01*
X232839930Y-26285095D01*
X232793852Y-26364905D01*
X232770000Y-26453922D01*
X232770000Y-26546078D01*
X232793852Y-26635095D01*
X232839930Y-26714905D01*
X232875025Y-26750000D01*
X231943505Y-26750000D01*
X231996239Y-26935349D01*
X232095368Y-27134425D01*
X232229391Y-27311900D01*
X232393738Y-27461721D01*
X232582820Y-27578797D01*
X232582822Y-27578798D01*
X232665587Y-27610861D01*
X232720988Y-27653434D01*
X232744579Y-27719201D01*
X232728868Y-27787281D01*
X232678844Y-27836060D01*
X232665589Y-27842114D01*
X232651653Y-27847513D01*
X232462601Y-27920751D01*
X232462595Y-27920754D01*
X232273439Y-28037874D01*
X232273437Y-28037876D01*
X232109020Y-28187761D01*
X231974943Y-28365308D01*
X231974938Y-28365316D01*
X231875775Y-28564461D01*
X231875769Y-28564476D01*
X231814885Y-28778462D01*
X231814884Y-28778464D01*
X231794357Y-28999999D01*
X231794357Y-29000000D01*
X231814884Y-29221535D01*
X231814885Y-29221537D01*
X231875769Y-29435523D01*
X231875775Y-29435538D01*
X231974938Y-29634683D01*
X231974943Y-29634691D01*
X232109020Y-29812238D01*
X232273437Y-29962123D01*
X232273439Y-29962125D01*
X232462595Y-30079245D01*
X232462596Y-30079245D01*
X232462599Y-30079247D01*
X232670060Y-30159618D01*
X232888757Y-30200500D01*
X232888759Y-30200500D01*
X233111241Y-30200500D01*
X233111243Y-30200500D01*
X233249215Y-30174708D01*
X233318730Y-30181739D01*
X233359681Y-30208916D01*
X234106179Y-30955414D01*
X234139664Y-31016737D01*
X234134680Y-31086429D01*
X234092808Y-31142362D01*
X234027344Y-31166779D01*
X233996978Y-31165213D01*
X233995417Y-31164937D01*
X233760001Y-31144341D01*
X233759999Y-31144341D01*
X233524596Y-31164936D01*
X233524586Y-31164938D01*
X233296344Y-31226094D01*
X233296335Y-31226098D01*
X233082171Y-31325964D01*
X233082169Y-31325965D01*
X232888597Y-31461505D01*
X232721505Y-31628597D01*
X232591575Y-31814158D01*
X232536998Y-31857783D01*
X232467500Y-31864977D01*
X232405145Y-31833454D01*
X232388425Y-31814158D01*
X232258494Y-31628597D01*
X232091402Y-31461506D01*
X232091395Y-31461501D01*
X231897834Y-31325967D01*
X231897830Y-31325965D01*
X231833096Y-31295779D01*
X231683663Y-31226097D01*
X231683659Y-31226096D01*
X231683655Y-31226094D01*
X231455413Y-31164938D01*
X231455403Y-31164936D01*
X231220001Y-31144341D01*
X231219999Y-31144341D01*
X230984596Y-31164936D01*
X230984586Y-31164938D01*
X230756344Y-31226094D01*
X230756335Y-31226098D01*
X230542171Y-31325964D01*
X230542169Y-31325965D01*
X230348597Y-31461505D01*
X230181505Y-31628597D01*
X230051575Y-31814158D01*
X229996998Y-31857783D01*
X229927500Y-31864977D01*
X229865145Y-31833454D01*
X229848425Y-31814158D01*
X229718494Y-31628597D01*
X229551402Y-31461506D01*
X229551395Y-31461501D01*
X229357834Y-31325967D01*
X229357830Y-31325965D01*
X229293096Y-31295779D01*
X229143663Y-31226097D01*
X229143659Y-31226096D01*
X229143655Y-31226094D01*
X228915413Y-31164938D01*
X228915403Y-31164936D01*
X228680001Y-31144341D01*
X228679999Y-31144341D01*
X228444596Y-31164936D01*
X228444586Y-31164938D01*
X228216344Y-31226094D01*
X228216335Y-31226098D01*
X228002171Y-31325964D01*
X228002169Y-31325965D01*
X227808597Y-31461505D01*
X227641505Y-31628597D01*
X227511575Y-31814158D01*
X227456998Y-31857783D01*
X227387500Y-31864977D01*
X227325145Y-31833454D01*
X227308425Y-31814158D01*
X227178494Y-31628597D01*
X227011402Y-31461506D01*
X227011395Y-31461501D01*
X226817834Y-31325967D01*
X226817830Y-31325965D01*
X226753096Y-31295779D01*
X226603663Y-31226097D01*
X226603659Y-31226096D01*
X226603655Y-31226094D01*
X226375413Y-31164938D01*
X226375403Y-31164936D01*
X226140001Y-31144341D01*
X226139999Y-31144341D01*
X225904596Y-31164936D01*
X225904586Y-31164938D01*
X225676344Y-31226094D01*
X225676335Y-31226098D01*
X225462171Y-31325964D01*
X225462169Y-31325965D01*
X225268597Y-31461505D01*
X225101505Y-31628597D01*
X224971575Y-31814158D01*
X224916998Y-31857783D01*
X224847500Y-31864977D01*
X224785145Y-31833454D01*
X224768425Y-31814158D01*
X224638494Y-31628597D01*
X224471402Y-31461506D01*
X224471395Y-31461501D01*
X224277834Y-31325967D01*
X224277830Y-31325965D01*
X224213096Y-31295779D01*
X224063663Y-31226097D01*
X224063659Y-31226096D01*
X224063655Y-31226094D01*
X223835413Y-31164938D01*
X223835403Y-31164936D01*
X223600001Y-31144341D01*
X223599999Y-31144341D01*
X223364596Y-31164936D01*
X223364586Y-31164938D01*
X223136344Y-31226094D01*
X223136335Y-31226098D01*
X222922171Y-31325964D01*
X222922169Y-31325965D01*
X222728600Y-31461503D01*
X222606673Y-31583430D01*
X222545350Y-31616914D01*
X222475658Y-31611930D01*
X222419725Y-31570058D01*
X222402810Y-31539081D01*
X222353797Y-31407671D01*
X222353793Y-31407664D01*
X222267547Y-31292455D01*
X222267544Y-31292452D01*
X222152335Y-31206206D01*
X222152328Y-31206202D01*
X222017482Y-31155908D01*
X222017483Y-31155908D01*
X221957883Y-31149501D01*
X221957881Y-31149500D01*
X221957873Y-31149500D01*
X221957865Y-31149500D01*
X221129147Y-31149500D01*
X221062108Y-31129815D01*
X221016353Y-31077011D01*
X221006409Y-31007853D01*
X221035434Y-30944297D01*
X221041466Y-30937819D01*
X221320150Y-30659135D01*
X221612882Y-30366402D01*
X221674203Y-30332919D01*
X221743894Y-30337903D01*
X221784096Y-30362445D01*
X221893438Y-30462124D01*
X221893440Y-30462125D01*
X221893441Y-30462126D01*
X222082595Y-30579245D01*
X222082596Y-30579245D01*
X222082599Y-30579247D01*
X222290060Y-30659618D01*
X222508757Y-30700500D01*
X222508759Y-30700500D01*
X222731241Y-30700500D01*
X222731243Y-30700500D01*
X222949940Y-30659618D01*
X223157401Y-30579247D01*
X223346562Y-30462124D01*
X223510981Y-30312236D01*
X223645058Y-30134689D01*
X223744229Y-29935528D01*
X223805115Y-29721536D01*
X223825643Y-29500000D01*
X223805115Y-29278464D01*
X223797016Y-29250000D01*
X224203505Y-29250000D01*
X224256239Y-29435349D01*
X224355368Y-29634425D01*
X224489391Y-29811900D01*
X224653738Y-29961721D01*
X224842820Y-30078797D01*
X224842822Y-30078798D01*
X225050195Y-30159135D01*
X225130000Y-30174052D01*
X225630000Y-30174052D01*
X225709804Y-30159135D01*
X225917177Y-30078798D01*
X225917179Y-30078797D01*
X226106261Y-29961721D01*
X226270608Y-29811900D01*
X226404631Y-29634425D01*
X226503760Y-29435349D01*
X226556495Y-29250000D01*
X225630000Y-29250000D01*
X225630000Y-30174052D01*
X225130000Y-30174052D01*
X225130000Y-29250000D01*
X224203505Y-29250000D01*
X223797016Y-29250000D01*
X223767733Y-29147079D01*
X223768319Y-29077213D01*
X223806586Y-29018754D01*
X223824995Y-29005761D01*
X223868716Y-28980520D01*
X223980520Y-28868716D01*
X223980520Y-28868714D01*
X223990721Y-28858514D01*
X223990724Y-28858509D01*
X224062917Y-28786316D01*
X224124239Y-28752834D01*
X224150596Y-28750000D01*
X225135025Y-28750000D01*
X225099930Y-28785095D01*
X225053852Y-28864905D01*
X225030000Y-28953922D01*
X225030000Y-29046078D01*
X225053852Y-29135095D01*
X225099930Y-29214905D01*
X225165095Y-29280070D01*
X225244905Y-29326148D01*
X225333922Y-29350000D01*
X225426078Y-29350000D01*
X225515095Y-29326148D01*
X225594905Y-29280070D01*
X225660070Y-29214905D01*
X225706148Y-29135095D01*
X225730000Y-29046078D01*
X225730000Y-28953922D01*
X225706148Y-28864905D01*
X225660070Y-28785095D01*
X225624975Y-28750000D01*
X226556495Y-28750000D01*
X226503760Y-28564650D01*
X226404631Y-28365574D01*
X226270608Y-28188099D01*
X226106261Y-28038278D01*
X225917179Y-27921202D01*
X225917168Y-27921197D01*
X225834412Y-27889137D01*
X225779010Y-27846565D01*
X225755420Y-27780798D01*
X225771131Y-27712717D01*
X225821155Y-27663939D01*
X225834396Y-27657891D01*
X226037401Y-27579247D01*
X226226562Y-27462124D01*
X226390981Y-27312236D01*
X226525058Y-27134689D01*
X226624229Y-26935528D01*
X226685115Y-26721536D01*
X226705643Y-26500000D01*
X226685115Y-26278464D01*
X226677016Y-26250000D01*
X231943505Y-26250000D01*
X232870000Y-26250000D01*
X232870000Y-25325946D01*
X232790200Y-25340864D01*
X232582822Y-25421201D01*
X232582820Y-25421202D01*
X232393738Y-25538278D01*
X232229391Y-25688099D01*
X232095368Y-25865574D01*
X231996239Y-26064650D01*
X231943505Y-26250000D01*
X226677016Y-26250000D01*
X226624229Y-26064472D01*
X226624224Y-26064461D01*
X226525061Y-25865316D01*
X226525056Y-25865308D01*
X226390979Y-25687761D01*
X226226562Y-25537876D01*
X226226560Y-25537874D01*
X226037404Y-25420754D01*
X226037398Y-25420752D01*
X225829940Y-25340382D01*
X225611243Y-25299500D01*
X225388757Y-25299500D01*
X225170060Y-25340382D01*
X225038864Y-25391207D01*
X224962601Y-25420752D01*
X224962595Y-25420754D01*
X224773439Y-25537874D01*
X224773437Y-25537876D01*
X224609020Y-25687761D01*
X224474943Y-25865308D01*
X224474938Y-25865316D01*
X224375775Y-26064461D01*
X224375769Y-26064476D01*
X224314885Y-26278462D01*
X224314884Y-26278464D01*
X224294357Y-26499999D01*
X224294357Y-26500000D01*
X224314885Y-26721537D01*
X224320270Y-26740463D01*
X224319683Y-26810330D01*
X224288685Y-26862078D01*
X223903023Y-27247740D01*
X223841700Y-27281225D01*
X223772008Y-27276241D01*
X223716075Y-27234369D01*
X223691658Y-27168905D01*
X223691870Y-27148627D01*
X223705643Y-27000000D01*
X223700684Y-26946488D01*
X223685115Y-26778464D01*
X223685114Y-26778462D01*
X223681462Y-26765628D01*
X223624229Y-26564472D01*
X223615070Y-26546078D01*
X223525061Y-26365316D01*
X223525056Y-26365308D01*
X223390979Y-26187761D01*
X223226562Y-26037876D01*
X223226560Y-26037874D01*
X223037404Y-25920754D01*
X223037395Y-25920750D01*
X222965560Y-25892921D01*
X222895101Y-25865625D01*
X222839701Y-25823054D01*
X222816110Y-25757288D01*
X222831821Y-25689207D01*
X222881844Y-25640428D01*
X222895093Y-25634377D01*
X223037401Y-25579247D01*
X223226562Y-25462124D01*
X223390981Y-25312236D01*
X223525058Y-25134689D01*
X223624229Y-24935528D01*
X223685115Y-24721536D01*
X223691546Y-24652135D01*
X259699500Y-24652135D01*
X259699500Y-27347870D01*
X259699501Y-27347876D01*
X259705908Y-27407483D01*
X259756202Y-27542328D01*
X259756206Y-27542335D01*
X259842452Y-27657544D01*
X259842455Y-27657547D01*
X259957664Y-27743793D01*
X259957671Y-27743797D01*
X260092517Y-27794091D01*
X260092516Y-27794091D01*
X260099444Y-27794835D01*
X260152127Y-27800500D01*
X262847872Y-27800499D01*
X262907483Y-27794091D01*
X263042331Y-27743796D01*
X263157546Y-27657546D01*
X263243796Y-27542331D01*
X263294091Y-27407483D01*
X263300500Y-27347873D01*
X263300499Y-24652128D01*
X263294091Y-24592517D01*
X263259584Y-24500000D01*
X263243797Y-24457671D01*
X263243793Y-24457664D01*
X263157547Y-24342455D01*
X263157544Y-24342452D01*
X263042335Y-24256206D01*
X263042328Y-24256202D01*
X262907482Y-24205908D01*
X262907483Y-24205908D01*
X262847883Y-24199501D01*
X262847881Y-24199500D01*
X262847873Y-24199500D01*
X262847864Y-24199500D01*
X260152129Y-24199500D01*
X260152123Y-24199501D01*
X260092516Y-24205908D01*
X259957671Y-24256202D01*
X259957664Y-24256206D01*
X259842455Y-24342452D01*
X259842452Y-24342455D01*
X259756206Y-24457664D01*
X259756202Y-24457671D01*
X259705908Y-24592517D01*
X259699501Y-24652116D01*
X259699501Y-24652123D01*
X259699500Y-24652135D01*
X223691546Y-24652135D01*
X223705643Y-24500000D01*
X223685115Y-24278464D01*
X223624229Y-24064472D01*
X223624224Y-24064461D01*
X223525061Y-23865316D01*
X223525056Y-23865308D01*
X223390979Y-23687761D01*
X223226562Y-23537876D01*
X223226560Y-23537874D01*
X223037404Y-23420754D01*
X223037398Y-23420752D01*
X222829940Y-23340382D01*
X222611243Y-23299500D01*
X222388757Y-23299500D01*
X222170060Y-23340382D01*
X222038864Y-23391207D01*
X221962601Y-23420752D01*
X221962595Y-23420754D01*
X221773439Y-23537874D01*
X221773437Y-23537876D01*
X221609020Y-23687761D01*
X221474943Y-23865308D01*
X221474938Y-23865316D01*
X221375775Y-24064461D01*
X221375769Y-24064476D01*
X221314885Y-24278462D01*
X221314884Y-24278464D01*
X221294357Y-24499999D01*
X221294357Y-24500000D01*
X221314884Y-24721534D01*
X221320270Y-24740461D01*
X221319684Y-24810328D01*
X221288685Y-24862077D01*
X218812181Y-27338582D01*
X218750858Y-27372067D01*
X218681166Y-27367083D01*
X218625233Y-27325211D01*
X218600816Y-27259747D01*
X218600500Y-27250901D01*
X218600500Y-26175733D01*
X218600501Y-26175708D01*
X218600501Y-25989499D01*
X218572172Y-25810641D01*
X218523101Y-25659618D01*
X218516211Y-25638412D01*
X218516209Y-25638409D01*
X218516209Y-25638407D01*
X218486065Y-25579247D01*
X218486065Y-25579246D01*
X218433997Y-25477058D01*
X218433996Y-25477057D01*
X218327559Y-25330557D01*
X218327555Y-25330553D01*
X218327553Y-25330550D01*
X218199501Y-25202498D01*
X218199500Y-25202497D01*
X218196396Y-25199393D01*
X218196367Y-25199366D01*
X216751842Y-23754840D01*
X216751833Y-23754830D01*
X216747502Y-23750499D01*
X216619450Y-23622447D01*
X216619446Y-23622444D01*
X216619442Y-23622440D01*
X216472946Y-23516006D01*
X216472945Y-23516005D01*
X216472943Y-23516004D01*
X216421249Y-23489664D01*
X216311588Y-23433788D01*
X216311585Y-23433787D01*
X216139359Y-23377829D01*
X216049926Y-23363664D01*
X215960495Y-23349499D01*
X215779403Y-23349499D01*
X215774292Y-23349499D01*
X215774268Y-23349500D01*
X215256655Y-23349500D01*
X215215496Y-23341805D01*
X215215455Y-23341951D01*
X215213889Y-23341505D01*
X215211861Y-23341126D01*
X215209940Y-23340382D01*
X214991243Y-23299500D01*
X214768757Y-23299500D01*
X214550060Y-23340382D01*
X214418864Y-23391207D01*
X214342601Y-23420752D01*
X214342595Y-23420754D01*
X214153439Y-23537874D01*
X214153437Y-23537876D01*
X213989020Y-23687761D01*
X213854943Y-23865308D01*
X213854938Y-23865316D01*
X213755775Y-24064461D01*
X213755770Y-24064474D01*
X213743766Y-24106666D01*
X213706487Y-24165759D01*
X213643177Y-24195316D01*
X213573937Y-24185954D01*
X213520751Y-24140644D01*
X213500504Y-24073772D01*
X213500500Y-24072731D01*
X213500500Y-23124500D01*
X213520185Y-23057461D01*
X213572989Y-23011706D01*
X213624500Y-23000500D01*
X266875500Y-23000500D01*
X266942539Y-23020185D01*
G37*
%TD.AperFunction*%
%TD*%
M02*
