M48
; DRILL file {KiCad 8.0.7} date 2025-02-10T21:08:09+0100
; FORMAT={-:-/ absolute / inch / decimal}
; #@! TF.CreationDate,2025-02-10T21:08:09+01:00
; #@! TF.GenerationSoftware,Kicad,Pcbnew,8.0.7
; #@! TF.FileFunction,Plated,1,2,PTH
FMAT,2
INCH
; #@! TA.AperFunction,Plated,PTH,ViaDrill
T1C0.0118
; #@! TA.AperFunction,Plated,PTH,ViaDrill
T2C0.0276
; #@! TA.AperFunction,Plated,PTH,ComponentDrill
T3C0.0276
; #@! TA.AperFunction,Plated,PTH,ComponentDrill
T4C0.0315
; #@! TA.AperFunction,Plated,PTH,ComponentDrill
T5C0.0354
; #@! TA.AperFunction,Plated,PTH,ViaDrill
T6C0.0394
; #@! TA.AperFunction,Plated,PTH,ComponentDrill
T7C0.0394
; #@! TA.AperFunction,Plated,PTH,ComponentDrill
T8C0.0512
; #@! TA.AperFunction,Plated,PTH,ComponentDrill
T9C0.1063
%
G90
G05
T1
X7.4213Y-3.6661
X7.4409Y-3.622
X7.4606Y-3.5827
T2
X9.7Y-1.9685
T3
X3.9764Y-3.85
X3.9764Y-4.15
X4.225Y-3.85
X4.225Y-4.15
X4.825Y-3.85
X4.825Y-4.15
X5.425Y-3.85
X5.425Y-4.15
X5.9646Y-3.85
X5.9646Y-4.15
X6.975Y-3.85
X6.975Y-4.15
X7.575Y-3.85
X7.575Y-4.15
X7.675Y-3.85
X7.675Y-4.15
X8.15Y-4.1
X8.45Y-4.1
X8.4598Y-0.9646
X8.4598Y-1.063
X8.4646Y-1.1614
X8.75Y-4.15
X8.7598Y-0.9646
X8.7598Y-1.063
X8.7646Y-1.1614
X8.8732Y-1.1417
X8.878Y-1.0433
X9.05Y-4.15
X9.1732Y-1.1417
X9.178Y-1.0433
X9.3504Y-4.1535
X9.6504Y-4.1535
X10.1378Y-3.878
X10.1378Y-4.178
T4
X6.1494Y-3.5827
X6.1494Y-3.8827
X6.2494Y-3.5827
X6.2494Y-3.8827
X6.3494Y-3.5827
X6.3494Y-3.8827
X6.4494Y-3.5827
X6.4494Y-3.8827
X6.5494Y-3.5827
X6.5494Y-3.8827
X6.6494Y-3.5827
X6.6494Y-3.8827
X6.7494Y-3.5827
X6.7494Y-3.8827
X6.8494Y-3.5827
X6.8494Y-3.8827
X7.8494Y-3.5756
X7.8494Y-3.8756
X7.9494Y-3.5756
X7.9494Y-3.8756
X8.0494Y-3.5756
X8.0494Y-3.8756
X8.1494Y-3.5756
X8.1494Y-3.8756
X8.2494Y-3.5756
X8.2494Y-3.8756
X8.3494Y-3.5756
X8.3494Y-3.8756
X8.4494Y-3.5756
X8.4494Y-3.8756
X8.5494Y-3.5756
X8.5494Y-3.8756
X9.4291Y-1.0433
X9.4291Y-1.122
X9.7047Y-1.0433
X9.7047Y-1.122
T5
X3.8Y-4.0252
X3.8Y-4.1252
X4.4Y-4.025
X4.4Y-4.125
X5.0Y-4.0252
X5.0Y-4.1252
X5.6Y-4.0252
X5.6Y-4.1252
X6.2Y-4.0252
X6.2Y-4.1252
X6.8Y-4.025
X6.8Y-4.125
X7.4Y-4.025
X7.4Y-4.125
X8.0Y-4.0252
X8.0Y-4.1252
X8.6Y-4.025
X8.6Y-4.125
X9.2Y-4.025
X9.2Y-4.125
X9.8Y-4.0252
X9.8Y-4.1252
X10.3937Y-4.025
X10.3937Y-4.125
T6
X8.878Y-3.8697
X10.1181Y-3.7303
T7
X8.6571Y-2.6959
X8.7031Y-1.2795
X8.7571Y-2.6959
X8.798Y-1.473
X8.798Y-2.473
X8.8031Y-1.2795
X8.8571Y-2.6959
X8.898Y-1.473
X8.898Y-2.473
X8.9031Y-1.2795
X8.9571Y-2.6959
X8.998Y-1.473
X8.998Y-2.473
X9.0031Y-1.2795
X9.0571Y-2.6959
X9.0941Y-2.472
X9.098Y-1.473
X9.1031Y-1.2795
X9.198Y-1.473
X9.198Y-2.473
X9.2031Y-1.2795
X9.298Y-1.473
X9.298Y-2.472
X9.3031Y-1.2795
X9.3622Y-2.6969
X9.3622Y-3.5827
X9.3638Y-3.8189
X9.398Y-1.473
X9.398Y-2.473
X9.4031Y-1.2795
X9.4622Y-2.6969
X9.4622Y-3.5827
X9.4638Y-3.8189
X9.498Y-1.473
X9.498Y-2.473
X9.5031Y-1.2795
X9.5622Y-2.6969
X9.5622Y-3.5827
X9.5638Y-3.8189
X9.598Y-1.473
X9.598Y-2.473
X9.6031Y-1.2795
X9.6622Y-2.6969
X9.6622Y-3.5827
X9.6638Y-3.8189
X9.698Y-1.473
X9.698Y-2.473
X9.7031Y-1.2795
X9.7622Y-2.6969
X9.7622Y-3.5827
X9.7638Y-3.8189
X9.798Y-1.473
X9.798Y-2.473
X9.8031Y-1.2795
X9.8622Y-2.6969
X9.8622Y-3.5827
X9.8638Y-3.8189
X9.898Y-1.473
X9.898Y-2.473
X9.9031Y-1.2795
X9.9622Y-2.6969
X9.9622Y-3.5827
X9.9638Y-3.8189
X9.998Y-1.473
X9.998Y-2.473
X10.098Y-1.473
X10.098Y-2.473
X10.198Y-1.473
X10.198Y-2.473
X10.2165Y-2.6969
X10.3165Y-2.6969
X10.4165Y-2.6969
T8
X10.2953Y-1.0236
X10.2953Y-1.2205
T9
X3.8386Y-3.6614
M30
