%TF.GenerationSoftware,KiCad,Pcbnew,8.0.7*%
%TF.CreationDate,2025-02-10T21:08:13+01:00*%
%TF.ProjectId,stib_display,73746962-5f64-4697-9370-6c61792e6b69,2*%
%TF.SameCoordinates,Original*%
%TF.FileFunction,Legend,Top*%
%TF.FilePolarity,Positive*%
%FSLAX46Y46*%
G04 Gerber Fmt 4.6, Leading zero omitted, Abs format (unit mm)*
G04 Created by KiCad (PCBNEW 8.0.7) date 2025-02-10 21:08:13*
%MOMM*%
%LPD*%
G01*
G04 APERTURE LIST*
%ADD10C,0.150000*%
%ADD11C,0.120000*%
G04 APERTURE END LIST*
D10*
X238454819Y-104719285D02*
X237454819Y-104719285D01*
X237454819Y-104719285D02*
X237454819Y-104481190D01*
X237454819Y-104481190D02*
X237502438Y-104338333D01*
X237502438Y-104338333D02*
X237597676Y-104243095D01*
X237597676Y-104243095D02*
X237692914Y-104195476D01*
X237692914Y-104195476D02*
X237883390Y-104147857D01*
X237883390Y-104147857D02*
X238026247Y-104147857D01*
X238026247Y-104147857D02*
X238216723Y-104195476D01*
X238216723Y-104195476D02*
X238311961Y-104243095D01*
X238311961Y-104243095D02*
X238407200Y-104338333D01*
X238407200Y-104338333D02*
X238454819Y-104481190D01*
X238454819Y-104481190D02*
X238454819Y-104719285D01*
X238454819Y-103195476D02*
X238454819Y-103766904D01*
X238454819Y-103481190D02*
X237454819Y-103481190D01*
X237454819Y-103481190D02*
X237597676Y-103576428D01*
X237597676Y-103576428D02*
X237692914Y-103671666D01*
X237692914Y-103671666D02*
X237740533Y-103766904D01*
X237454819Y-102576428D02*
X237454819Y-102481190D01*
X237454819Y-102481190D02*
X237502438Y-102385952D01*
X237502438Y-102385952D02*
X237550057Y-102338333D01*
X237550057Y-102338333D02*
X237645295Y-102290714D01*
X237645295Y-102290714D02*
X237835771Y-102243095D01*
X237835771Y-102243095D02*
X238073866Y-102243095D01*
X238073866Y-102243095D02*
X238264342Y-102290714D01*
X238264342Y-102290714D02*
X238359580Y-102338333D01*
X238359580Y-102338333D02*
X238407200Y-102385952D01*
X238407200Y-102385952D02*
X238454819Y-102481190D01*
X238454819Y-102481190D02*
X238454819Y-102576428D01*
X238454819Y-102576428D02*
X238407200Y-102671666D01*
X238407200Y-102671666D02*
X238359580Y-102719285D01*
X238359580Y-102719285D02*
X238264342Y-102766904D01*
X238264342Y-102766904D02*
X238073866Y-102814523D01*
X238073866Y-102814523D02*
X237835771Y-102814523D01*
X237835771Y-102814523D02*
X237645295Y-102766904D01*
X237645295Y-102766904D02*
X237550057Y-102719285D01*
X237550057Y-102719285D02*
X237502438Y-102671666D01*
X237502438Y-102671666D02*
X237454819Y-102576428D01*
X169214819Y-104243094D02*
X168214819Y-104243094D01*
X168214819Y-104243094D02*
X168214819Y-104004999D01*
X168214819Y-104004999D02*
X168262438Y-103862142D01*
X168262438Y-103862142D02*
X168357676Y-103766904D01*
X168357676Y-103766904D02*
X168452914Y-103719285D01*
X168452914Y-103719285D02*
X168643390Y-103671666D01*
X168643390Y-103671666D02*
X168786247Y-103671666D01*
X168786247Y-103671666D02*
X168976723Y-103719285D01*
X168976723Y-103719285D02*
X169071961Y-103766904D01*
X169071961Y-103766904D02*
X169167200Y-103862142D01*
X169167200Y-103862142D02*
X169214819Y-104004999D01*
X169214819Y-104004999D02*
X169214819Y-104243094D01*
X168214819Y-102814523D02*
X168214819Y-103004999D01*
X168214819Y-103004999D02*
X168262438Y-103100237D01*
X168262438Y-103100237D02*
X168310057Y-103147856D01*
X168310057Y-103147856D02*
X168452914Y-103243094D01*
X168452914Y-103243094D02*
X168643390Y-103290713D01*
X168643390Y-103290713D02*
X169024342Y-103290713D01*
X169024342Y-103290713D02*
X169119580Y-103243094D01*
X169119580Y-103243094D02*
X169167200Y-103195475D01*
X169167200Y-103195475D02*
X169214819Y-103100237D01*
X169214819Y-103100237D02*
X169214819Y-102909761D01*
X169214819Y-102909761D02*
X169167200Y-102814523D01*
X169167200Y-102814523D02*
X169119580Y-102766904D01*
X169119580Y-102766904D02*
X169024342Y-102719285D01*
X169024342Y-102719285D02*
X168786247Y-102719285D01*
X168786247Y-102719285D02*
X168691009Y-102766904D01*
X168691009Y-102766904D02*
X168643390Y-102814523D01*
X168643390Y-102814523D02*
X168595771Y-102909761D01*
X168595771Y-102909761D02*
X168595771Y-103100237D01*
X168595771Y-103100237D02*
X168643390Y-103195475D01*
X168643390Y-103195475D02*
X168691009Y-103243094D01*
X168691009Y-103243094D02*
X168786247Y-103290713D01*
X260644819Y-104719285D02*
X259644819Y-104719285D01*
X259644819Y-104719285D02*
X259644819Y-104481190D01*
X259644819Y-104481190D02*
X259692438Y-104338333D01*
X259692438Y-104338333D02*
X259787676Y-104243095D01*
X259787676Y-104243095D02*
X259882914Y-104195476D01*
X259882914Y-104195476D02*
X260073390Y-104147857D01*
X260073390Y-104147857D02*
X260216247Y-104147857D01*
X260216247Y-104147857D02*
X260406723Y-104195476D01*
X260406723Y-104195476D02*
X260501961Y-104243095D01*
X260501961Y-104243095D02*
X260597200Y-104338333D01*
X260597200Y-104338333D02*
X260644819Y-104481190D01*
X260644819Y-104481190D02*
X260644819Y-104719285D01*
X260644819Y-103195476D02*
X260644819Y-103766904D01*
X260644819Y-103481190D02*
X259644819Y-103481190D01*
X259644819Y-103481190D02*
X259787676Y-103576428D01*
X259787676Y-103576428D02*
X259882914Y-103671666D01*
X259882914Y-103671666D02*
X259930533Y-103766904D01*
X259740057Y-102814523D02*
X259692438Y-102766904D01*
X259692438Y-102766904D02*
X259644819Y-102671666D01*
X259644819Y-102671666D02*
X259644819Y-102433571D01*
X259644819Y-102433571D02*
X259692438Y-102338333D01*
X259692438Y-102338333D02*
X259740057Y-102290714D01*
X259740057Y-102290714D02*
X259835295Y-102243095D01*
X259835295Y-102243095D02*
X259930533Y-102243095D01*
X259930533Y-102243095D02*
X260073390Y-102290714D01*
X260073390Y-102290714D02*
X260644819Y-102862142D01*
X260644819Y-102862142D02*
X260644819Y-102243095D01*
X199694819Y-104248094D02*
X198694819Y-104248094D01*
X198694819Y-104248094D02*
X198694819Y-104009999D01*
X198694819Y-104009999D02*
X198742438Y-103867142D01*
X198742438Y-103867142D02*
X198837676Y-103771904D01*
X198837676Y-103771904D02*
X198932914Y-103724285D01*
X198932914Y-103724285D02*
X199123390Y-103676666D01*
X199123390Y-103676666D02*
X199266247Y-103676666D01*
X199266247Y-103676666D02*
X199456723Y-103724285D01*
X199456723Y-103724285D02*
X199551961Y-103771904D01*
X199551961Y-103771904D02*
X199647200Y-103867142D01*
X199647200Y-103867142D02*
X199694819Y-104009999D01*
X199694819Y-104009999D02*
X199694819Y-104248094D01*
X199123390Y-103105237D02*
X199075771Y-103200475D01*
X199075771Y-103200475D02*
X199028152Y-103248094D01*
X199028152Y-103248094D02*
X198932914Y-103295713D01*
X198932914Y-103295713D02*
X198885295Y-103295713D01*
X198885295Y-103295713D02*
X198790057Y-103248094D01*
X198790057Y-103248094D02*
X198742438Y-103200475D01*
X198742438Y-103200475D02*
X198694819Y-103105237D01*
X198694819Y-103105237D02*
X198694819Y-102914761D01*
X198694819Y-102914761D02*
X198742438Y-102819523D01*
X198742438Y-102819523D02*
X198790057Y-102771904D01*
X198790057Y-102771904D02*
X198885295Y-102724285D01*
X198885295Y-102724285D02*
X198932914Y-102724285D01*
X198932914Y-102724285D02*
X199028152Y-102771904D01*
X199028152Y-102771904D02*
X199075771Y-102819523D01*
X199075771Y-102819523D02*
X199123390Y-102914761D01*
X199123390Y-102914761D02*
X199123390Y-103105237D01*
X199123390Y-103105237D02*
X199171009Y-103200475D01*
X199171009Y-103200475D02*
X199218628Y-103248094D01*
X199218628Y-103248094D02*
X199313866Y-103295713D01*
X199313866Y-103295713D02*
X199504342Y-103295713D01*
X199504342Y-103295713D02*
X199599580Y-103248094D01*
X199599580Y-103248094D02*
X199647200Y-103200475D01*
X199647200Y-103200475D02*
X199694819Y-103105237D01*
X199694819Y-103105237D02*
X199694819Y-102914761D01*
X199694819Y-102914761D02*
X199647200Y-102819523D01*
X199647200Y-102819523D02*
X199599580Y-102771904D01*
X199599580Y-102771904D02*
X199504342Y-102724285D01*
X199504342Y-102724285D02*
X199313866Y-102724285D01*
X199313866Y-102724285D02*
X199218628Y-102771904D01*
X199218628Y-102771904D02*
X199171009Y-102819523D01*
X199171009Y-102819523D02*
X199123390Y-102914761D01*
X108254819Y-104243094D02*
X107254819Y-104243094D01*
X107254819Y-104243094D02*
X107254819Y-104004999D01*
X107254819Y-104004999D02*
X107302438Y-103862142D01*
X107302438Y-103862142D02*
X107397676Y-103766904D01*
X107397676Y-103766904D02*
X107492914Y-103719285D01*
X107492914Y-103719285D02*
X107683390Y-103671666D01*
X107683390Y-103671666D02*
X107826247Y-103671666D01*
X107826247Y-103671666D02*
X108016723Y-103719285D01*
X108016723Y-103719285D02*
X108111961Y-103766904D01*
X108111961Y-103766904D02*
X108207200Y-103862142D01*
X108207200Y-103862142D02*
X108254819Y-104004999D01*
X108254819Y-104004999D02*
X108254819Y-104243094D01*
X107350057Y-103290713D02*
X107302438Y-103243094D01*
X107302438Y-103243094D02*
X107254819Y-103147856D01*
X107254819Y-103147856D02*
X107254819Y-102909761D01*
X107254819Y-102909761D02*
X107302438Y-102814523D01*
X107302438Y-102814523D02*
X107350057Y-102766904D01*
X107350057Y-102766904D02*
X107445295Y-102719285D01*
X107445295Y-102719285D02*
X107540533Y-102719285D01*
X107540533Y-102719285D02*
X107683390Y-102766904D01*
X107683390Y-102766904D02*
X108254819Y-103338332D01*
X108254819Y-103338332D02*
X108254819Y-102719285D01*
X123494819Y-104248094D02*
X122494819Y-104248094D01*
X122494819Y-104248094D02*
X122494819Y-104009999D01*
X122494819Y-104009999D02*
X122542438Y-103867142D01*
X122542438Y-103867142D02*
X122637676Y-103771904D01*
X122637676Y-103771904D02*
X122732914Y-103724285D01*
X122732914Y-103724285D02*
X122923390Y-103676666D01*
X122923390Y-103676666D02*
X123066247Y-103676666D01*
X123066247Y-103676666D02*
X123256723Y-103724285D01*
X123256723Y-103724285D02*
X123351961Y-103771904D01*
X123351961Y-103771904D02*
X123447200Y-103867142D01*
X123447200Y-103867142D02*
X123494819Y-104009999D01*
X123494819Y-104009999D02*
X123494819Y-104248094D01*
X122494819Y-103343332D02*
X122494819Y-102724285D01*
X122494819Y-102724285D02*
X122875771Y-103057618D01*
X122875771Y-103057618D02*
X122875771Y-102914761D01*
X122875771Y-102914761D02*
X122923390Y-102819523D01*
X122923390Y-102819523D02*
X122971009Y-102771904D01*
X122971009Y-102771904D02*
X123066247Y-102724285D01*
X123066247Y-102724285D02*
X123304342Y-102724285D01*
X123304342Y-102724285D02*
X123399580Y-102771904D01*
X123399580Y-102771904D02*
X123447200Y-102819523D01*
X123447200Y-102819523D02*
X123494819Y-102914761D01*
X123494819Y-102914761D02*
X123494819Y-103200475D01*
X123494819Y-103200475D02*
X123447200Y-103295713D01*
X123447200Y-103295713D02*
X123399580Y-103343332D01*
X222704819Y-104243094D02*
X221704819Y-104243094D01*
X221704819Y-104243094D02*
X221704819Y-104004999D01*
X221704819Y-104004999D02*
X221752438Y-103862142D01*
X221752438Y-103862142D02*
X221847676Y-103766904D01*
X221847676Y-103766904D02*
X221942914Y-103719285D01*
X221942914Y-103719285D02*
X222133390Y-103671666D01*
X222133390Y-103671666D02*
X222276247Y-103671666D01*
X222276247Y-103671666D02*
X222466723Y-103719285D01*
X222466723Y-103719285D02*
X222561961Y-103766904D01*
X222561961Y-103766904D02*
X222657200Y-103862142D01*
X222657200Y-103862142D02*
X222704819Y-104004999D01*
X222704819Y-104004999D02*
X222704819Y-104243094D01*
X222704819Y-103195475D02*
X222704819Y-103004999D01*
X222704819Y-103004999D02*
X222657200Y-102909761D01*
X222657200Y-102909761D02*
X222609580Y-102862142D01*
X222609580Y-102862142D02*
X222466723Y-102766904D01*
X222466723Y-102766904D02*
X222276247Y-102719285D01*
X222276247Y-102719285D02*
X221895295Y-102719285D01*
X221895295Y-102719285D02*
X221800057Y-102766904D01*
X221800057Y-102766904D02*
X221752438Y-102814523D01*
X221752438Y-102814523D02*
X221704819Y-102909761D01*
X221704819Y-102909761D02*
X221704819Y-103100237D01*
X221704819Y-103100237D02*
X221752438Y-103195475D01*
X221752438Y-103195475D02*
X221800057Y-103243094D01*
X221800057Y-103243094D02*
X221895295Y-103290713D01*
X221895295Y-103290713D02*
X222133390Y-103290713D01*
X222133390Y-103290713D02*
X222228628Y-103243094D01*
X222228628Y-103243094D02*
X222276247Y-103195475D01*
X222276247Y-103195475D02*
X222323866Y-103100237D01*
X222323866Y-103100237D02*
X222323866Y-102909761D01*
X222323866Y-102909761D02*
X222276247Y-102814523D01*
X222276247Y-102814523D02*
X222228628Y-102766904D01*
X222228628Y-102766904D02*
X222133390Y-102719285D01*
X184454819Y-104243094D02*
X183454819Y-104243094D01*
X183454819Y-104243094D02*
X183454819Y-104004999D01*
X183454819Y-104004999D02*
X183502438Y-103862142D01*
X183502438Y-103862142D02*
X183597676Y-103766904D01*
X183597676Y-103766904D02*
X183692914Y-103719285D01*
X183692914Y-103719285D02*
X183883390Y-103671666D01*
X183883390Y-103671666D02*
X184026247Y-103671666D01*
X184026247Y-103671666D02*
X184216723Y-103719285D01*
X184216723Y-103719285D02*
X184311961Y-103766904D01*
X184311961Y-103766904D02*
X184407200Y-103862142D01*
X184407200Y-103862142D02*
X184454819Y-104004999D01*
X184454819Y-104004999D02*
X184454819Y-104243094D01*
X183454819Y-103338332D02*
X183454819Y-102671666D01*
X183454819Y-102671666D02*
X184454819Y-103100237D01*
X138734819Y-104248094D02*
X137734819Y-104248094D01*
X137734819Y-104248094D02*
X137734819Y-104009999D01*
X137734819Y-104009999D02*
X137782438Y-103867142D01*
X137782438Y-103867142D02*
X137877676Y-103771904D01*
X137877676Y-103771904D02*
X137972914Y-103724285D01*
X137972914Y-103724285D02*
X138163390Y-103676666D01*
X138163390Y-103676666D02*
X138306247Y-103676666D01*
X138306247Y-103676666D02*
X138496723Y-103724285D01*
X138496723Y-103724285D02*
X138591961Y-103771904D01*
X138591961Y-103771904D02*
X138687200Y-103867142D01*
X138687200Y-103867142D02*
X138734819Y-104009999D01*
X138734819Y-104009999D02*
X138734819Y-104248094D01*
X138068152Y-102819523D02*
X138734819Y-102819523D01*
X137687200Y-103057618D02*
X138401485Y-103295713D01*
X138401485Y-103295713D02*
X138401485Y-102676666D01*
X253454819Y-104724285D02*
X252454819Y-104724285D01*
X252454819Y-104724285D02*
X252454819Y-104486190D01*
X252454819Y-104486190D02*
X252502438Y-104343333D01*
X252502438Y-104343333D02*
X252597676Y-104248095D01*
X252597676Y-104248095D02*
X252692914Y-104200476D01*
X252692914Y-104200476D02*
X252883390Y-104152857D01*
X252883390Y-104152857D02*
X253026247Y-104152857D01*
X253026247Y-104152857D02*
X253216723Y-104200476D01*
X253216723Y-104200476D02*
X253311961Y-104248095D01*
X253311961Y-104248095D02*
X253407200Y-104343333D01*
X253407200Y-104343333D02*
X253454819Y-104486190D01*
X253454819Y-104486190D02*
X253454819Y-104724285D01*
X253454819Y-103200476D02*
X253454819Y-103771904D01*
X253454819Y-103486190D02*
X252454819Y-103486190D01*
X252454819Y-103486190D02*
X252597676Y-103581428D01*
X252597676Y-103581428D02*
X252692914Y-103676666D01*
X252692914Y-103676666D02*
X252740533Y-103771904D01*
X253454819Y-102248095D02*
X253454819Y-102819523D01*
X253454819Y-102533809D02*
X252454819Y-102533809D01*
X252454819Y-102533809D02*
X252597676Y-102629047D01*
X252597676Y-102629047D02*
X252692914Y-102724285D01*
X252692914Y-102724285D02*
X252740533Y-102819523D01*
X99238095Y-90454819D02*
X99238095Y-89454819D01*
X99238095Y-89931009D02*
X99809523Y-89931009D01*
X99809523Y-90454819D02*
X99809523Y-89454819D01*
X100809523Y-90454819D02*
X100238095Y-90454819D01*
X100523809Y-90454819D02*
X100523809Y-89454819D01*
X100523809Y-89454819D02*
X100428571Y-89597676D01*
X100428571Y-89597676D02*
X100333333Y-89692914D01*
X100333333Y-89692914D02*
X100238095Y-89740533D01*
X96954819Y-100238094D02*
X95954819Y-100238094D01*
X95954819Y-100238094D02*
X95954819Y-99999999D01*
X95954819Y-99999999D02*
X96002438Y-99857142D01*
X96002438Y-99857142D02*
X96097676Y-99761904D01*
X96097676Y-99761904D02*
X96192914Y-99714285D01*
X96192914Y-99714285D02*
X96383390Y-99666666D01*
X96383390Y-99666666D02*
X96526247Y-99666666D01*
X96526247Y-99666666D02*
X96716723Y-99714285D01*
X96716723Y-99714285D02*
X96811961Y-99761904D01*
X96811961Y-99761904D02*
X96907200Y-99857142D01*
X96907200Y-99857142D02*
X96954819Y-99999999D01*
X96954819Y-99999999D02*
X96954819Y-100238094D01*
X96954819Y-98714285D02*
X96954819Y-99285713D01*
X96954819Y-98999999D02*
X95954819Y-98999999D01*
X95954819Y-98999999D02*
X96097676Y-99095237D01*
X96097676Y-99095237D02*
X96192914Y-99190475D01*
X96192914Y-99190475D02*
X96240533Y-99285713D01*
X153974819Y-104248094D02*
X152974819Y-104248094D01*
X152974819Y-104248094D02*
X152974819Y-104009999D01*
X152974819Y-104009999D02*
X153022438Y-103867142D01*
X153022438Y-103867142D02*
X153117676Y-103771904D01*
X153117676Y-103771904D02*
X153212914Y-103724285D01*
X153212914Y-103724285D02*
X153403390Y-103676666D01*
X153403390Y-103676666D02*
X153546247Y-103676666D01*
X153546247Y-103676666D02*
X153736723Y-103724285D01*
X153736723Y-103724285D02*
X153831961Y-103771904D01*
X153831961Y-103771904D02*
X153927200Y-103867142D01*
X153927200Y-103867142D02*
X153974819Y-104009999D01*
X153974819Y-104009999D02*
X153974819Y-104248094D01*
X152974819Y-102771904D02*
X152974819Y-103248094D01*
X152974819Y-103248094D02*
X153451009Y-103295713D01*
X153451009Y-103295713D02*
X153403390Y-103248094D01*
X153403390Y-103248094D02*
X153355771Y-103152856D01*
X153355771Y-103152856D02*
X153355771Y-102914761D01*
X153355771Y-102914761D02*
X153403390Y-102819523D01*
X153403390Y-102819523D02*
X153451009Y-102771904D01*
X153451009Y-102771904D02*
X153546247Y-102724285D01*
X153546247Y-102724285D02*
X153784342Y-102724285D01*
X153784342Y-102724285D02*
X153879580Y-102771904D01*
X153879580Y-102771904D02*
X153927200Y-102819523D01*
X153927200Y-102819523D02*
X153974819Y-102914761D01*
X153974819Y-102914761D02*
X153974819Y-103152856D01*
X153974819Y-103152856D02*
X153927200Y-103248094D01*
X153927200Y-103248094D02*
X153879580Y-103295713D01*
D11*
%TO.C,D10*%
X232135000Y-106065000D02*
X235225000Y-106065000D01*
X232135170Y-106065000D02*
G75*
G02*
X233679952Y-100515000I1544830J2560000D01*
G01*
X233680048Y-100515000D02*
G75*
G02*
X235224830Y-106065000I-48J-2990000D01*
G01*
X236180000Y-103505000D02*
G75*
G02*
X231180000Y-103505000I-2500000J0D01*
G01*
X231180000Y-103505000D02*
G75*
G02*
X236180000Y-103505000I2500000J0D01*
G01*
%TO.C,D6*%
X171175000Y-106065000D02*
X174265000Y-106065000D01*
X171175170Y-106065000D02*
G75*
G02*
X172719952Y-100515000I1544830J2560000D01*
G01*
X172720048Y-100515000D02*
G75*
G02*
X174264830Y-106065000I-48J-2990000D01*
G01*
X175220000Y-103505000D02*
G75*
G02*
X170220000Y-103505000I-2500000J0D01*
G01*
X170220000Y-103505000D02*
G75*
G02*
X175220000Y-103505000I2500000J0D01*
G01*
%TO.C,D12*%
X262455000Y-106065000D02*
X265545000Y-106065000D01*
X262455170Y-106065000D02*
G75*
G02*
X263999952Y-100515000I1544830J2560000D01*
G01*
X264000048Y-100515000D02*
G75*
G02*
X265544830Y-106065000I-48J-2990000D01*
G01*
X266500000Y-103505000D02*
G75*
G02*
X261500000Y-103505000I-2500000J0D01*
G01*
X261500000Y-103505000D02*
G75*
G02*
X266500000Y-103505000I2500000J0D01*
G01*
%TO.C,D8*%
X201655000Y-106070000D02*
X204745000Y-106070000D01*
X201655170Y-106070000D02*
G75*
G02*
X203199952Y-100520000I1544830J2560000D01*
G01*
X203200048Y-100520000D02*
G75*
G02*
X204744830Y-106070000I-48J-2990000D01*
G01*
X205700000Y-103510000D02*
G75*
G02*
X200700000Y-103510000I-2500000J0D01*
G01*
X200700000Y-103510000D02*
G75*
G02*
X205700000Y-103510000I2500000J0D01*
G01*
%TO.C,D2*%
X110215000Y-106065000D02*
X113305000Y-106065000D01*
X110215170Y-106065000D02*
G75*
G02*
X111759952Y-100515000I1544830J2560000D01*
G01*
X111760048Y-100515000D02*
G75*
G02*
X113304830Y-106065000I-48J-2990000D01*
G01*
X114260000Y-103505000D02*
G75*
G02*
X109260000Y-103505000I-2500000J0D01*
G01*
X109260000Y-103505000D02*
G75*
G02*
X114260000Y-103505000I2500000J0D01*
G01*
%TO.C,D3*%
X125455000Y-106070000D02*
X128545000Y-106070000D01*
X125455170Y-106070000D02*
G75*
G02*
X126999952Y-100520000I1544830J2560000D01*
G01*
X127000048Y-100520000D02*
G75*
G02*
X128544830Y-106070000I-48J-2990000D01*
G01*
X129500000Y-103510000D02*
G75*
G02*
X124500000Y-103510000I-2500000J0D01*
G01*
X124500000Y-103510000D02*
G75*
G02*
X129500000Y-103510000I2500000J0D01*
G01*
%TO.C,D9*%
X216895000Y-106065000D02*
X219985000Y-106065000D01*
X216895170Y-106065000D02*
G75*
G02*
X218439952Y-100515000I1544830J2560000D01*
G01*
X218440048Y-100515000D02*
G75*
G02*
X219984830Y-106065000I-48J-2990000D01*
G01*
X220940000Y-103505000D02*
G75*
G02*
X215940000Y-103505000I-2500000J0D01*
G01*
X215940000Y-103505000D02*
G75*
G02*
X220940000Y-103505000I2500000J0D01*
G01*
%TO.C,D7*%
X186415000Y-106065000D02*
X189505000Y-106065000D01*
X186415170Y-106065000D02*
G75*
G02*
X187959952Y-100515000I1544830J2560000D01*
G01*
X187960048Y-100515000D02*
G75*
G02*
X189504830Y-106065000I-48J-2990000D01*
G01*
X190460000Y-103505000D02*
G75*
G02*
X185460000Y-103505000I-2500000J0D01*
G01*
X185460000Y-103505000D02*
G75*
G02*
X190460000Y-103505000I2500000J0D01*
G01*
%TO.C,D4*%
X140695000Y-106070000D02*
X143785000Y-106070000D01*
X140695170Y-106070000D02*
G75*
G02*
X142239952Y-100520000I1544830J2560000D01*
G01*
X142240048Y-100520000D02*
G75*
G02*
X143784830Y-106070000I-48J-2990000D01*
G01*
X144740000Y-103510000D02*
G75*
G02*
X139740000Y-103510000I-2500000J0D01*
G01*
X139740000Y-103510000D02*
G75*
G02*
X144740000Y-103510000I2500000J0D01*
G01*
%TO.C,D11*%
X247375000Y-106070000D02*
X250465000Y-106070000D01*
X247375170Y-106070000D02*
G75*
G02*
X248919952Y-100520000I1544830J2560000D01*
G01*
X248920048Y-100520000D02*
G75*
G02*
X250464830Y-106070000I-48J-2990000D01*
G01*
X251420000Y-103510000D02*
G75*
G02*
X246420000Y-103510000I-2500000J0D01*
G01*
X246420000Y-103510000D02*
G75*
G02*
X251420000Y-103510000I2500000J0D01*
G01*
%TO.C,D1*%
X94975000Y-106070000D02*
X98065000Y-106070000D01*
X94975170Y-106070000D02*
G75*
G02*
X96519952Y-100520000I1544830J2560000D01*
G01*
X96520048Y-100520000D02*
G75*
G02*
X98064830Y-106070000I-48J-2990000D01*
G01*
X99020000Y-103510000D02*
G75*
G02*
X94020000Y-103510000I-2500000J0D01*
G01*
X94020000Y-103510000D02*
G75*
G02*
X99020000Y-103510000I2500000J0D01*
G01*
%TO.C,D5*%
X155935000Y-106070000D02*
X159025000Y-106070000D01*
X155935170Y-106070000D02*
G75*
G02*
X157479952Y-100520000I1544830J2560000D01*
G01*
X157480048Y-100520000D02*
G75*
G02*
X159024830Y-106070000I-48J-2990000D01*
G01*
X159980000Y-103510000D02*
G75*
G02*
X154980000Y-103510000I-2500000J0D01*
G01*
X154980000Y-103510000D02*
G75*
G02*
X159980000Y-103510000I2500000J0D01*
G01*
%TD*%
M02*
