%TF.GenerationSoftware,KiCad,Pcbnew,8.0.7*%
%TF.CreationDate,2025-02-10T21:08:13+01:00*%
%TF.ProjectId,stib_display,73746962-5f64-4697-9370-6c61792e6b69,2*%
%TF.SameCoordinates,Original*%
%TF.FileFunction,Legend,Bot*%
%TF.FilePolarity,Positive*%
%FSLAX46Y46*%
G04 Gerber Fmt 4.6, Leading zero omitted, Abs format (unit mm)*
G04 Created by KiCad (PCBNEW 8.0.7) date 2025-02-10 21:08:13*
%MOMM*%
%LPD*%
G01*
G04 APERTURE LIST*
%ADD10C,0.100000*%
%ADD11C,0.150000*%
%ADD12C,0.120000*%
G04 APERTURE END LIST*
D10*
X235505639Y-90372419D02*
X235315163Y-90372419D01*
X235315163Y-90372419D02*
X235219925Y-90420038D01*
X235219925Y-90420038D02*
X235124687Y-90515276D01*
X235124687Y-90515276D02*
X235077068Y-90705752D01*
X235077068Y-90705752D02*
X235077068Y-91039085D01*
X235077068Y-91039085D02*
X235124687Y-91229561D01*
X235124687Y-91229561D02*
X235219925Y-91324800D01*
X235219925Y-91324800D02*
X235315163Y-91372419D01*
X235315163Y-91372419D02*
X235505639Y-91372419D01*
X235505639Y-91372419D02*
X235600877Y-91324800D01*
X235600877Y-91324800D02*
X235696115Y-91229561D01*
X235696115Y-91229561D02*
X235743734Y-91039085D01*
X235743734Y-91039085D02*
X235743734Y-90705752D01*
X235743734Y-90705752D02*
X235696115Y-90515276D01*
X235696115Y-90515276D02*
X235600877Y-90420038D01*
X235600877Y-90420038D02*
X235505639Y-90372419D01*
X234648496Y-90372419D02*
X234648496Y-91181942D01*
X234648496Y-91181942D02*
X234600877Y-91277180D01*
X234600877Y-91277180D02*
X234553258Y-91324800D01*
X234553258Y-91324800D02*
X234458020Y-91372419D01*
X234458020Y-91372419D02*
X234267544Y-91372419D01*
X234267544Y-91372419D02*
X234172306Y-91324800D01*
X234172306Y-91324800D02*
X234124687Y-91277180D01*
X234124687Y-91277180D02*
X234077068Y-91181942D01*
X234077068Y-91181942D02*
X234077068Y-90372419D01*
X233743734Y-90372419D02*
X233172306Y-90372419D01*
X233458020Y-91372419D02*
X233458020Y-90372419D01*
X234803884Y-97372419D02*
X234803884Y-96372419D01*
X235280074Y-97372419D02*
X235280074Y-96372419D01*
X235280074Y-96372419D02*
X235851502Y-97372419D01*
X235851502Y-97372419D02*
X235851502Y-96372419D01*
D11*
X183166666Y-91359580D02*
X183214285Y-91407200D01*
X183214285Y-91407200D02*
X183357142Y-91454819D01*
X183357142Y-91454819D02*
X183452380Y-91454819D01*
X183452380Y-91454819D02*
X183595237Y-91407200D01*
X183595237Y-91407200D02*
X183690475Y-91311961D01*
X183690475Y-91311961D02*
X183738094Y-91216723D01*
X183738094Y-91216723D02*
X183785713Y-91026247D01*
X183785713Y-91026247D02*
X183785713Y-90883390D01*
X183785713Y-90883390D02*
X183738094Y-90692914D01*
X183738094Y-90692914D02*
X183690475Y-90597676D01*
X183690475Y-90597676D02*
X183595237Y-90502438D01*
X183595237Y-90502438D02*
X183452380Y-90454819D01*
X183452380Y-90454819D02*
X183357142Y-90454819D01*
X183357142Y-90454819D02*
X183214285Y-90502438D01*
X183214285Y-90502438D02*
X183166666Y-90550057D01*
X182785713Y-90550057D02*
X182738094Y-90502438D01*
X182738094Y-90502438D02*
X182642856Y-90454819D01*
X182642856Y-90454819D02*
X182404761Y-90454819D01*
X182404761Y-90454819D02*
X182309523Y-90502438D01*
X182309523Y-90502438D02*
X182261904Y-90550057D01*
X182261904Y-90550057D02*
X182214285Y-90645295D01*
X182214285Y-90645295D02*
X182214285Y-90740533D01*
X182214285Y-90740533D02*
X182261904Y-90883390D01*
X182261904Y-90883390D02*
X182833332Y-91454819D01*
X182833332Y-91454819D02*
X182214285Y-91454819D01*
X219642857Y-27454819D02*
X219976190Y-26978628D01*
X220214285Y-27454819D02*
X220214285Y-26454819D01*
X220214285Y-26454819D02*
X219833333Y-26454819D01*
X219833333Y-26454819D02*
X219738095Y-26502438D01*
X219738095Y-26502438D02*
X219690476Y-26550057D01*
X219690476Y-26550057D02*
X219642857Y-26645295D01*
X219642857Y-26645295D02*
X219642857Y-26788152D01*
X219642857Y-26788152D02*
X219690476Y-26883390D01*
X219690476Y-26883390D02*
X219738095Y-26931009D01*
X219738095Y-26931009D02*
X219833333Y-26978628D01*
X219833333Y-26978628D02*
X220214285Y-26978628D01*
X218690476Y-27454819D02*
X219261904Y-27454819D01*
X218976190Y-27454819D02*
X218976190Y-26454819D01*
X218976190Y-26454819D02*
X219071428Y-26597676D01*
X219071428Y-26597676D02*
X219166666Y-26692914D01*
X219166666Y-26692914D02*
X219261904Y-26740533D01*
X217833333Y-26454819D02*
X218023809Y-26454819D01*
X218023809Y-26454819D02*
X218119047Y-26502438D01*
X218119047Y-26502438D02*
X218166666Y-26550057D01*
X218166666Y-26550057D02*
X218261904Y-26692914D01*
X218261904Y-26692914D02*
X218309523Y-26883390D01*
X218309523Y-26883390D02*
X218309523Y-27264342D01*
X218309523Y-27264342D02*
X218261904Y-27359580D01*
X218261904Y-27359580D02*
X218214285Y-27407200D01*
X218214285Y-27407200D02*
X218119047Y-27454819D01*
X218119047Y-27454819D02*
X217928571Y-27454819D01*
X217928571Y-27454819D02*
X217833333Y-27407200D01*
X217833333Y-27407200D02*
X217785714Y-27359580D01*
X217785714Y-27359580D02*
X217738095Y-27264342D01*
X217738095Y-27264342D02*
X217738095Y-27026247D01*
X217738095Y-27026247D02*
X217785714Y-26931009D01*
X217785714Y-26931009D02*
X217833333Y-26883390D01*
X217833333Y-26883390D02*
X217928571Y-26835771D01*
X217928571Y-26835771D02*
X218119047Y-26835771D01*
X218119047Y-26835771D02*
X218214285Y-26883390D01*
X218214285Y-26883390D02*
X218261904Y-26931009D01*
X218261904Y-26931009D02*
X218309523Y-27026247D01*
X229952857Y-26954819D02*
X230286190Y-26478628D01*
X230524285Y-26954819D02*
X230524285Y-25954819D01*
X230524285Y-25954819D02*
X230143333Y-25954819D01*
X230143333Y-25954819D02*
X230048095Y-26002438D01*
X230048095Y-26002438D02*
X230000476Y-26050057D01*
X230000476Y-26050057D02*
X229952857Y-26145295D01*
X229952857Y-26145295D02*
X229952857Y-26288152D01*
X229952857Y-26288152D02*
X230000476Y-26383390D01*
X230000476Y-26383390D02*
X230048095Y-26431009D01*
X230048095Y-26431009D02*
X230143333Y-26478628D01*
X230143333Y-26478628D02*
X230524285Y-26478628D01*
X229000476Y-26954819D02*
X229571904Y-26954819D01*
X229286190Y-26954819D02*
X229286190Y-25954819D01*
X229286190Y-25954819D02*
X229381428Y-26097676D01*
X229381428Y-26097676D02*
X229476666Y-26192914D01*
X229476666Y-26192914D02*
X229571904Y-26240533D01*
X228143333Y-26288152D02*
X228143333Y-26954819D01*
X228381428Y-25907200D02*
X228619523Y-26621485D01*
X228619523Y-26621485D02*
X228000476Y-26621485D01*
X232454819Y-68166666D02*
X233169104Y-68166666D01*
X233169104Y-68166666D02*
X233311961Y-68119047D01*
X233311961Y-68119047D02*
X233407200Y-68023809D01*
X233407200Y-68023809D02*
X233454819Y-67880952D01*
X233454819Y-67880952D02*
X233454819Y-67785714D01*
X232454819Y-68547619D02*
X232454819Y-69166666D01*
X232454819Y-69166666D02*
X232835771Y-68833333D01*
X232835771Y-68833333D02*
X232835771Y-68976190D01*
X232835771Y-68976190D02*
X232883390Y-69071428D01*
X232883390Y-69071428D02*
X232931009Y-69119047D01*
X232931009Y-69119047D02*
X233026247Y-69166666D01*
X233026247Y-69166666D02*
X233264342Y-69166666D01*
X233264342Y-69166666D02*
X233359580Y-69119047D01*
X233359580Y-69119047D02*
X233407200Y-69071428D01*
X233407200Y-69071428D02*
X233454819Y-68976190D01*
X233454819Y-68976190D02*
X233454819Y-68690476D01*
X233454819Y-68690476D02*
X233407200Y-68595238D01*
X233407200Y-68595238D02*
X233359580Y-68547619D01*
X140169819Y-101433333D02*
X139693628Y-101100000D01*
X140169819Y-100861905D02*
X139169819Y-100861905D01*
X139169819Y-100861905D02*
X139169819Y-101242857D01*
X139169819Y-101242857D02*
X139217438Y-101338095D01*
X139217438Y-101338095D02*
X139265057Y-101385714D01*
X139265057Y-101385714D02*
X139360295Y-101433333D01*
X139360295Y-101433333D02*
X139503152Y-101433333D01*
X139503152Y-101433333D02*
X139598390Y-101385714D01*
X139598390Y-101385714D02*
X139646009Y-101338095D01*
X139646009Y-101338095D02*
X139693628Y-101242857D01*
X139693628Y-101242857D02*
X139693628Y-100861905D01*
X139503152Y-102290476D02*
X140169819Y-102290476D01*
X139122200Y-102052381D02*
X139836485Y-101814286D01*
X139836485Y-101814286D02*
X139836485Y-102433333D01*
X124929819Y-101433333D02*
X124453628Y-101100000D01*
X124929819Y-100861905D02*
X123929819Y-100861905D01*
X123929819Y-100861905D02*
X123929819Y-101242857D01*
X123929819Y-101242857D02*
X123977438Y-101338095D01*
X123977438Y-101338095D02*
X124025057Y-101385714D01*
X124025057Y-101385714D02*
X124120295Y-101433333D01*
X124120295Y-101433333D02*
X124263152Y-101433333D01*
X124263152Y-101433333D02*
X124358390Y-101385714D01*
X124358390Y-101385714D02*
X124406009Y-101338095D01*
X124406009Y-101338095D02*
X124453628Y-101242857D01*
X124453628Y-101242857D02*
X124453628Y-100861905D01*
X123929819Y-101766667D02*
X123929819Y-102385714D01*
X123929819Y-102385714D02*
X124310771Y-102052381D01*
X124310771Y-102052381D02*
X124310771Y-102195238D01*
X124310771Y-102195238D02*
X124358390Y-102290476D01*
X124358390Y-102290476D02*
X124406009Y-102338095D01*
X124406009Y-102338095D02*
X124501247Y-102385714D01*
X124501247Y-102385714D02*
X124739342Y-102385714D01*
X124739342Y-102385714D02*
X124834580Y-102338095D01*
X124834580Y-102338095D02*
X124882200Y-102290476D01*
X124882200Y-102290476D02*
X124929819Y-102195238D01*
X124929819Y-102195238D02*
X124929819Y-101909524D01*
X124929819Y-101909524D02*
X124882200Y-101814286D01*
X124882200Y-101814286D02*
X124834580Y-101766667D01*
X253751009Y-26166666D02*
X253751009Y-25833333D01*
X254274819Y-25833333D02*
X253274819Y-25833333D01*
X253274819Y-25833333D02*
X253274819Y-26309523D01*
X254274819Y-27214285D02*
X254274819Y-26642857D01*
X254274819Y-26928571D02*
X253274819Y-26928571D01*
X253274819Y-26928571D02*
X253417676Y-26833333D01*
X253417676Y-26833333D02*
X253512914Y-26738095D01*
X253512914Y-26738095D02*
X253560533Y-26642857D01*
X256954819Y-68166666D02*
X257669104Y-68166666D01*
X257669104Y-68166666D02*
X257811961Y-68119047D01*
X257811961Y-68119047D02*
X257907200Y-68023809D01*
X257907200Y-68023809D02*
X257954819Y-67880952D01*
X257954819Y-67880952D02*
X257954819Y-67785714D01*
X257050057Y-68595238D02*
X257002438Y-68642857D01*
X257002438Y-68642857D02*
X256954819Y-68738095D01*
X256954819Y-68738095D02*
X256954819Y-68976190D01*
X256954819Y-68976190D02*
X257002438Y-69071428D01*
X257002438Y-69071428D02*
X257050057Y-69119047D01*
X257050057Y-69119047D02*
X257145295Y-69166666D01*
X257145295Y-69166666D02*
X257240533Y-69166666D01*
X257240533Y-69166666D02*
X257383390Y-69119047D01*
X257383390Y-69119047D02*
X257954819Y-68547619D01*
X257954819Y-68547619D02*
X257954819Y-69166666D01*
X255264819Y-90666666D02*
X255979104Y-90666666D01*
X255979104Y-90666666D02*
X256121961Y-90619047D01*
X256121961Y-90619047D02*
X256217200Y-90523809D01*
X256217200Y-90523809D02*
X256264819Y-90380952D01*
X256264819Y-90380952D02*
X256264819Y-90285714D01*
X255264819Y-91619047D02*
X255264819Y-91142857D01*
X255264819Y-91142857D02*
X255741009Y-91095238D01*
X255741009Y-91095238D02*
X255693390Y-91142857D01*
X255693390Y-91142857D02*
X255645771Y-91238095D01*
X255645771Y-91238095D02*
X255645771Y-91476190D01*
X255645771Y-91476190D02*
X255693390Y-91571428D01*
X255693390Y-91571428D02*
X255741009Y-91619047D01*
X255741009Y-91619047D02*
X255836247Y-91666666D01*
X255836247Y-91666666D02*
X256074342Y-91666666D01*
X256074342Y-91666666D02*
X256169580Y-91619047D01*
X256169580Y-91619047D02*
X256217200Y-91571428D01*
X256217200Y-91571428D02*
X256264819Y-91476190D01*
X256264819Y-91476190D02*
X256264819Y-91238095D01*
X256264819Y-91238095D02*
X256217200Y-91142857D01*
X256217200Y-91142857D02*
X256169580Y-91095238D01*
X229832857Y-29454819D02*
X230166190Y-28978628D01*
X230404285Y-29454819D02*
X230404285Y-28454819D01*
X230404285Y-28454819D02*
X230023333Y-28454819D01*
X230023333Y-28454819D02*
X229928095Y-28502438D01*
X229928095Y-28502438D02*
X229880476Y-28550057D01*
X229880476Y-28550057D02*
X229832857Y-28645295D01*
X229832857Y-28645295D02*
X229832857Y-28788152D01*
X229832857Y-28788152D02*
X229880476Y-28883390D01*
X229880476Y-28883390D02*
X229928095Y-28931009D01*
X229928095Y-28931009D02*
X230023333Y-28978628D01*
X230023333Y-28978628D02*
X230404285Y-28978628D01*
X228880476Y-29454819D02*
X229451904Y-29454819D01*
X229166190Y-29454819D02*
X229166190Y-28454819D01*
X229166190Y-28454819D02*
X229261428Y-28597676D01*
X229261428Y-28597676D02*
X229356666Y-28692914D01*
X229356666Y-28692914D02*
X229451904Y-28740533D01*
X228547142Y-28454819D02*
X227880476Y-28454819D01*
X227880476Y-28454819D02*
X228309047Y-29454819D01*
X196454819Y-93738095D02*
X197264342Y-93738095D01*
X197264342Y-93738095D02*
X197359580Y-93785714D01*
X197359580Y-93785714D02*
X197407200Y-93833333D01*
X197407200Y-93833333D02*
X197454819Y-93928571D01*
X197454819Y-93928571D02*
X197454819Y-94119047D01*
X197454819Y-94119047D02*
X197407200Y-94214285D01*
X197407200Y-94214285D02*
X197359580Y-94261904D01*
X197359580Y-94261904D02*
X197264342Y-94309523D01*
X197264342Y-94309523D02*
X196454819Y-94309523D01*
X196550057Y-94738095D02*
X196502438Y-94785714D01*
X196502438Y-94785714D02*
X196454819Y-94880952D01*
X196454819Y-94880952D02*
X196454819Y-95119047D01*
X196454819Y-95119047D02*
X196502438Y-95214285D01*
X196502438Y-95214285D02*
X196550057Y-95261904D01*
X196550057Y-95261904D02*
X196645295Y-95309523D01*
X196645295Y-95309523D02*
X196740533Y-95309523D01*
X196740533Y-95309523D02*
X196883390Y-95261904D01*
X196883390Y-95261904D02*
X197454819Y-94690476D01*
X197454819Y-94690476D02*
X197454819Y-95309523D01*
X210986666Y-106514819D02*
X211319999Y-106038628D01*
X211558094Y-106514819D02*
X211558094Y-105514819D01*
X211558094Y-105514819D02*
X211177142Y-105514819D01*
X211177142Y-105514819D02*
X211081904Y-105562438D01*
X211081904Y-105562438D02*
X211034285Y-105610057D01*
X211034285Y-105610057D02*
X210986666Y-105705295D01*
X210986666Y-105705295D02*
X210986666Y-105848152D01*
X210986666Y-105848152D02*
X211034285Y-105943390D01*
X211034285Y-105943390D02*
X211081904Y-105991009D01*
X211081904Y-105991009D02*
X211177142Y-106038628D01*
X211177142Y-106038628D02*
X211558094Y-106038628D01*
X210510475Y-106514819D02*
X210319999Y-106514819D01*
X210319999Y-106514819D02*
X210224761Y-106467200D01*
X210224761Y-106467200D02*
X210177142Y-106419580D01*
X210177142Y-106419580D02*
X210081904Y-106276723D01*
X210081904Y-106276723D02*
X210034285Y-106086247D01*
X210034285Y-106086247D02*
X210034285Y-105705295D01*
X210034285Y-105705295D02*
X210081904Y-105610057D01*
X210081904Y-105610057D02*
X210129523Y-105562438D01*
X210129523Y-105562438D02*
X210224761Y-105514819D01*
X210224761Y-105514819D02*
X210415237Y-105514819D01*
X210415237Y-105514819D02*
X210510475Y-105562438D01*
X210510475Y-105562438D02*
X210558094Y-105610057D01*
X210558094Y-105610057D02*
X210605713Y-105705295D01*
X210605713Y-105705295D02*
X210605713Y-105943390D01*
X210605713Y-105943390D02*
X210558094Y-106038628D01*
X210558094Y-106038628D02*
X210510475Y-106086247D01*
X210510475Y-106086247D02*
X210415237Y-106133866D01*
X210415237Y-106133866D02*
X210224761Y-106133866D01*
X210224761Y-106133866D02*
X210129523Y-106086247D01*
X210129523Y-106086247D02*
X210081904Y-106038628D01*
X210081904Y-106038628D02*
X210034285Y-105943390D01*
X236359580Y-26833333D02*
X236407200Y-26785714D01*
X236407200Y-26785714D02*
X236454819Y-26642857D01*
X236454819Y-26642857D02*
X236454819Y-26547619D01*
X236454819Y-26547619D02*
X236407200Y-26404762D01*
X236407200Y-26404762D02*
X236311961Y-26309524D01*
X236311961Y-26309524D02*
X236216723Y-26261905D01*
X236216723Y-26261905D02*
X236026247Y-26214286D01*
X236026247Y-26214286D02*
X235883390Y-26214286D01*
X235883390Y-26214286D02*
X235692914Y-26261905D01*
X235692914Y-26261905D02*
X235597676Y-26309524D01*
X235597676Y-26309524D02*
X235502438Y-26404762D01*
X235502438Y-26404762D02*
X235454819Y-26547619D01*
X235454819Y-26547619D02*
X235454819Y-26642857D01*
X235454819Y-26642857D02*
X235502438Y-26785714D01*
X235502438Y-26785714D02*
X235550057Y-26833333D01*
X235454819Y-27690476D02*
X235454819Y-27500000D01*
X235454819Y-27500000D02*
X235502438Y-27404762D01*
X235502438Y-27404762D02*
X235550057Y-27357143D01*
X235550057Y-27357143D02*
X235692914Y-27261905D01*
X235692914Y-27261905D02*
X235883390Y-27214286D01*
X235883390Y-27214286D02*
X236264342Y-27214286D01*
X236264342Y-27214286D02*
X236359580Y-27261905D01*
X236359580Y-27261905D02*
X236407200Y-27309524D01*
X236407200Y-27309524D02*
X236454819Y-27404762D01*
X236454819Y-27404762D02*
X236454819Y-27595238D01*
X236454819Y-27595238D02*
X236407200Y-27690476D01*
X236407200Y-27690476D02*
X236359580Y-27738095D01*
X236359580Y-27738095D02*
X236264342Y-27785714D01*
X236264342Y-27785714D02*
X236026247Y-27785714D01*
X236026247Y-27785714D02*
X235931009Y-27738095D01*
X235931009Y-27738095D02*
X235883390Y-27690476D01*
X235883390Y-27690476D02*
X235835771Y-27595238D01*
X235835771Y-27595238D02*
X235835771Y-27404762D01*
X235835771Y-27404762D02*
X235883390Y-27309524D01*
X235883390Y-27309524D02*
X235931009Y-27261905D01*
X235931009Y-27261905D02*
X236026247Y-27214286D01*
X219332857Y-24954819D02*
X219666190Y-24478628D01*
X219904285Y-24954819D02*
X219904285Y-23954819D01*
X219904285Y-23954819D02*
X219523333Y-23954819D01*
X219523333Y-23954819D02*
X219428095Y-24002438D01*
X219428095Y-24002438D02*
X219380476Y-24050057D01*
X219380476Y-24050057D02*
X219332857Y-24145295D01*
X219332857Y-24145295D02*
X219332857Y-24288152D01*
X219332857Y-24288152D02*
X219380476Y-24383390D01*
X219380476Y-24383390D02*
X219428095Y-24431009D01*
X219428095Y-24431009D02*
X219523333Y-24478628D01*
X219523333Y-24478628D02*
X219904285Y-24478628D01*
X218380476Y-24954819D02*
X218951904Y-24954819D01*
X218666190Y-24954819D02*
X218666190Y-23954819D01*
X218666190Y-23954819D02*
X218761428Y-24097676D01*
X218761428Y-24097676D02*
X218856666Y-24192914D01*
X218856666Y-24192914D02*
X218951904Y-24240533D01*
X218047142Y-23954819D02*
X217428095Y-23954819D01*
X217428095Y-23954819D02*
X217761428Y-24335771D01*
X217761428Y-24335771D02*
X217618571Y-24335771D01*
X217618571Y-24335771D02*
X217523333Y-24383390D01*
X217523333Y-24383390D02*
X217475714Y-24431009D01*
X217475714Y-24431009D02*
X217428095Y-24526247D01*
X217428095Y-24526247D02*
X217428095Y-24764342D01*
X217428095Y-24764342D02*
X217475714Y-24859580D01*
X217475714Y-24859580D02*
X217523333Y-24907200D01*
X217523333Y-24907200D02*
X217618571Y-24954819D01*
X217618571Y-24954819D02*
X217904285Y-24954819D01*
X217904285Y-24954819D02*
X217999523Y-24907200D01*
X217999523Y-24907200D02*
X218047142Y-24859580D01*
X221666666Y-93359580D02*
X221714285Y-93407200D01*
X221714285Y-93407200D02*
X221857142Y-93454819D01*
X221857142Y-93454819D02*
X221952380Y-93454819D01*
X221952380Y-93454819D02*
X222095237Y-93407200D01*
X222095237Y-93407200D02*
X222190475Y-93311961D01*
X222190475Y-93311961D02*
X222238094Y-93216723D01*
X222238094Y-93216723D02*
X222285713Y-93026247D01*
X222285713Y-93026247D02*
X222285713Y-92883390D01*
X222285713Y-92883390D02*
X222238094Y-92692914D01*
X222238094Y-92692914D02*
X222190475Y-92597676D01*
X222190475Y-92597676D02*
X222095237Y-92502438D01*
X222095237Y-92502438D02*
X221952380Y-92454819D01*
X221952380Y-92454819D02*
X221857142Y-92454819D01*
X221857142Y-92454819D02*
X221714285Y-92502438D01*
X221714285Y-92502438D02*
X221666666Y-92550057D01*
X220714285Y-93454819D02*
X221285713Y-93454819D01*
X220999999Y-93454819D02*
X220999999Y-92454819D01*
X220999999Y-92454819D02*
X221095237Y-92597676D01*
X221095237Y-92597676D02*
X221190475Y-92692914D01*
X221190475Y-92692914D02*
X221285713Y-92740533D01*
X175699819Y-101433333D02*
X175223628Y-101100000D01*
X175699819Y-100861905D02*
X174699819Y-100861905D01*
X174699819Y-100861905D02*
X174699819Y-101242857D01*
X174699819Y-101242857D02*
X174747438Y-101338095D01*
X174747438Y-101338095D02*
X174795057Y-101385714D01*
X174795057Y-101385714D02*
X174890295Y-101433333D01*
X174890295Y-101433333D02*
X175033152Y-101433333D01*
X175033152Y-101433333D02*
X175128390Y-101385714D01*
X175128390Y-101385714D02*
X175176009Y-101338095D01*
X175176009Y-101338095D02*
X175223628Y-101242857D01*
X175223628Y-101242857D02*
X175223628Y-100861905D01*
X174699819Y-102290476D02*
X174699819Y-102100000D01*
X174699819Y-102100000D02*
X174747438Y-102004762D01*
X174747438Y-102004762D02*
X174795057Y-101957143D01*
X174795057Y-101957143D02*
X174937914Y-101861905D01*
X174937914Y-101861905D02*
X175128390Y-101814286D01*
X175128390Y-101814286D02*
X175509342Y-101814286D01*
X175509342Y-101814286D02*
X175604580Y-101861905D01*
X175604580Y-101861905D02*
X175652200Y-101909524D01*
X175652200Y-101909524D02*
X175699819Y-102004762D01*
X175699819Y-102004762D02*
X175699819Y-102195238D01*
X175699819Y-102195238D02*
X175652200Y-102290476D01*
X175652200Y-102290476D02*
X175604580Y-102338095D01*
X175604580Y-102338095D02*
X175509342Y-102385714D01*
X175509342Y-102385714D02*
X175271247Y-102385714D01*
X175271247Y-102385714D02*
X175176009Y-102338095D01*
X175176009Y-102338095D02*
X175128390Y-102290476D01*
X175128390Y-102290476D02*
X175080771Y-102195238D01*
X175080771Y-102195238D02*
X175080771Y-102004762D01*
X175080771Y-102004762D02*
X175128390Y-101909524D01*
X175128390Y-101909524D02*
X175176009Y-101861905D01*
X175176009Y-101861905D02*
X175271247Y-101814286D01*
X192954819Y-101433333D02*
X192478628Y-101100000D01*
X192954819Y-100861905D02*
X191954819Y-100861905D01*
X191954819Y-100861905D02*
X191954819Y-101242857D01*
X191954819Y-101242857D02*
X192002438Y-101338095D01*
X192002438Y-101338095D02*
X192050057Y-101385714D01*
X192050057Y-101385714D02*
X192145295Y-101433333D01*
X192145295Y-101433333D02*
X192288152Y-101433333D01*
X192288152Y-101433333D02*
X192383390Y-101385714D01*
X192383390Y-101385714D02*
X192431009Y-101338095D01*
X192431009Y-101338095D02*
X192478628Y-101242857D01*
X192478628Y-101242857D02*
X192478628Y-100861905D01*
X191954819Y-101766667D02*
X191954819Y-102433333D01*
X191954819Y-102433333D02*
X192954819Y-102004762D01*
X109689819Y-101433333D02*
X109213628Y-101100000D01*
X109689819Y-100861905D02*
X108689819Y-100861905D01*
X108689819Y-100861905D02*
X108689819Y-101242857D01*
X108689819Y-101242857D02*
X108737438Y-101338095D01*
X108737438Y-101338095D02*
X108785057Y-101385714D01*
X108785057Y-101385714D02*
X108880295Y-101433333D01*
X108880295Y-101433333D02*
X109023152Y-101433333D01*
X109023152Y-101433333D02*
X109118390Y-101385714D01*
X109118390Y-101385714D02*
X109166009Y-101338095D01*
X109166009Y-101338095D02*
X109213628Y-101242857D01*
X109213628Y-101242857D02*
X109213628Y-100861905D01*
X108785057Y-101814286D02*
X108737438Y-101861905D01*
X108737438Y-101861905D02*
X108689819Y-101957143D01*
X108689819Y-101957143D02*
X108689819Y-102195238D01*
X108689819Y-102195238D02*
X108737438Y-102290476D01*
X108737438Y-102290476D02*
X108785057Y-102338095D01*
X108785057Y-102338095D02*
X108880295Y-102385714D01*
X108880295Y-102385714D02*
X108975533Y-102385714D01*
X108975533Y-102385714D02*
X109118390Y-102338095D01*
X109118390Y-102338095D02*
X109689819Y-101766667D01*
X109689819Y-101766667D02*
X109689819Y-102385714D01*
X197454819Y-101333333D02*
X196978628Y-101000000D01*
X197454819Y-100761905D02*
X196454819Y-100761905D01*
X196454819Y-100761905D02*
X196454819Y-101142857D01*
X196454819Y-101142857D02*
X196502438Y-101238095D01*
X196502438Y-101238095D02*
X196550057Y-101285714D01*
X196550057Y-101285714D02*
X196645295Y-101333333D01*
X196645295Y-101333333D02*
X196788152Y-101333333D01*
X196788152Y-101333333D02*
X196883390Y-101285714D01*
X196883390Y-101285714D02*
X196931009Y-101238095D01*
X196931009Y-101238095D02*
X196978628Y-101142857D01*
X196978628Y-101142857D02*
X196978628Y-100761905D01*
X196883390Y-101904762D02*
X196835771Y-101809524D01*
X196835771Y-101809524D02*
X196788152Y-101761905D01*
X196788152Y-101761905D02*
X196692914Y-101714286D01*
X196692914Y-101714286D02*
X196645295Y-101714286D01*
X196645295Y-101714286D02*
X196550057Y-101761905D01*
X196550057Y-101761905D02*
X196502438Y-101809524D01*
X196502438Y-101809524D02*
X196454819Y-101904762D01*
X196454819Y-101904762D02*
X196454819Y-102095238D01*
X196454819Y-102095238D02*
X196502438Y-102190476D01*
X196502438Y-102190476D02*
X196550057Y-102238095D01*
X196550057Y-102238095D02*
X196645295Y-102285714D01*
X196645295Y-102285714D02*
X196692914Y-102285714D01*
X196692914Y-102285714D02*
X196788152Y-102238095D01*
X196788152Y-102238095D02*
X196835771Y-102190476D01*
X196835771Y-102190476D02*
X196883390Y-102095238D01*
X196883390Y-102095238D02*
X196883390Y-101904762D01*
X196883390Y-101904762D02*
X196931009Y-101809524D01*
X196931009Y-101809524D02*
X196978628Y-101761905D01*
X196978628Y-101761905D02*
X197073866Y-101714286D01*
X197073866Y-101714286D02*
X197264342Y-101714286D01*
X197264342Y-101714286D02*
X197359580Y-101761905D01*
X197359580Y-101761905D02*
X197407200Y-101809524D01*
X197407200Y-101809524D02*
X197454819Y-101904762D01*
X197454819Y-101904762D02*
X197454819Y-102095238D01*
X197454819Y-102095238D02*
X197407200Y-102190476D01*
X197407200Y-102190476D02*
X197359580Y-102238095D01*
X197359580Y-102238095D02*
X197264342Y-102285714D01*
X197264342Y-102285714D02*
X197073866Y-102285714D01*
X197073866Y-102285714D02*
X196978628Y-102238095D01*
X196978628Y-102238095D02*
X196931009Y-102190476D01*
X196931009Y-102190476D02*
X196883390Y-102095238D01*
X243359580Y-27333333D02*
X243407200Y-27285714D01*
X243407200Y-27285714D02*
X243454819Y-27142857D01*
X243454819Y-27142857D02*
X243454819Y-27047619D01*
X243454819Y-27047619D02*
X243407200Y-26904762D01*
X243407200Y-26904762D02*
X243311961Y-26809524D01*
X243311961Y-26809524D02*
X243216723Y-26761905D01*
X243216723Y-26761905D02*
X243026247Y-26714286D01*
X243026247Y-26714286D02*
X242883390Y-26714286D01*
X242883390Y-26714286D02*
X242692914Y-26761905D01*
X242692914Y-26761905D02*
X242597676Y-26809524D01*
X242597676Y-26809524D02*
X242502438Y-26904762D01*
X242502438Y-26904762D02*
X242454819Y-27047619D01*
X242454819Y-27047619D02*
X242454819Y-27142857D01*
X242454819Y-27142857D02*
X242502438Y-27285714D01*
X242502438Y-27285714D02*
X242550057Y-27333333D01*
X242788152Y-28190476D02*
X243454819Y-28190476D01*
X242407200Y-27952381D02*
X243121485Y-27714286D01*
X243121485Y-27714286D02*
X243121485Y-28333333D01*
X250859580Y-93333333D02*
X250907200Y-93285714D01*
X250907200Y-93285714D02*
X250954819Y-93142857D01*
X250954819Y-93142857D02*
X250954819Y-93047619D01*
X250954819Y-93047619D02*
X250907200Y-92904762D01*
X250907200Y-92904762D02*
X250811961Y-92809524D01*
X250811961Y-92809524D02*
X250716723Y-92761905D01*
X250716723Y-92761905D02*
X250526247Y-92714286D01*
X250526247Y-92714286D02*
X250383390Y-92714286D01*
X250383390Y-92714286D02*
X250192914Y-92761905D01*
X250192914Y-92761905D02*
X250097676Y-92809524D01*
X250097676Y-92809524D02*
X250002438Y-92904762D01*
X250002438Y-92904762D02*
X249954819Y-93047619D01*
X249954819Y-93047619D02*
X249954819Y-93142857D01*
X249954819Y-93142857D02*
X250002438Y-93285714D01*
X250002438Y-93285714D02*
X250050057Y-93333333D01*
X249954819Y-94238095D02*
X249954819Y-93761905D01*
X249954819Y-93761905D02*
X250431009Y-93714286D01*
X250431009Y-93714286D02*
X250383390Y-93761905D01*
X250383390Y-93761905D02*
X250335771Y-93857143D01*
X250335771Y-93857143D02*
X250335771Y-94095238D01*
X250335771Y-94095238D02*
X250383390Y-94190476D01*
X250383390Y-94190476D02*
X250431009Y-94238095D01*
X250431009Y-94238095D02*
X250526247Y-94285714D01*
X250526247Y-94285714D02*
X250764342Y-94285714D01*
X250764342Y-94285714D02*
X250859580Y-94238095D01*
X250859580Y-94238095D02*
X250907200Y-94190476D01*
X250907200Y-94190476D02*
X250954819Y-94095238D01*
X250954819Y-94095238D02*
X250954819Y-93857143D01*
X250954819Y-93857143D02*
X250907200Y-93761905D01*
X250907200Y-93761905D02*
X250859580Y-93714286D01*
D10*
X206247419Y-49353095D02*
X207056942Y-49353095D01*
X207056942Y-49353095D02*
X207152180Y-49400714D01*
X207152180Y-49400714D02*
X207199800Y-49448333D01*
X207199800Y-49448333D02*
X207247419Y-49543571D01*
X207247419Y-49543571D02*
X207247419Y-49734047D01*
X207247419Y-49734047D02*
X207199800Y-49829285D01*
X207199800Y-49829285D02*
X207152180Y-49876904D01*
X207152180Y-49876904D02*
X207056942Y-49924523D01*
X207056942Y-49924523D02*
X206247419Y-49924523D01*
X206247419Y-50305476D02*
X206247419Y-50924523D01*
X206247419Y-50924523D02*
X206628371Y-50591190D01*
X206628371Y-50591190D02*
X206628371Y-50734047D01*
X206628371Y-50734047D02*
X206675990Y-50829285D01*
X206675990Y-50829285D02*
X206723609Y-50876904D01*
X206723609Y-50876904D02*
X206818847Y-50924523D01*
X206818847Y-50924523D02*
X207056942Y-50924523D01*
X207056942Y-50924523D02*
X207152180Y-50876904D01*
X207152180Y-50876904D02*
X207199800Y-50829285D01*
X207199800Y-50829285D02*
X207247419Y-50734047D01*
X207247419Y-50734047D02*
X207247419Y-50448333D01*
X207247419Y-50448333D02*
X207199800Y-50353095D01*
X207199800Y-50353095D02*
X207152180Y-50305476D01*
D11*
X175759819Y-94048095D02*
X176569342Y-94048095D01*
X176569342Y-94048095D02*
X176664580Y-94095714D01*
X176664580Y-94095714D02*
X176712200Y-94143333D01*
X176712200Y-94143333D02*
X176759819Y-94238571D01*
X176759819Y-94238571D02*
X176759819Y-94429047D01*
X176759819Y-94429047D02*
X176712200Y-94524285D01*
X176712200Y-94524285D02*
X176664580Y-94571904D01*
X176664580Y-94571904D02*
X176569342Y-94619523D01*
X176569342Y-94619523D02*
X175759819Y-94619523D01*
X176759819Y-95619523D02*
X176759819Y-95048095D01*
X176759819Y-95333809D02*
X175759819Y-95333809D01*
X175759819Y-95333809D02*
X175902676Y-95238571D01*
X175902676Y-95238571D02*
X175997914Y-95143333D01*
X175997914Y-95143333D02*
X176045533Y-95048095D01*
X241952857Y-103954819D02*
X242286190Y-103478628D01*
X242524285Y-103954819D02*
X242524285Y-102954819D01*
X242524285Y-102954819D02*
X242143333Y-102954819D01*
X242143333Y-102954819D02*
X242048095Y-103002438D01*
X242048095Y-103002438D02*
X242000476Y-103050057D01*
X242000476Y-103050057D02*
X241952857Y-103145295D01*
X241952857Y-103145295D02*
X241952857Y-103288152D01*
X241952857Y-103288152D02*
X242000476Y-103383390D01*
X242000476Y-103383390D02*
X242048095Y-103431009D01*
X242048095Y-103431009D02*
X242143333Y-103478628D01*
X242143333Y-103478628D02*
X242524285Y-103478628D01*
X241000476Y-103954819D02*
X241571904Y-103954819D01*
X241286190Y-103954819D02*
X241286190Y-102954819D01*
X241286190Y-102954819D02*
X241381428Y-103097676D01*
X241381428Y-103097676D02*
X241476666Y-103192914D01*
X241476666Y-103192914D02*
X241571904Y-103240533D01*
X240048095Y-103954819D02*
X240619523Y-103954819D01*
X240333809Y-103954819D02*
X240333809Y-102954819D01*
X240333809Y-102954819D02*
X240429047Y-103097676D01*
X240429047Y-103097676D02*
X240524285Y-103192914D01*
X240524285Y-103192914D02*
X240619523Y-103240533D01*
X219452857Y-29954819D02*
X219786190Y-29478628D01*
X220024285Y-29954819D02*
X220024285Y-28954819D01*
X220024285Y-28954819D02*
X219643333Y-28954819D01*
X219643333Y-28954819D02*
X219548095Y-29002438D01*
X219548095Y-29002438D02*
X219500476Y-29050057D01*
X219500476Y-29050057D02*
X219452857Y-29145295D01*
X219452857Y-29145295D02*
X219452857Y-29288152D01*
X219452857Y-29288152D02*
X219500476Y-29383390D01*
X219500476Y-29383390D02*
X219548095Y-29431009D01*
X219548095Y-29431009D02*
X219643333Y-29478628D01*
X219643333Y-29478628D02*
X220024285Y-29478628D01*
X218500476Y-29954819D02*
X219071904Y-29954819D01*
X218786190Y-29954819D02*
X218786190Y-28954819D01*
X218786190Y-28954819D02*
X218881428Y-29097676D01*
X218881428Y-29097676D02*
X218976666Y-29192914D01*
X218976666Y-29192914D02*
X219071904Y-29240533D01*
X217595714Y-28954819D02*
X218071904Y-28954819D01*
X218071904Y-28954819D02*
X218119523Y-29431009D01*
X218119523Y-29431009D02*
X218071904Y-29383390D01*
X218071904Y-29383390D02*
X217976666Y-29335771D01*
X217976666Y-29335771D02*
X217738571Y-29335771D01*
X217738571Y-29335771D02*
X217643333Y-29383390D01*
X217643333Y-29383390D02*
X217595714Y-29431009D01*
X217595714Y-29431009D02*
X217548095Y-29526247D01*
X217548095Y-29526247D02*
X217548095Y-29764342D01*
X217548095Y-29764342D02*
X217595714Y-29859580D01*
X217595714Y-29859580D02*
X217643333Y-29907200D01*
X217643333Y-29907200D02*
X217738571Y-29954819D01*
X217738571Y-29954819D02*
X217976666Y-29954819D01*
X217976666Y-29954819D02*
X218071904Y-29907200D01*
X218071904Y-29907200D02*
X218119523Y-29859580D01*
X264166666Y-100709580D02*
X264214285Y-100757200D01*
X264214285Y-100757200D02*
X264357142Y-100804819D01*
X264357142Y-100804819D02*
X264452380Y-100804819D01*
X264452380Y-100804819D02*
X264595237Y-100757200D01*
X264595237Y-100757200D02*
X264690475Y-100661961D01*
X264690475Y-100661961D02*
X264738094Y-100566723D01*
X264738094Y-100566723D02*
X264785713Y-100376247D01*
X264785713Y-100376247D02*
X264785713Y-100233390D01*
X264785713Y-100233390D02*
X264738094Y-100042914D01*
X264738094Y-100042914D02*
X264690475Y-99947676D01*
X264690475Y-99947676D02*
X264595237Y-99852438D01*
X264595237Y-99852438D02*
X264452380Y-99804819D01*
X264452380Y-99804819D02*
X264357142Y-99804819D01*
X264357142Y-99804819D02*
X264214285Y-99852438D01*
X264214285Y-99852438D02*
X264166666Y-99900057D01*
X263833332Y-99804819D02*
X263214285Y-99804819D01*
X263214285Y-99804819D02*
X263547618Y-100185771D01*
X263547618Y-100185771D02*
X263404761Y-100185771D01*
X263404761Y-100185771D02*
X263309523Y-100233390D01*
X263309523Y-100233390D02*
X263261904Y-100281009D01*
X263261904Y-100281009D02*
X263214285Y-100376247D01*
X263214285Y-100376247D02*
X263214285Y-100614342D01*
X263214285Y-100614342D02*
X263261904Y-100709580D01*
X263261904Y-100709580D02*
X263309523Y-100757200D01*
X263309523Y-100757200D02*
X263404761Y-100804819D01*
X263404761Y-100804819D02*
X263690475Y-100804819D01*
X263690475Y-100804819D02*
X263785713Y-100757200D01*
X263785713Y-100757200D02*
X263833332Y-100709580D01*
X226702857Y-103954819D02*
X227036190Y-103478628D01*
X227274285Y-103954819D02*
X227274285Y-102954819D01*
X227274285Y-102954819D02*
X226893333Y-102954819D01*
X226893333Y-102954819D02*
X226798095Y-103002438D01*
X226798095Y-103002438D02*
X226750476Y-103050057D01*
X226750476Y-103050057D02*
X226702857Y-103145295D01*
X226702857Y-103145295D02*
X226702857Y-103288152D01*
X226702857Y-103288152D02*
X226750476Y-103383390D01*
X226750476Y-103383390D02*
X226798095Y-103431009D01*
X226798095Y-103431009D02*
X226893333Y-103478628D01*
X226893333Y-103478628D02*
X227274285Y-103478628D01*
X225750476Y-103954819D02*
X226321904Y-103954819D01*
X226036190Y-103954819D02*
X226036190Y-102954819D01*
X226036190Y-102954819D02*
X226131428Y-103097676D01*
X226131428Y-103097676D02*
X226226666Y-103192914D01*
X226226666Y-103192914D02*
X226321904Y-103240533D01*
X225131428Y-102954819D02*
X225036190Y-102954819D01*
X225036190Y-102954819D02*
X224940952Y-103002438D01*
X224940952Y-103002438D02*
X224893333Y-103050057D01*
X224893333Y-103050057D02*
X224845714Y-103145295D01*
X224845714Y-103145295D02*
X224798095Y-103335771D01*
X224798095Y-103335771D02*
X224798095Y-103573866D01*
X224798095Y-103573866D02*
X224845714Y-103764342D01*
X224845714Y-103764342D02*
X224893333Y-103859580D01*
X224893333Y-103859580D02*
X224940952Y-103907200D01*
X224940952Y-103907200D02*
X225036190Y-103954819D01*
X225036190Y-103954819D02*
X225131428Y-103954819D01*
X225131428Y-103954819D02*
X225226666Y-103907200D01*
X225226666Y-103907200D02*
X225274285Y-103859580D01*
X225274285Y-103859580D02*
X225321904Y-103764342D01*
X225321904Y-103764342D02*
X225369523Y-103573866D01*
X225369523Y-103573866D02*
X225369523Y-103335771D01*
X225369523Y-103335771D02*
X225321904Y-103145295D01*
X225321904Y-103145295D02*
X225274285Y-103050057D01*
X225274285Y-103050057D02*
X225226666Y-103002438D01*
X225226666Y-103002438D02*
X225131428Y-102954819D01*
X254454819Y-97166666D02*
X255169104Y-97166666D01*
X255169104Y-97166666D02*
X255311961Y-97119047D01*
X255311961Y-97119047D02*
X255407200Y-97023809D01*
X255407200Y-97023809D02*
X255454819Y-96880952D01*
X255454819Y-96880952D02*
X255454819Y-96785714D01*
X254788152Y-98071428D02*
X255454819Y-98071428D01*
X254407200Y-97833333D02*
X255121485Y-97595238D01*
X255121485Y-97595238D02*
X255121485Y-98214285D01*
X263611904Y-96454819D02*
X263611904Y-97264342D01*
X263611904Y-97264342D02*
X263564285Y-97359580D01*
X263564285Y-97359580D02*
X263516666Y-97407200D01*
X263516666Y-97407200D02*
X263421428Y-97454819D01*
X263421428Y-97454819D02*
X263230952Y-97454819D01*
X263230952Y-97454819D02*
X263135714Y-97407200D01*
X263135714Y-97407200D02*
X263088095Y-97359580D01*
X263088095Y-97359580D02*
X263040476Y-97264342D01*
X263040476Y-97264342D02*
X263040476Y-96454819D01*
X262135714Y-96788152D02*
X262135714Y-97454819D01*
X262373809Y-96407200D02*
X262611904Y-97121485D01*
X262611904Y-97121485D02*
X261992857Y-97121485D01*
X103374819Y-101433333D02*
X102898628Y-101100000D01*
X103374819Y-100861905D02*
X102374819Y-100861905D01*
X102374819Y-100861905D02*
X102374819Y-101242857D01*
X102374819Y-101242857D02*
X102422438Y-101338095D01*
X102422438Y-101338095D02*
X102470057Y-101385714D01*
X102470057Y-101385714D02*
X102565295Y-101433333D01*
X102565295Y-101433333D02*
X102708152Y-101433333D01*
X102708152Y-101433333D02*
X102803390Y-101385714D01*
X102803390Y-101385714D02*
X102851009Y-101338095D01*
X102851009Y-101338095D02*
X102898628Y-101242857D01*
X102898628Y-101242857D02*
X102898628Y-100861905D01*
X103374819Y-102385714D02*
X103374819Y-101814286D01*
X103374819Y-102100000D02*
X102374819Y-102100000D01*
X102374819Y-102100000D02*
X102517676Y-102004762D01*
X102517676Y-102004762D02*
X102612914Y-101909524D01*
X102612914Y-101909524D02*
X102660533Y-101814286D01*
X217744819Y-32166666D02*
X218459104Y-32166666D01*
X218459104Y-32166666D02*
X218601961Y-32119047D01*
X218601961Y-32119047D02*
X218697200Y-32023809D01*
X218697200Y-32023809D02*
X218744819Y-31880952D01*
X218744819Y-31880952D02*
X218744819Y-31785714D01*
X218744819Y-33166666D02*
X218744819Y-32595238D01*
X218744819Y-32880952D02*
X217744819Y-32880952D01*
X217744819Y-32880952D02*
X217887676Y-32785714D01*
X217887676Y-32785714D02*
X217982914Y-32690476D01*
X217982914Y-32690476D02*
X218030533Y-32595238D01*
X150034819Y-101433333D02*
X149558628Y-101100000D01*
X150034819Y-100861905D02*
X149034819Y-100861905D01*
X149034819Y-100861905D02*
X149034819Y-101242857D01*
X149034819Y-101242857D02*
X149082438Y-101338095D01*
X149082438Y-101338095D02*
X149130057Y-101385714D01*
X149130057Y-101385714D02*
X149225295Y-101433333D01*
X149225295Y-101433333D02*
X149368152Y-101433333D01*
X149368152Y-101433333D02*
X149463390Y-101385714D01*
X149463390Y-101385714D02*
X149511009Y-101338095D01*
X149511009Y-101338095D02*
X149558628Y-101242857D01*
X149558628Y-101242857D02*
X149558628Y-100861905D01*
X149034819Y-102338095D02*
X149034819Y-101861905D01*
X149034819Y-101861905D02*
X149511009Y-101814286D01*
X149511009Y-101814286D02*
X149463390Y-101861905D01*
X149463390Y-101861905D02*
X149415771Y-101957143D01*
X149415771Y-101957143D02*
X149415771Y-102195238D01*
X149415771Y-102195238D02*
X149463390Y-102290476D01*
X149463390Y-102290476D02*
X149511009Y-102338095D01*
X149511009Y-102338095D02*
X149606247Y-102385714D01*
X149606247Y-102385714D02*
X149844342Y-102385714D01*
X149844342Y-102385714D02*
X149939580Y-102338095D01*
X149939580Y-102338095D02*
X149987200Y-102290476D01*
X149987200Y-102290476D02*
X150034819Y-102195238D01*
X150034819Y-102195238D02*
X150034819Y-101957143D01*
X150034819Y-101957143D02*
X149987200Y-101861905D01*
X149987200Y-101861905D02*
X149939580Y-101814286D01*
X255264819Y-68166666D02*
X255979104Y-68166666D01*
X255979104Y-68166666D02*
X256121961Y-68119047D01*
X256121961Y-68119047D02*
X256217200Y-68023809D01*
X256217200Y-68023809D02*
X256264819Y-67880952D01*
X256264819Y-67880952D02*
X256264819Y-67785714D01*
X255264819Y-69071428D02*
X255264819Y-68880952D01*
X255264819Y-68880952D02*
X255312438Y-68785714D01*
X255312438Y-68785714D02*
X255360057Y-68738095D01*
X255360057Y-68738095D02*
X255502914Y-68642857D01*
X255502914Y-68642857D02*
X255693390Y-68595238D01*
X255693390Y-68595238D02*
X256074342Y-68595238D01*
X256074342Y-68595238D02*
X256169580Y-68642857D01*
X256169580Y-68642857D02*
X256217200Y-68690476D01*
X256217200Y-68690476D02*
X256264819Y-68785714D01*
X256264819Y-68785714D02*
X256264819Y-68976190D01*
X256264819Y-68976190D02*
X256217200Y-69071428D01*
X256217200Y-69071428D02*
X256169580Y-69119047D01*
X256169580Y-69119047D02*
X256074342Y-69166666D01*
X256074342Y-69166666D02*
X255836247Y-69166666D01*
X255836247Y-69166666D02*
X255741009Y-69119047D01*
X255741009Y-69119047D02*
X255693390Y-69071428D01*
X255693390Y-69071428D02*
X255645771Y-68976190D01*
X255645771Y-68976190D02*
X255645771Y-68785714D01*
X255645771Y-68785714D02*
X255693390Y-68690476D01*
X255693390Y-68690476D02*
X255741009Y-68642857D01*
X255741009Y-68642857D02*
X255836247Y-68595238D01*
X256034819Y-101667142D02*
X255558628Y-101333809D01*
X256034819Y-101095714D02*
X255034819Y-101095714D01*
X255034819Y-101095714D02*
X255034819Y-101476666D01*
X255034819Y-101476666D02*
X255082438Y-101571904D01*
X255082438Y-101571904D02*
X255130057Y-101619523D01*
X255130057Y-101619523D02*
X255225295Y-101667142D01*
X255225295Y-101667142D02*
X255368152Y-101667142D01*
X255368152Y-101667142D02*
X255463390Y-101619523D01*
X255463390Y-101619523D02*
X255511009Y-101571904D01*
X255511009Y-101571904D02*
X255558628Y-101476666D01*
X255558628Y-101476666D02*
X255558628Y-101095714D01*
X256034819Y-102619523D02*
X256034819Y-102048095D01*
X256034819Y-102333809D02*
X255034819Y-102333809D01*
X255034819Y-102333809D02*
X255177676Y-102238571D01*
X255177676Y-102238571D02*
X255272914Y-102143333D01*
X255272914Y-102143333D02*
X255320533Y-102048095D01*
X255130057Y-103000476D02*
X255082438Y-103048095D01*
X255082438Y-103048095D02*
X255034819Y-103143333D01*
X255034819Y-103143333D02*
X255034819Y-103381428D01*
X255034819Y-103381428D02*
X255082438Y-103476666D01*
X255082438Y-103476666D02*
X255130057Y-103524285D01*
X255130057Y-103524285D02*
X255225295Y-103571904D01*
X255225295Y-103571904D02*
X255320533Y-103571904D01*
X255320533Y-103571904D02*
X255463390Y-103524285D01*
X255463390Y-103524285D02*
X256034819Y-102952857D01*
X256034819Y-102952857D02*
X256034819Y-103571904D01*
D12*
%TO.C,J7*%
X256239000Y-33560000D02*
X256239000Y-23440000D01*
X259199000Y-33560000D02*
X259199000Y-23440000D01*
X260261000Y-32035000D02*
X260225000Y-32070000D01*
X260477000Y-32228000D02*
X260431000Y-32275000D01*
X262569000Y-29726000D02*
X262523000Y-29773000D01*
X262774000Y-29931000D02*
X262739000Y-29966000D01*
X264100000Y-33560000D02*
X264100000Y-23440000D01*
X265600000Y-33560000D02*
X265600000Y-23440000D01*
X266160000Y-23440000D02*
X256239000Y-23440000D01*
X266160000Y-33560000D02*
X256239000Y-33560000D01*
X266160000Y-33560000D02*
X266160000Y-23440000D01*
X266400000Y-23200000D02*
X265660000Y-23200000D01*
X266400000Y-23700000D02*
X266400000Y-23200000D01*
X259965000Y-26684000D02*
G75*
G02*
X259964573Y-25316958I1534993J684001D01*
G01*
X260816000Y-24465000D02*
G75*
G02*
X262183042Y-24464573I684001J-1534993D01*
G01*
X262184000Y-27535000D02*
G75*
G02*
X260816958Y-27535427I-684001J1535004D01*
G01*
X263035000Y-25316000D02*
G75*
G02*
X263180253Y-26028805I-1535001J-683999D01*
G01*
X263180000Y-26000000D02*
G75*
G02*
X263034756Y-26683318I-1680000J0D01*
G01*
X263180000Y-31000000D02*
G75*
G02*
X259820000Y-31000000I-1680000J0D01*
G01*
X259820000Y-31000000D02*
G75*
G02*
X263180000Y-31000000I1680000J0D01*
G01*
%TO.C,C2*%
X178288748Y-90090000D02*
X179711252Y-90090000D01*
X178288748Y-91910000D02*
X179711252Y-91910000D01*
%TO.C,R16*%
X216770000Y-26080000D02*
X216770000Y-27920000D01*
X216770000Y-27000000D02*
X215820000Y-27000000D01*
X216770000Y-27920000D02*
X220610000Y-27920000D01*
X220610000Y-26080000D02*
X216770000Y-26080000D01*
X220610000Y-27000000D02*
X221560000Y-27000000D01*
X220610000Y-27920000D02*
X220610000Y-26080000D01*
%TO.C,R14*%
X227390000Y-25580000D02*
X227390000Y-27420000D01*
X227390000Y-26500000D02*
X226440000Y-26500000D01*
X227390000Y-27420000D02*
X231230000Y-27420000D01*
X231230000Y-25580000D02*
X227390000Y-25580000D01*
X231230000Y-26500000D02*
X232180000Y-26500000D01*
X231230000Y-27420000D02*
X231230000Y-25580000D01*
%TO.C,J3*%
X218560000Y-67145000D02*
X218560000Y-69805000D01*
X218560000Y-67145000D02*
X228780000Y-67145000D01*
X218560000Y-69805000D02*
X228780000Y-69805000D01*
X228780000Y-67145000D02*
X228780000Y-69805000D01*
X230050000Y-67145000D02*
X231380000Y-67145000D01*
X231380000Y-67145000D02*
X231380000Y-68475000D01*
%TO.C,R4*%
X136875000Y-99680000D02*
X136875000Y-103520000D01*
X136875000Y-103520000D02*
X138715000Y-103520000D01*
X137795000Y-99680000D02*
X137795000Y-98730000D01*
X137795000Y-103520000D02*
X137795000Y-104470000D01*
X138715000Y-99680000D02*
X136875000Y-99680000D01*
X138715000Y-103520000D02*
X138715000Y-99680000D01*
%TO.C,R3*%
X121635000Y-99680000D02*
X121635000Y-103520000D01*
X121635000Y-103520000D02*
X123475000Y-103520000D01*
X122555000Y-99680000D02*
X122555000Y-98730000D01*
X122555000Y-103520000D02*
X122555000Y-104470000D01*
X123475000Y-99680000D02*
X121635000Y-99680000D01*
X123475000Y-103520000D02*
X123475000Y-99680000D01*
%TO.C,F1*%
X251090000Y-25897936D02*
X251090000Y-27102064D01*
X252910000Y-25897936D02*
X252910000Y-27102064D01*
%TO.C,J2*%
X258170000Y-67170000D02*
X259500000Y-67170000D01*
X258170000Y-68500000D02*
X258170000Y-67170000D01*
X260770000Y-69830000D02*
X260770000Y-67170000D01*
X265910000Y-67170000D02*
X260770000Y-67170000D01*
X265910000Y-69830000D02*
X260770000Y-69830000D01*
X265910000Y-69830000D02*
X265910000Y-67170000D01*
%TO.C,J5*%
X254370000Y-89670000D02*
X254370000Y-91000000D01*
X253040000Y-89670000D02*
X254370000Y-89670000D01*
X251770000Y-89670000D02*
X251770000Y-92330000D01*
X236470000Y-92330000D02*
X251770000Y-92330000D01*
X236470000Y-89670000D02*
X251770000Y-89670000D01*
X236470000Y-89670000D02*
X236470000Y-92330000D01*
%TO.C,R17*%
X227270000Y-28080000D02*
X227270000Y-29920000D01*
X227270000Y-29000000D02*
X226320000Y-29000000D01*
X227270000Y-29920000D02*
X231110000Y-29920000D01*
X231110000Y-28080000D02*
X227270000Y-28080000D01*
X231110000Y-29000000D02*
X232060000Y-29000000D01*
X231110000Y-29920000D02*
X231110000Y-28080000D01*
%TO.C,U2*%
X198045000Y-92380000D02*
X198045000Y-96880000D01*
X198045000Y-96880000D02*
X218485000Y-96880000D01*
X218485000Y-92380000D02*
X198045000Y-92380000D01*
X218485000Y-93630000D02*
X218485000Y-92380000D01*
X218485000Y-96880000D02*
X218485000Y-95630000D01*
X218485000Y-95630000D02*
G75*
G02*
X218485000Y-93630000I0J1000000D01*
G01*
%TO.C,R9*%
X208900000Y-103220000D02*
X208900000Y-105060000D01*
X208900000Y-104140000D02*
X207950000Y-104140000D01*
X208900000Y-105060000D02*
X212740000Y-105060000D01*
X212740000Y-103220000D02*
X208900000Y-103220000D01*
X212740000Y-104140000D02*
X213690000Y-104140000D01*
X212740000Y-105060000D02*
X212740000Y-103220000D01*
%TO.C,C6*%
X242120000Y-27500000D02*
G75*
G02*
X236880000Y-27500000I-2620000J0D01*
G01*
X236880000Y-27500000D02*
G75*
G02*
X242120000Y-27500000I2620000J0D01*
G01*
%TO.C,R13*%
X216770000Y-23580000D02*
X216770000Y-25420000D01*
X216770000Y-24500000D02*
X215820000Y-24500000D01*
X216770000Y-25420000D02*
X220610000Y-25420000D01*
X220610000Y-23580000D02*
X216770000Y-23580000D01*
X220610000Y-24500000D02*
X221560000Y-24500000D01*
X220610000Y-25420000D02*
X220610000Y-23580000D01*
%TO.C,C1*%
X220788748Y-90090000D02*
X222211252Y-90090000D01*
X220788748Y-91910000D02*
X222211252Y-91910000D01*
%TO.C,R6*%
X176245000Y-99680000D02*
X176245000Y-103520000D01*
X176245000Y-103520000D02*
X178085000Y-103520000D01*
X177165000Y-99680000D02*
X177165000Y-98730000D01*
X177165000Y-103520000D02*
X177165000Y-104470000D01*
X178085000Y-99680000D02*
X176245000Y-99680000D01*
X178085000Y-103520000D02*
X178085000Y-99680000D01*
%TO.C,R7*%
X191485000Y-99680000D02*
X191485000Y-103520000D01*
X191485000Y-103520000D02*
X193325000Y-103520000D01*
X192405000Y-99680000D02*
X192405000Y-98730000D01*
X192405000Y-103520000D02*
X192405000Y-104470000D01*
X193325000Y-99680000D02*
X191485000Y-99680000D01*
X193325000Y-103520000D02*
X193325000Y-99680000D01*
%TO.C,R2*%
X106395000Y-99680000D02*
X106395000Y-103520000D01*
X106395000Y-103520000D02*
X108235000Y-103520000D01*
X107315000Y-99680000D02*
X107315000Y-98730000D01*
X107315000Y-103520000D02*
X107315000Y-104470000D01*
X108235000Y-99680000D02*
X106395000Y-99680000D01*
X108235000Y-103520000D02*
X108235000Y-99680000D01*
%TO.C,R8*%
X194025000Y-99680000D02*
X194025000Y-103520000D01*
X194025000Y-103520000D02*
X195865000Y-103520000D01*
X194945000Y-99680000D02*
X194945000Y-98730000D01*
X194945000Y-103520000D02*
X194945000Y-104470000D01*
X195865000Y-99680000D02*
X194025000Y-99680000D01*
X195865000Y-103520000D02*
X195865000Y-99680000D01*
%TO.C,C4*%
X249120000Y-27500000D02*
G75*
G02*
X243880000Y-27500000I-2620000J0D01*
G01*
X243880000Y-27500000D02*
G75*
G02*
X249120000Y-27500000I2620000J0D01*
G01*
%TO.C,C5*%
X256090000Y-92211252D02*
X256090000Y-90788748D01*
X257910000Y-92211252D02*
X257910000Y-90788748D01*
%TO.C,U3*%
D11*
X215850000Y-34875000D02*
X266650000Y-34875000D01*
X266650000Y-65355000D01*
X215850000Y-65355000D01*
X215850000Y-34875000D01*
X266650000Y-45035000D02*
X269190000Y-45035000D01*
X269190000Y-55195000D01*
X266650000Y-55195000D01*
X266650000Y-45035000D01*
D12*
%TO.C,U1*%
X154865000Y-92560000D02*
X154865000Y-97060000D01*
X154865000Y-97060000D02*
X175305000Y-97060000D01*
X175305000Y-92560000D02*
X154865000Y-92560000D01*
X175305000Y-93810000D02*
X175305000Y-92560000D01*
X175305000Y-97060000D02*
X175305000Y-95810000D01*
X175305000Y-95810000D02*
G75*
G02*
X175305000Y-93810000I0J1000000D01*
G01*
%TO.C,R11*%
X239390000Y-104580000D02*
X239390000Y-106420000D01*
X239390000Y-105500000D02*
X238440000Y-105500000D01*
X239390000Y-106420000D02*
X243230000Y-106420000D01*
X243230000Y-104580000D02*
X239390000Y-104580000D01*
X243230000Y-105500000D02*
X244180000Y-105500000D01*
X243230000Y-106420000D02*
X243230000Y-104580000D01*
%TO.C,R15*%
X216890000Y-28580000D02*
X216890000Y-30420000D01*
X216890000Y-29500000D02*
X215940000Y-29500000D01*
X216890000Y-30420000D02*
X220730000Y-30420000D01*
X220730000Y-28580000D02*
X216890000Y-28580000D01*
X220730000Y-29500000D02*
X221680000Y-29500000D01*
X220730000Y-30420000D02*
X220730000Y-28580000D01*
%TO.C,C3*%
X264711252Y-97590000D02*
X263288748Y-97590000D01*
X264711252Y-99410000D02*
X263288748Y-99410000D01*
%TO.C,R10*%
X224140000Y-104490000D02*
X224140000Y-106330000D01*
X224140000Y-105410000D02*
X223190000Y-105410000D01*
X224140000Y-106330000D02*
X227980000Y-106330000D01*
X227980000Y-104490000D02*
X224140000Y-104490000D01*
X227980000Y-105410000D02*
X228930000Y-105410000D01*
X227980000Y-106330000D02*
X227980000Y-104490000D01*
%TO.C,J4*%
X254410000Y-95670000D02*
X254410000Y-97000000D01*
X253080000Y-95670000D02*
X254410000Y-95670000D01*
X251810000Y-95670000D02*
X251810000Y-98330000D01*
X236510000Y-98330000D02*
X251810000Y-98330000D01*
X236510000Y-95670000D02*
X251810000Y-95670000D01*
X236510000Y-95670000D02*
X236510000Y-98330000D01*
%TO.C,U4*%
X264760000Y-89090000D02*
X261000000Y-89090000D01*
X264760000Y-90350000D02*
X264760000Y-89090000D01*
X264760000Y-94650000D02*
X264760000Y-95910000D01*
X264760000Y-95910000D02*
X261000000Y-95910000D01*
X259960000Y-96140000D02*
X259480000Y-96140000D01*
X259720000Y-95810000D01*
X259960000Y-96140000D01*
G36*
X259960000Y-96140000D02*
G01*
X259480000Y-96140000D01*
X259720000Y-95810000D01*
X259960000Y-96140000D01*
G37*
%TO.C,R1*%
X100080000Y-99680000D02*
X100080000Y-103520000D01*
X100080000Y-103520000D02*
X101920000Y-103520000D01*
X101000000Y-99680000D02*
X101000000Y-98730000D01*
X101000000Y-103520000D02*
X101000000Y-104470000D01*
X101920000Y-99680000D02*
X100080000Y-99680000D01*
X101920000Y-103520000D02*
X101920000Y-99680000D01*
%TO.C,J1*%
X219730000Y-33830000D02*
X219730000Y-32500000D01*
X221060000Y-33830000D02*
X219730000Y-33830000D01*
X222330000Y-33830000D02*
X222330000Y-31170000D01*
X252870000Y-31170000D02*
X222330000Y-31170000D01*
X252870000Y-33830000D02*
X222330000Y-33830000D01*
X252870000Y-33830000D02*
X252870000Y-31170000D01*
%TO.C,R5*%
X150580000Y-99680000D02*
X150580000Y-103520000D01*
X150580000Y-103520000D02*
X152420000Y-103520000D01*
X151500000Y-99680000D02*
X151500000Y-98730000D01*
X151500000Y-103520000D02*
X151500000Y-104470000D01*
X152420000Y-99680000D02*
X150580000Y-99680000D01*
X152420000Y-103520000D02*
X152420000Y-99680000D01*
%TO.C,J6*%
X236470000Y-67170000D02*
X236470000Y-69830000D01*
X236470000Y-67170000D02*
X251770000Y-67170000D01*
X236470000Y-69830000D02*
X251770000Y-69830000D01*
X251770000Y-67170000D02*
X251770000Y-69830000D01*
X253040000Y-67170000D02*
X254370000Y-67170000D01*
X254370000Y-67170000D02*
X254370000Y-68500000D01*
%TO.C,R12*%
X256580000Y-100390000D02*
X256580000Y-104230000D01*
X256580000Y-104230000D02*
X258420000Y-104230000D01*
X257500000Y-100390000D02*
X257500000Y-99440000D01*
X257500000Y-104230000D02*
X257500000Y-105180000D01*
X258420000Y-100390000D02*
X256580000Y-100390000D01*
X258420000Y-104230000D02*
X258420000Y-100390000D01*
%TD*%
M02*
